<?xml version="1.0" encoding="utf-8"?>
<!-- Generator: Adobe Illustrator 27.5.0, SVG Export Plug-In . SVG Version: 6.00 Build 0)  -->
<svg version="1.1" xmlns="http://www.w3.org/2000/svg" xmlns:xlink="http://www.w3.org/1999/xlink" x="0px" y="0px"
	 viewBox="0 0 500 500" style="enable-background:new 0 0 500 500;" xml:space="preserve">
<g id="BACKGROUND">
	<rect style="fill:#FAFFF5;" width="500" height="500"/>
</g>
<g id="OBJECTS">
	<g>
		<g>
			<path style="fill:#DF854A;" d="M111.844,294.403c-0.965,3.009-5.037,19.277-9.023,9.041c-0.501-1.286-0.532-2.7-0.535-4.08
				c-0.015-6.374,0.425-12.762,1.358-19.069c0.502-3.393,2.046-10.353,5.854-11.678c1.95-0.679,4.172,0.552,5.22,2.331
				s1.168,3.948,1.072,6.011C115.511,282.932,113.67,288.708,111.844,294.403z"/>
			
				<path style="fill:none;stroke:#17443E;stroke-width:1.7638;stroke-linecap:round;stroke-linejoin:round;stroke-miterlimit:10;" d="
				M111.873,268.97c0.677-3.205,1.355-6.409,2.032-9.613"/>
			
				<path style="fill:none;stroke:#17443E;stroke-width:1.7638;stroke-linecap:round;stroke-linejoin:round;stroke-miterlimit:10;" d="
				M112.04,269.695c1.863-2.887,3.726-5.773,5.589-8.66"/>
			
				<path style="fill:none;stroke:#17443E;stroke-width:1.7638;stroke-linecap:round;stroke-linejoin:round;stroke-miterlimit:10;" d="
				M110.548,259.392c0.626,3.082,1.253,6.164,1.879,9.245"/>
			<path style="fill:none;stroke:#BA5C27;stroke-width:1.4;stroke-linecap:round;stroke-linejoin:round;stroke-miterlimit:10;" d="
				M107.33,274.644c2.33,0.753,4.659,1.505,6.989,2.257"/>
		</g>
		<g>
			<path style="fill:#A06B44;" d="M57.794,292.889c0.414-4.342,3.402-8.339,7.45-9.965c4.047-1.626,8.971-0.806,12.273,2.042
				c2.712-6.305,7.584-12.618,14.389-13.506c6.806-0.888,14.271,3.428,15.818,10.115c2.237-2.481,5.534-3.315,8.844-2.859
				s6.333,2.633,7.815,5.626c3.17-3.294,8.8-3.639,12.567-1.048c3.766,2.591,5.479,7.676,4.419,12.123"/>
			<g>
				<g>
					<g>
						<path style="fill:#A06B44;" d="M122.928,275.138c1.93,0,1.934-3,0-3C120.998,272.138,120.995,275.138,122.928,275.138
							L122.928,275.138z"/>
					</g>
				</g>
				<g>
					<g>
						<path style="fill:#A06B44;" d="M74.486,279.119c1.93,0,1.934-3,0-3C72.556,276.119,72.553,279.119,74.486,279.119
							L74.486,279.119z"/>
					</g>
				</g>
				<g>
					<g>
						<path style="fill:#A06B44;" d="M80.459,274.474c1.93,0,1.933-3,0-3C78.528,271.474,78.525,274.474,80.459,274.474
							L80.459,274.474z"/>
					</g>
				</g>
			</g>
		</g>
		<g>
			<path style="fill:#266660;" d="M97.298,284.309c-3.543,0.369-7.228-1.146-9.488-3.9c-2.259-2.754-3.025-6.664-1.97-10.067
				c3.312,0.253,6.188,2.132,8.088,4.856C95.828,277.922,96.825,281.022,97.298,284.309z"/>
			
				<path style="fill:none;stroke:#17443E;stroke-width:1.7638;stroke-linecap:round;stroke-linejoin:round;stroke-miterlimit:10;" d="
				M85.965,269.719C90.287,275.109,94.677,281.61,99,287"/>
		</g>
		<g>
			<path style="fill:#266660;" d="M122.124,401.511c0.467,1.324,0.136,2.712-0.04,4.071c-0.176,1.359-0.158,2.818,0.892,3.968
				c1.05,1.15,3.47,1.775,5.029,0.953c1.105-0.582,1.413-1.635,1.573-2.596c0.329-1.978,0.372-3.98,0.128-5.964"/>
			<path style="fill:#266660;" d="M75.486,401.511c0.454,1.324,0.132,2.712-0.039,4.071c-0.171,1.359-0.154,2.818,0.866,3.968
				c1.02,1.15,3.37,1.775,4.884,0.953c1.073-0.582,1.372-1.635,1.527-2.596c0.32-1.978,0.362-3.98,0.124-5.964"/>
			<path style="fill:#549674;" d="M54,293c1.6,34.384,2.965,71.2,6.961,106.636c0.308,2.732,2.535,4.857,5.281,5.01
				c23.592,1.312,48.182,0.587,71.826-0.269c3.023-0.109,5.428-2.574,5.453-5.599c0.317-37.943,3.607-69.438,5.478-106.778L54,293z"
				/>
			<path style="fill:#549674;" d="M149.623,296.454c-32.361,0.972-64.76,0.668-97.097-0.911c-0.439-0.021-0.798-0.357-0.84-0.794
				c-0.082-0.857-0.267-1.805-0.364-2.675c-0.058-0.522,0.349-0.976,0.875-0.98c8.499-0.067,72.539,0.077,97.438-0.071
				c1.346-0.008,2.402,1.153,2.264,2.493c-0.031,0.296-0.062,0.593-0.09,0.888C151.698,295.54,150.765,296.42,149.623,296.454z"/>
			<path style="fill:#549674;" d="M149.737,299.793c-0.095,0.529-0.56,0.914-1.098,0.922c-31.673,0.486-63.384-0.622-95.034-1.437
				c-0.485-0.013-0.9-0.341-1.028-0.808c-0.002-0.008-0.004-0.015-0.006-0.023c-0.194-0.701,0.334-1.393,1.061-1.386
				c10.019,0.105,72.148,0.991,95.081,0.943c0.712-0.002,1.249,0.648,1.109,1.347C149.793,299.499,149.763,299.647,149.737,299.793z
				"/>
			<path style="fill:#549674;" d="M149.737,302.793c-0.095,0.529-0.56,0.914-1.098,0.922c-31.673,0.486-63.384-0.622-95.034-1.437
				c-0.485-0.013-0.9-0.341-1.028-0.808c-0.002-0.008-0.004-0.015-0.006-0.023c-0.194-0.701,0.334-1.393,1.061-1.386
				c10.019,0.105,72.148,0.991,95.081,0.943c0.712-0.002,1.249,0.648,1.109,1.347C149.793,302.499,149.763,302.647,149.737,302.793z
				"/>
			
				<path style="fill:none;stroke:#266660;stroke-width:1.7638;stroke-linecap:round;stroke-linejoin:round;stroke-miterlimit:10;" d="
				M54.824,295.316c31.094,1.15,62.213,1.588,93.327,1.313"/>
			
				<path style="fill:none;stroke:#266660;stroke-width:1.7638;stroke-linecap:round;stroke-linejoin:round;stroke-miterlimit:10;" d="
				M54.801,299.419c31.114,0.415,62.227,0.831,93.341,1.246"/>
			
				<path style="fill:none;stroke:#266660;stroke-width:1.7638;stroke-linecap:round;stroke-linejoin:round;stroke-miterlimit:10;" d="
				M54.801,303.419c31.114,0.415,62.227,0.831,93.341,1.246"/>
			<path style="fill:#549674;" d="M143.949,314.667c3.601-0.02,7.2-0.23,10.778-0.63c2.239-0.25,5.09-1.263,4.999-3.514
				c-0.069-1.71-1.903-2.752-3.549-3.225c-2.971-0.854-6.154-0.962-9.177-0.311c-2.065-0.255-4.325-0.493-5.924,0.839
				C138.881,309.657,141.336,313.507,143.949,314.667z"/>
			<path style="fill:#549674;" d="M60.007,314.667c-3.601-0.02-7.2-0.23-10.778-0.63c-2.239-0.25-5.09-1.263-4.999-3.514
				c0.069-1.71,1.903-2.752,3.549-3.225c2.972-0.854,6.154-0.962,9.177-0.311c2.065-0.255,4.325-0.493,5.924,0.839
				C65.075,309.657,62.621,313.507,60.007,314.667z"/>
			
				<path style="fill:none;stroke:#266660;stroke-width:1.7638;stroke-linecap:round;stroke-linejoin:round;stroke-miterlimit:10;" d="
				M140.412,394.868c0-3.244,0-6.489,0-9.733"/>
		</g>
		<g>
			<path style="fill:#549674;" d="M125.325,249.66c-30.74,10.162-61.88,19.111-93.324,26.82c-0.427,0.105-0.867-0.114-1.032-0.522
				c-0.323-0.798-0.771-1.654-1.112-2.46c-0.205-0.484,0.056-1.035,0.559-1.189c8.127-2.488,69.548-20.615,93.37-27.858
				c1.288-0.392,2.631,0.421,2.881,1.743c0.055,0.293,0.11,0.586,0.167,0.877C127.052,248.192,126.409,249.301,125.325,249.66z"/>
			<path style="fill:#549674;" d="M32.105,274.276c-0.586-10.187,3.052-18.897,11.426-24.727s18.428-8.631,28.268-11.334
				c3.689-1.014,10.26-2.862,13.95-3.875c6.459-1.774,13.218-3.561,19.773-2.187c6.556,1.374,13.321,7.088,17.468,14.215"/>
			
				<path style="fill:none;stroke:#266660;stroke-width:1.7638;stroke-linecap:round;stroke-linejoin:round;stroke-miterlimit:10;" d="
				M32.632,271.684c30.132-8.676,60.265-17.352,90.397-26.028"/>
		</g>
		<g>
			<path style="fill:#FAFFF5;" d="M65.151,347c-0.502-7.547-1.004-15.225-1.507-22.772c0.653,0.36,73.312-1.228,73.312-1.228
				s1.297,23.818,1.514,24"/>
			<text transform="matrix(1 0 0 1 72.3706 340.7344)" style="fill:#17443E; font-family:'Quicksand-Bold'; font-size:12.4296px;">COMPOST</text>
		</g>
	</g>
	<g>
		<g>
			<path style="fill:#DD5D57;" d="M260.855,367.652c-5.692-0.207-11.211-2.562-14.469-7.424c-3.104-4.633-3.434-10.908-0.831-15.827
				c1.542-2.913,4.138-5.388,7.353-6.333c3.215-0.946,7.028-0.151,9.219,2.333c2.86-4.15,10.437-5.666,14.856-3.136
				c4.419,2.53,6.686,7.892,6.142,12.866c-0.599,5.475-4.378,10.676-8.907,13.788C270.445,366.511,265.59,367.824,260.855,367.652z"
				/>
			<path style="fill:#17443E;" d="M261.776,339.444c-3.627,2.538-4.333,8.232-1.431,11.542
				C263.939,348.22,264.436,343.08,261.776,339.444z"/>
			<path style="fill:#17443E;" d="M263.487,327.927c-3.255,3.603-4.041,9.145-1.911,13.477c1.95-1.384,3.474-3.715,3.855-6.04
				C265.812,333.039,264.898,329.836,263.487,327.927z"/>
			<path style="fill:#17443E;" d="M272.076,344.502c-2.087,0.96-4.615,0.949-6.693-0.027c-2.078-0.977-3.665-2.9-4.199-5.091
				C265.436,338.171,270.5,340.458,272.076,344.502z"/>
			<path style="fill:#17443E;" d="M263.275,340.703c-1.913,1.258-4.414,1.622-6.62,0.965c-2.206-0.657-4.073-2.323-4.941-4.409
				C255.728,335.43,261.09,336.94,263.275,340.703z"/>
			
				<path style="fill:none;stroke:#EBF4E3;stroke-width:2.0995;stroke-linecap:round;stroke-linejoin:round;stroke-miterlimit:10;" d="
				M273.661,339.633c1.674,0.804,3.249,1.806,4.677,2.977"/>
		</g>
		<g>
			<path style="fill:#DD5D57;" d="M231.089,346.688c-5.46,1.585-11.46,1.081-16.141-2.505c-4.46-3.417-6.831-9.259-5.979-14.732
				c0.505-3.242,2.153-6.398,4.888-8.3c2.735-1.902,6.608-2.342,9.499-0.674c1.348-4.826,8.028-8.633,13.044-7.619
				c5.016,1.014,8.923,5.384,10.039,10.266c1.229,5.374-0.645,11.483-3.914,15.848C239.799,342.606,235.631,345.369,231.089,346.688
				z"/>
			<path style="fill:#17443E;" d="M222.706,319.678c-2.603,3.539-1.403,9.154,2.431,11.381
				C227.635,327.315,226.419,322.29,222.706,319.678z"/>
			<path style="fill:#17443E;" d="M220.549,308.233c-1.902,4.431-0.828,9.928,2.611,13.364c1.393-1.921,2.072-4.606,1.67-6.927
				C224.428,312.348,222.512,309.6,220.549,308.233z"/>
			<path style="fill:#17443E;" d="M234.123,321.247c-1.662,1.562-4.061,2.343-6.35,2.068c-2.289-0.275-4.423-1.6-5.648-3.508
				C225.756,317.327,231.304,317.909,234.123,321.247z"/>
			<path style="fill:#17443E;" d="M224.54,320.402c-1.4,1.79-3.649,2.918-5.954,2.986c-2.305,0.068-4.62-0.926-6.127-2.631
				C215.66,317.768,221.235,317.521,224.54,320.402z"/>
			
				<path style="fill:none;stroke:#EBF4E3;stroke-width:2.0995;stroke-linecap:round;stroke-linejoin:round;stroke-miterlimit:10;" d="
				M234.028,316.138c1.85,0.237,3.67,0.694,5.407,1.357"/>
		</g>
		<g>
			<path style="fill:#DD5D57;" d="M251.811,312.592c-5.073-2.529-9.063-6.934-9.921-12.684c-0.818-5.478,1.59-11.306,6.072-14.696
				c2.654-2.008,6.077-3.185,9.401-2.72c3.324,0.464,6.439,2.754,7.355,5.908c4.383-2.587,11.91-0.846,14.827,3.265
				c2.917,4.112,2.661,9.908,0.022,14.195c-2.905,4.719-8.575,7.883-14.024,8.842C261.002,315.502,256.032,314.696,251.811,312.592z
				"/>
			<path style="fill:#17443E;" d="M264.811,287.387c-4.384,0.81-7.48,5.685-6.275,9.88
				C262.989,296.237,265.656,291.778,264.811,287.387z"/>
			<path style="fill:#17443E;" d="M271.331,277.644c-4.506,1.929-7.609,6.633-7.545,11.437c2.366-0.453,4.753-1.941,6.101-3.892
				C271.234,283.237,271.787,279.956,271.331,277.644z"/>
			<path style="fill:#17443E;" d="M271.972,296.21c-2.306,0.012-4.595-1.037-6.059-2.778c-1.464-1.74-2.073-4.137-1.613-6.344
				C268.68,287.737,272.287,291.895,271.972,296.21z"/>
			<path style="fill:#17443E;" d="M265.628,289.145c-2.278,0.354-4.703-0.344-6.421-1.847c-1.717-1.503-2.692-3.782-2.58-6.031
				C261.057,281.259,265.269,284.833,265.628,289.145z"/>
			
				<path style="fill:none;stroke:#EBF4E3;stroke-width:2.0995;stroke-linecap:round;stroke-linejoin:round;stroke-miterlimit:10;" d="
				M275.51,292.447c1.172,1.417,2.168,2.974,2.958,4.624"/>
		</g>
		<g>
			<path style="fill:#DD5D57;" d="M244.758,265.485c-5.615,0.934-11.511-0.268-15.718-4.376c-4.009-3.915-5.646-9.992-4.128-15.326
				c0.899-3.159,2.922-6.1,5.871-7.668c2.949-1.568,6.848-1.551,9.513,0.443c1.93-4.633,9.03-7.631,13.885-6.038
				c4.855,1.593,8.198,6.39,8.707,11.367c0.56,5.479-2.049,11.325-5.831,15.275C253.907,262.452,249.429,264.707,244.758,265.485z"
				/>
			<path style="fill:#17443E;" d="M239.751,237.689c-3.019,3.208-2.517,8.923,1.017,11.583
				C243.707,245.848,243.117,240.716,239.751,237.689z"/>
			<path style="fill:#17443E;" d="M239.014,226.073c-2.432,4.177-2.04,9.759,0.952,13.573c1.619-1.744,2.622-4.33,2.508-6.682
				C242.36,230.613,240.795,227.66,239.014,226.073z"/>
			<path style="fill:#17443E;" d="M250.893,240.582c-1.841,1.356-4.319,1.851-6.558,1.31c-2.239-0.541-4.194-2.106-5.176-4.144
				C243.067,235.712,248.504,236.939,250.893,240.582z"/>
			<path style="fill:#17443E;" d="M241.483,238.622c-1.609,1.613-3.981,2.47-6.278,2.267c-2.297-0.202-4.473-1.46-5.76-3.329
				C232.991,234.968,238.555,235.375,241.483,238.622z"/>
			
				<path style="fill:none;stroke:#EBF4E3;stroke-width:2.0995;stroke-linecap:round;stroke-linejoin:round;stroke-miterlimit:10;" d="
				M251.425,235.5c1.807,0.452,3.558,1.119,5.202,1.98"/>
		</g>
		<g>
			
				<path style="fill:none;stroke:#DBBA9A;stroke-width:1.7929;stroke-linecap:round;stroke-linejoin:round;stroke-miterlimit:10;" d="
				M186.187,265.314c0.543,20.087,1.816,60.928,2.359,81.016c0.341,12.606,1.339,26.764,10.309,35.016
				c15.714,14.455,48.198,6.502,67.126,6.21c7.124-0.11,14.623-0.328,20.739-4.214c5.896-3.746,9.677-10.499,11.483-17.545
				c1.806-7.047,1.854-14.452,1.777-21.755c-0.232-22.128-2.552-61.43-4.842-83.425L186.187,265.314z"/>
			<path style="fill:#DBBA9A;" d="M295.957,272.451c-36.238,1.432-73.994,2.863-110.232,4.295c-0.003,2.404-0.042,5.203-0.046,7.607
				c3.13,0.258,111.286-4.469,111.286-4.469"/>
			
				<path style="fill:none;stroke:#DBBA9A;stroke-width:1.7929;stroke-linecap:round;stroke-linejoin:round;stroke-miterlimit:10;" d="
				M187.871,309.416c9.763-10.564,20.144-20.583,31.077-29.991"/>
			
				<path style="fill:none;stroke:#DBBA9A;stroke-width:1.7929;stroke-linecap:round;stroke-linejoin:round;stroke-miterlimit:10;" d="
				M188.147,331.338c18.577-18.262,37.223-35.338,58.24-53.228c6.637-5.65,13.449-9.905,19.652-16.007"/>
			
				<path style="fill:none;stroke:#DBBA9A;stroke-width:1.7929;stroke-linecap:round;stroke-linejoin:round;stroke-miterlimit:10;" d="
				M189.429,358.777c25.14-27.184,51.033-53.704,77.641-79.521c6.334-6.145,12.66-11.969,19.025-18.083
				c-0.182,0.187-0.364,0.374-0.546,0.56"/>
			
				<path style="fill:none;stroke:#DBBA9A;stroke-width:1.7929;stroke-linecap:round;stroke-linejoin:round;stroke-miterlimit:10;" d="
				M194.707,375.127c31.831-32.292,63.663-64.584,95.494-96.876"/>
			
				<path style="fill:none;stroke:#DBBA9A;stroke-width:1.7929;stroke-linecap:round;stroke-linejoin:round;stroke-miterlimit:10;" d="
				M206.553,385.371c29.882-28.729,59.763-57.458,89.644-86.187"/>
			
				<path style="fill:none;stroke:#DBBA9A;stroke-width:1.7929;stroke-linecap:round;stroke-linejoin:round;stroke-miterlimit:10;" d="
				M224.203,388.798c25.771-22.871,50.496-46.866,74.078-71.888"/>
			
				<path style="fill:none;stroke:#DBBA9A;stroke-width:1.7929;stroke-linecap:round;stroke-linejoin:round;stroke-miterlimit:10;" d="
				M249.464,389.25c16.549-17.069,32.837-34.38,48.857-51.925"/>
			
				<path style="fill:none;stroke:#DBBA9A;stroke-width:1.7929;stroke-linecap:round;stroke-linejoin:round;stroke-miterlimit:10;" d="
				M271.577,385.936c9.293-9.948,18.586-19.895,27.879-29.843"/>
			
				<path style="fill:none;stroke:#DBBA9A;stroke-width:1.7929;stroke-linecap:round;stroke-linejoin:round;stroke-miterlimit:10;" d="
				M186.989,308.648c26.136,27.136,53.094,53.518,80.827,79.098"/>
			
				<path style="fill:none;stroke:#DBBA9A;stroke-width:1.7929;stroke-linecap:round;stroke-linejoin:round;stroke-miterlimit:10;" d="
				M189.268,330.756c14.731,21.769,32.981,41.262,53.866,57.536"/>
			
				<path style="fill:none;stroke:#DBBA9A;stroke-width:1.7929;stroke-linecap:round;stroke-linejoin:round;stroke-miterlimit:10;" d="
				M187.319,284.065c33.725,32.412,67.451,64.824,101.176,97.236"/>
			
				<path style="fill:none;stroke:#DBBA9A;stroke-width:1.7929;stroke-linecap:round;stroke-linejoin:round;stroke-miterlimit:10;" d="
				M199.19,265.184c5.932,5.434,9.867,11.997,15.566,17.665c26.513,26.368,53.927,51.871,82.184,76.452"/>
			
				<path style="fill:none;stroke:#DBBA9A;stroke-width:1.7929;stroke-linecap:round;stroke-linejoin:round;stroke-miterlimit:10;" d="
				M226.044,264.267c5.318,6.176,9.351,11.928,15.319,17.509c18.977,17.747,37.954,35.493,56.931,53.24"/>
			
				<path style="fill:none;stroke:#DBBA9A;stroke-width:1.7929;stroke-linecap:round;stroke-linejoin:round;stroke-miterlimit:10;" d="
				M249.196,262.801c6.36,5.288,10.049,10.958,15.897,16.782c10.31,10.266,20.967,20.199,31.95,29.777"/>
			<path style="fill:#DBBA9A;" d="M270.298,279.641c-0.397-7.52-0.793-15.04-1.19-22.56c-0.432-8.197-0.879-16.48-3.212-24.366
				c-2.334-7.885-6.762-15.455-13.7-20.089c-13.625-9.099-30.1-3.143-35.261,11.495c-6.204,17.594-1.15,36.503-1.661,54.543
				c-2.02,0.148-4.255,0.445-6.21-0.076c-1.014-16.936-2.702-35.456,0.041-52.208c0.734-4.482,1.797-9.065,4.506-12.753
				c3.025-4.118,7.789-6.685,12.621-8.533c8.899-3.403,19.357-4.691,27.762-0.249c10.36,5.476,14.549,17.721,17.049,28.963
				c3.276,14.728,5.219,29.739,5.799,44.8C275.248,278.803,271.893,279.446,270.298,279.641z"/>
		</g>
	</g>
	<g>
		<g>
			<path style="fill:#266660;" d="M133.577,94.936c0.453-12.265-0.79-24.588-3.687-36.534c-1.865-7.693-4.568-15.492-10.097-21.285
				c-5.529-5.793-14.501-9.087-22.041-6.136c-5.019,1.964-8.709,6.377-10.782,11.237c-2.072,4.86-2.708,10.175-3.092,15.423
				c-1.019,13.935-0.403,27.983,1.832,41.783c2.585,0.978,6.15,0.162,8.914-0.066c-1.285,0.106-1.365-46.916,0.397-51.848
				c1.693-4.741,7.182-10.765,12.709-7.393c8.791,5.362,11.022,14.978,13.313,24.144c2.782,11.128,3.453,23.789,3.238,35.268
				C127.978,98.82,129.882,95.645,133.577,94.936z"/>
			
				<path style="fill:none;stroke:#17443E;stroke-width:1.7638;stroke-linecap:round;stroke-linejoin:round;stroke-miterlimit:10;" d="
				M87.806,92.807c-1.214-10.859-1.656-21.803-1.322-32.725c0.195-6.366,0.71-12.937,3.665-18.579
				c2.955-5.642,8.944-10.148,15.28-9.499c3.41,0.349,6.529,2.115,9.204,4.259c4.392,3.519,7.872,8.166,10.013,13.371
				c1.856,4.511,2.701,9.362,3.517,14.17c1.605,9.457,3.404,20.131,3.404,30.985"/>
			<path style="fill:#E2B442;" d="M160.561,197.311c-0.731,4.806-2.719,9.157-7.641,12.6c-10.804,7.56-24.915,6.217-37.377,6.526
				c-13.983,0.347-27.973,0.738-41.959,0.346c-4.61-0.129-9.325-0.308-13.619-1.992c-16.021-6.281-12.626-45.312-14.08-59.217
				c-1.819-17.398-1.109-35.13-1.559-52.668c-0.106-4.122,3.107-7.565,7.228-7.719c20.093-0.753,74.969-2.268,96.037-3.235
				c4.612-0.212,8.536,3.326,8.82,7.935c0.768,12.45,1.918,22.036,2.687,33.766c0.685,10.449,1.294,38.548,1.575,49.017
				C160.809,187.705,161.26,192.716,160.561,197.311z"/>
			<g>
				<g>
					<path style="fill:none;stroke:#B28522;stroke-width:1.7537;stroke-linecap:round;stroke-linejoin:round;" d="M46.089,100.216
						c0.226-0.014,0.451-0.029,0.677-0.043"/>
					
						<path style="fill:none;stroke:#B28522;stroke-width:1.7537;stroke-linecap:round;stroke-linejoin:round;stroke-dasharray:1.3577,5.4315;" d="
						M52.189,99.852c33.933-1.892,64.964-1.48,99.056-3.498"/>
					<path style="fill:none;stroke:#B28522;stroke-width:1.7537;stroke-linecap:round;stroke-linejoin:round;" d="M153.956,96.188
						c0.225-0.014,0.451-0.028,0.677-0.043"/>
				</g>
			</g>
			<path style="fill:#549674;" d="M118.655,111.727c0.441-12.265-0.769-41.379-3.585-53.324c-1.814-7.693-4.442-15.492-9.819-21.285
				s-14.102-9.087-21.434-6.136c-4.881,1.964-8.47,6.377-10.485,11.237c-2.015,4.86-2.634,10.175-3.007,15.423
				c-0.991,13.935-0.478,39.053,0.774,54.085c0.245-0.158,10.021-0.158,9.676,0c-1.25,0.106-1.327-59.284,0.386-64.216
				c1.646-4.741,6.984-10.765,12.359-7.393c8.549,5.362,9.584,16.26,11.812,25.426c2.705,11.128,4.492,34.704,4.284,46.183
				C109.93,111.727,118.698,111.727,118.655,111.727z"/>
			
				<path style="fill:none;stroke:#266660;stroke-width:1.7638;stroke-linecap:round;stroke-linejoin:round;stroke-miterlimit:10;" d="
				M78.581,110.811c-0.792-14.697-1.192-29.358-1.683-44.072c-0.167-5.015-0.331-10.079,0.61-15.007s3.096-9.78,6.881-13.073
				c1.462-1.271,3.216-2.314,5.146-2.489c14.081-1.272,16.002,21.738,17.728,30.963c2.692,14.395,4.029,29.044,3.973,43.689"/>
			
				<path style="fill:none;stroke:#266660;stroke-width:1.7638;stroke-linecap:round;stroke-linejoin:round;stroke-miterlimit:10;" d="
				M70.881,108.122c2.951,0.148,5.907,0.192,8.86,0.129"/>
			
				<path style="fill:none;stroke:#266660;stroke-width:1.7638;stroke-linecap:round;stroke-linejoin:round;stroke-miterlimit:10;" d="
				M110.77,108.329c2.586,0,5.172,0,7.758,0"/>
			
				<path style="fill:none;stroke:#266660;stroke-width:1.7638;stroke-linecap:round;stroke-linejoin:round;stroke-miterlimit:10;" d="
				M110.77,102.066c2.586,0,5.172,0,7.758,0"/>
			
				<path style="fill:none;stroke:#266660;stroke-width:1.7638;stroke-linecap:round;stroke-linejoin:round;stroke-miterlimit:10;" d="
				M70.472,102.066c2.586,0,6.639,0,9.225,0"/>
			
				<path style="fill:none;stroke:#B28522;stroke-width:1.7537;stroke-linecap:round;stroke-linejoin:round;stroke-miterlimit:10;" d="
				M143.881,137.977c0-0.606,0-1.212,0-1.818c0,0.467,0,0.935,0,1.402"/>
			
				<path style="fill:none;stroke:#B28522;stroke-width:1.7537;stroke-linecap:round;stroke-linejoin:round;stroke-miterlimit:10;" d="
				M147.596,136.738c-0.435-1.336-0.563-2.77-0.372-4.162"/>
			
				<path style="fill:none;stroke:#B28522;stroke-width:1.7537;stroke-linecap:round;stroke-linejoin:round;stroke-miterlimit:10;" d="
				M49.518,139.847c0-1.247,0-2.494,0-3.741"/>
			
				<path style="fill:none;stroke:#B28522;stroke-width:1.7537;stroke-linecap:round;stroke-linejoin:round;stroke-miterlimit:10;" d="
				M100.657,128.833c0-1.385,0-2.771,0-4.156"/>
			
				<path style="fill:none;stroke:#B28522;stroke-width:1.7537;stroke-linecap:round;stroke-linejoin:round;stroke-miterlimit:10;" d="
				M96.596,126.351c0.133-1.109,0.266-2.218,0.399-3.327"/>
			<path style="fill:#549674;" d="M66.912,192.183c-0.485-11.908-0.97-24.022-1.455-35.93c0.63,0.568,70.778-1.937,70.778-1.937
				s1.253,37.579,1.461,37.867"/>
			
				<path style="fill:none;stroke:#1D564F;stroke-width:1.7638;stroke-linecap:round;stroke-linejoin:round;stroke-miterlimit:10;stroke-dasharray:1.3566,5.4272;" d="
				M65.34,160.927c23.824-0.518,47.647-1.035,71.471-1.553"/>
			
				<path style="fill:none;stroke:#266660;stroke-width:1.7638;stroke-linecap:round;stroke-linejoin:round;stroke-miterlimit:10;" d="
				M70.771,102.287c2.412,1.863,4.856,3.685,7.33,5.465"/>
			
				<path style="fill:none;stroke:#266660;stroke-width:1.7638;stroke-linecap:round;stroke-linejoin:round;stroke-miterlimit:10;" d="
				M70.626,108.154c2.363-1.948,4.798-3.808,7.299-5.575"/>
			
				<path style="fill:none;stroke:#266660;stroke-width:1.7638;stroke-linecap:round;stroke-linejoin:round;stroke-miterlimit:10;" d="
				M110.652,102.004c2.411,2.184,4.915,4.264,7.503,6.234"/>
			
				<path style="fill:none;stroke:#266660;stroke-width:1.7638;stroke-linecap:round;stroke-linejoin:round;stroke-miterlimit:10;" d="
				M110.835,108.357c2.655-1.75,5.129-3.775,7.368-6.033"/>
		</g>
		
			<path style="fill:none;stroke:#B28522;stroke-width:1.7537;stroke-linecap:round;stroke-linejoin:round;stroke-miterlimit:10;" d="
			M105.275,212.003c0-1.108,0-2.217,0-3.325"/>
		
			<path style="fill:none;stroke:#B28522;stroke-width:1.7537;stroke-linecap:round;stroke-linejoin:round;stroke-miterlimit:10;" d="
			M99.179,210.618c0-1.108,0-2.217,0-3.325"/>
		
			<path style="fill:none;stroke:#B28522;stroke-width:1.7537;stroke-linecap:round;stroke-linejoin:round;stroke-miterlimit:10;" d="
			M132.983,204.799c0-1.016,0-2.032,0-3.048"/>
		
			<path style="fill:none;stroke:#B28522;stroke-width:1.7537;stroke-linecap:round;stroke-linejoin:round;stroke-miterlimit:10;" d="
			M136.308,202.859c0-0.831,0-1.662,0-2.494"/>
	</g>
	<g>
		<g>
			<path style="fill:#C6976F;" d="M369.339,391.368c8.344-6.619,6.748-17.333,1.966-25.951c-2.346-4.228-6.839-7.547-11.668-7.297
				c-5.972,0.31-10.463,5.748-12.595,11.336C341.313,384.47,353.363,404.036,369.339,391.368z"/>
			<path style="fill:#C6976F;" d="M365.261,431.578c0.019-10.572,1.283-30.812-1.594-41.125c-1.3-4.66-3.512-7.401-7.049-5.302
				c-1.025,0.608-1.708,2.548-2.088,5.224c-1.588,11.159-0.746,30.168-0.11,41.366c0.315,5.536,0.425,17.066,0.605,22.603
				c0.134,4.138-0.204,9.128,2.256,12.735c0.771,1.13,2.039,2.013,3.372,2.097c0.276,0.018,0.555,0.001,0.833-0.055
				C368.764,467.657,365.251,437.224,365.261,431.578z M361.722,461.817c-0.652,0.83-1.987,1.246-2.94,0.096
				c-1.375-1.66,0.494-3.293,2.254-2.511C362.341,459.981,362.309,461.068,361.722,461.817z"/>
			
				<path style="fill:none;stroke:#A06B44;stroke-width:2.6968;stroke-linecap:round;stroke-linejoin:round;stroke-miterlimit:10;" d="
				M351.577,374.772c-0.004-4.468,2.812-8.816,6.891-10.639"/>
		</g>
		<g>
			<path style="fill:#C6976F;" d="M455.497,367.762c3.456,11.642,4.337,23.869,5.198,35.983c0.26,3.661,0.506,7.439-0.681,10.912
				c-1.188,3.473-4.193,6.597-7.86,6.745c-0.934,0.038-1.902-0.128-2.685-0.638c-1.601-1.044-2.022-3.165-2.285-5.058
				c-1.979-14.273-3.485-29.117-2.922-43.545C444.642,362.383,451.239,353.419,455.497,367.762z"/>
			<path style="fill:#C6976F;" d="M453.87,429.651c0.019-10.572-0.563-54.36-2.489-65.918c-0.795-4.772-2.617-5.724-6.153-3.625
				c-1.025,0.608-1.708,2.548-2.088,5.224c-1.588,11.159,0.316,81.547,0.495,87.084c0.134,4.138-0.204,9.128,2.256,12.735
				c0.771,1.13,2.039,2.013,3.372,2.097c0.276,0.018,0.555,0.001,0.833-0.055C457.373,465.731,453.86,435.298,453.87,429.651z
				 M450.331,461.817c-0.652,0.83-1.987,1.246-2.94,0.096c-1.375-1.66,0.494-3.293,2.254-2.511
				C450.95,459.981,450.918,461.068,450.331,461.817z"/>
			
				<path style="fill:none;stroke:#A06B44;stroke-width:2.6968;stroke-linecap:round;stroke-linejoin:round;stroke-miterlimit:10;" d="
				M445.058,366.29c0.657-1.637,2.03-2.972,3.686-3.582"/>
		</g>
		<g>
			<path style="fill:#C6976F;" d="M417.315,360.74c0.368,0.785,0.511,1.67,0.631,2.536c0.632,4.56,0.844,8.778,0.891,13.298
				c0.047,4.503,0.65,8.984-1.785,13.084c-1.964,3.306-5.968,4.257-9.584,4.378c-3.562,0.119-7.241-0.219-10.416-1.838
				c-4.776-2.435-6.406-7.673-6.87-12.667c-0.52-5.607-0.878-12.453,0.348-17.914c0.163-0.725,0.364-1.462,0.801-2.063
				c0.437-0.601,1.158-1.047,1.896-0.964c0.845,0.095,1.474,0.827,1.878,1.575c0.687,1.271,0.984,2.717,1.162,4.151
				c0.597,4.809-0.176,9.993,1.381,14.652c0.138,0.413,0.303,0.844,0.646,1.111c0.624,0.484,1.595,0.191,2.1-0.416
				c0.504-0.607,0.659-1.424,0.782-2.204c0.462-2.923,0.727-5.877,0.796-8.836c0.06-2.569-0.996-5.711,0.275-8.031
				c0.667-1.217,1.971-2.271,3.333-2.003c1.008,0.198,1.769,1.084,2.112,2.052c0.343,0.968,0.341,2.02,0.336,3.047
				c-0.023,4.415,0.213,8.823,0.213,13.225c0.166,1.521,0.972,3.418,2.496,3.284c1.574-0.137,1.988-2.225,1.974-3.804
				c-0.043-4.68-1.057-10.042-0.45-14.632c0.169-1.276,0.931-2.639,2.201-2.852c1.03-0.173,2.056,0.498,2.61,1.383
				C417.163,360.436,417.243,360.586,417.315,360.74z"/>
			<path style="fill:#C6976F;" d="M411.492,429.651c0.019-10.572-0.563-29.319-2.489-40.876c-0.795-4.772-2.617-5.724-6.153-3.625
				c-1.025,0.608-1.708,2.548-2.088,5.224c-1.588,11.159,0.315,56.505,0.495,62.043c0.134,4.138-0.204,9.128,2.256,12.735
				c0.771,1.13,2.039,2.013,3.372,2.097c0.276,0.018,0.555,0.001,0.833-0.055C414.995,465.731,411.482,435.298,411.492,429.651z
				 M407.952,461.817c-0.652,0.83-1.987,1.246-2.94,0.096c-1.375-1.66,0.494-3.293,2.254-2.511
				C408.572,459.981,408.54,461.068,407.952,461.817z"/>
			
				<path style="fill:none;stroke:#A06B44;stroke-width:2.6968;stroke-linecap:round;stroke-linejoin:round;stroke-miterlimit:10;" d="
				M407.407,418.234c0.175,6.39,0.349,12.781,0.524,19.171"/>
		</g>
	</g>
	<g>
		<path style="fill:#C6976F;" d="M453.764,293.031c0.019-17.025-0.207-19.863-0.511-36.885c-0.181-10.14-0.395-20.281-0.777-30.416
			c-0.174-4.609,1.159-17.281-2.976-20.149c-1.465-1.015-3.655-0.928-4.913,0.334c-2.424,2.43-1.003,13.815-1.068,17.808
			c-0.582,35.869,0.178,57.612,0.913,93.477c0.073,3.571-1.222,23.114,7.207,17.932c4.975-3.059,2.938-16.508,2.852-21.605
			C454.377,306.695,453.757,299.862,453.764,293.031z"/>
		
			<line style="fill:none;stroke:#17443E;stroke-width:2.7298;stroke-linecap:round;stroke-linejoin:round;stroke-miterlimit:10;" x1="450.625" y1="209.832" x2="459.497" y2="209.832"/>
		
			<line style="fill:none;stroke:#17443E;stroke-width:2.7298;stroke-linecap:round;stroke-linejoin:round;stroke-miterlimit:10;" x1="450.382" y1="214.572" x2="459.497" y2="214.572"/>
		
			<line style="fill:none;stroke:#17443E;stroke-width:2.7298;stroke-linecap:round;stroke-linejoin:round;stroke-miterlimit:10;" x1="450.382" y1="219.312" x2="459.497" y2="219.312"/>
		
			<line style="fill:none;stroke:#17443E;stroke-width:2.7298;stroke-linecap:round;stroke-linejoin:round;stroke-miterlimit:10;" x1="450.139" y1="224.051" x2="459.497" y2="224.051"/>
		
			<line style="fill:none;stroke:#17443E;stroke-width:2.7298;stroke-linecap:round;stroke-linejoin:round;stroke-miterlimit:10;" x1="450.99" y1="228.791" x2="459.497" y2="228.791"/>
		<path style="fill:none;stroke:#A06B44;stroke-width:3.138;stroke-linecap:round;stroke-linejoin:round;stroke-miterlimit:10;" d="
			M447.924,330.918c0.108-10.401-0.127-20.805-0.705-31.191"/>
		<path style="fill:none;stroke:#A06B44;stroke-width:3.138;stroke-linecap:round;stroke-linejoin:round;stroke-miterlimit:10;" d="
			M445.521,241.451c0.198,4.316,0.396,8.633,0.594,12.949"/>
	</g>
	<g>
		<path style="fill:#34A59D;" d="M448.528,61.979c0.538,19.769,0.979,36.802,1.188,56.571c0.184,17.454,1.029,37.036,1.283,54.619
			c0.083,5.754-4.472,10.502-10.225,10.651c-9.204,0.238-19.686,0.489-28.361,0.243c-4.827-0.137-8.65-4.101-8.583-8.929
			c0.541-38.597-1.748-76.937-1.202-115.703c0.045-3.221,2.657-5.803,5.878-5.811c7.952-0.02,22.289-0.028,31.41-0.03
			C444.585,53.59,448.401,57.306,448.528,61.979z"/>
		<g>
			<path style="fill:#266660;" d="M446.359,39.866c-8.383-0.074-36.07-0.338-43.865-0.113c-1.083,0.031-1.932,0.926-1.907,2.009
				c0.041,1.8,0.236,7.361,0.414,9.507c0.152,1.839,1.679,3.252,3.524,3.251c10.276-0.002,41.639-0.009,41.639-0.009
				c1.059,0,1.941-0.837,1.974-1.896c0.084-2.628,0.083-8.082,0.164-10.71C448.337,40.794,447.473,39.876,446.359,39.866z"/>
			
				<path style="fill:none;stroke:#17443E;stroke-width:1.7845;stroke-linecap:round;stroke-linejoin:round;stroke-miterlimit:10;" d="
				M406.191,52.893c-0.315-4.415-0.63-7.657-0.945-12.073"/>
			
				<path style="fill:none;stroke:#17443E;stroke-width:1.7845;stroke-linecap:round;stroke-linejoin:round;stroke-miterlimit:10;" d="
				M414.16,52.893c0.023-3.828,0.046-8.245,0.068-12.073"/>
			
				<path style="fill:none;stroke:#17443E;stroke-width:1.7845;stroke-linecap:round;stroke-linejoin:round;stroke-miterlimit:10;" d="
				M423.53,52.893c-0.188-4.857-0.375-7.216-0.563-12.073"/>
			
				<path style="fill:none;stroke:#17443E;stroke-width:1.7845;stroke-linecap:round;stroke-linejoin:round;stroke-miterlimit:10;" d="
				M433.174,52.893c0-4.122,0-7.95,0-12.073"/>
			
				<path style="fill:none;stroke:#17443E;stroke-width:1.7845;stroke-linecap:round;stroke-linejoin:round;stroke-miterlimit:10;" d="
				M440.672,52.893c-0.04-4.416-0.081-7.656-0.121-12.073"/>
		</g>
		
			<path style="fill:none;stroke:#EBF4E3;stroke-width:1.4525;stroke-linecap:round;stroke-linejoin:round;stroke-miterlimit:10;" d="
			M440.668,59.033c2.958,1.998,4.614,5.764,4.086,9.295"/>
		
			<path style="fill:none;stroke:#EBF4E3;stroke-width:1.4525;stroke-linecap:round;stroke-linejoin:round;stroke-miterlimit:10;" d="
			M444.371,74.357c-0.265,1.392-0.139,2.857,0.36,4.184"/>
		<g>
			<g>
				<path style="fill:#266660;" d="M425.163,82.084c-2.363,1.512-3.888,4.256-3.925,7.061c-0.037,2.806,1.416,5.588,3.739,7.161
					c1.904-0.488,3.59-2.251,4.226-4.112c0.636-1.86,0.51-3.913,0-5.812C428.675,84.413,427.173,82.429,425.163,82.084z"/>
				
					<path style="fill:none;stroke:#17443E;stroke-width:1.4609;stroke-linecap:round;stroke-linejoin:round;stroke-miterlimit:10;" d="
					M424.792,82.619c0.46,19.094,3.186,56.264,2.01,78.611"/>
			</g>
			<g>
				<path style="fill:#266660;" d="M422.545,105.887c-2.206,1.796-5.942,1.774-8.377,0.213c-2.435-1.561-3.553-4.374-3.17-6.968
					c2.465-1.156,5.507-1.094,7.908,0.158S422.589,103.468,422.545,105.887z"/>
				
					<path style="fill:none;stroke:#17443E;stroke-width:1.4609;stroke-linecap:round;stroke-linejoin:round;stroke-miterlimit:10;" d="
					M411.134,99.246c4.757,2.712,9.513,5.423,14.269,8.135"/>
			</g>
			<g>
				<path style="fill:#266660;" d="M428.567,105.887c2.206,1.796,5.942,1.774,8.377,0.213c2.435-1.561,3.553-4.374,3.17-6.968
					c-2.465-1.156-5.507-1.094-7.908,0.158C429.805,100.541,428.523,103.468,428.567,105.887z"/>
				
					<path style="fill:none;stroke:#17443E;stroke-width:1.4609;stroke-linecap:round;stroke-linejoin:round;stroke-miterlimit:10;" d="
					M425.436,107.385c1.037-0.131,1.991-0.627,2.883-1.173c3.58-2.196,6.645-5.395,10.671-6.592"/>
			</g>
			<g>
				<path style="fill:#266660;" d="M428.567,120.001c2.206,1.796,5.942,1.774,8.377,0.213c2.435-1.561,3.553-4.374,3.17-6.968
					c-2.465-1.156-5.507-1.094-7.908,0.158C429.805,114.655,428.523,117.582,428.567,120.001z"/>
				
					<path style="fill:none;stroke:#17443E;stroke-width:1.4609;stroke-linecap:round;stroke-linejoin:round;stroke-miterlimit:10;" d="
					M426.801,121.238c4.249-2.515,8.498-5.031,12.747-7.546"/>
			</g>
			<g>
				<path style="fill:#266660;" d="M422.545,120.001c-2.206,1.796-5.942,1.774-8.377,0.213c-2.435-1.561-3.553-4.374-3.17-6.968
					c2.465-1.156,5.507-1.094,7.908,0.158C421.307,114.655,422.589,117.582,422.545,120.001z"/>
				
					<path style="fill:none;stroke:#17443E;stroke-width:1.4609;stroke-linecap:round;stroke-linejoin:round;stroke-miterlimit:10;" d="
					M410.642,113.246c5.058,2.956,10.246,5.688,15.545,8.186"/>
			</g>
			<g>
				<path style="fill:#266660;" d="M429.744,134.115c2.206,1.795,5.942,1.774,8.377,0.213c2.435-1.561,3.553-4.374,3.17-6.968
					c-2.465-1.156-5.507-1.094-7.908,0.158C430.981,128.769,429.7,131.696,429.744,134.115z"/>
				
					<path style="fill:none;stroke:#17443E;stroke-width:1.4609;stroke-linecap:round;stroke-linejoin:round;stroke-miterlimit:10;" d="
					M427.35,135.333c4.339-2.598,8.632-5.272,12.876-8.022"/>
			</g>
			<g>
				<path style="fill:#266660;" d="M429.744,149.405c2.206,1.796,5.942,1.774,8.377,0.213c2.435-1.561,3.553-4.374,3.17-6.968
					c-2.465-1.156-5.507-1.094-7.908,0.158C430.981,144.059,429.7,146.986,429.744,149.405z"/>
				
					<path style="fill:none;stroke:#17443E;stroke-width:1.4609;stroke-linecap:round;stroke-linejoin:round;stroke-miterlimit:10;" d="
					M427.286,150.592c4.441-2.073,8.691-4.557,12.677-7.41"/>
			</g>
			<g>
				<path style="fill:#266660;" d="M423.721,134.115c-2.206,1.795-5.942,1.774-8.377,0.213c-2.435-1.561-3.553-4.374-3.17-6.968
					c2.465-1.156,5.507-1.094,7.908,0.158C422.483,128.769,423.765,131.696,423.721,134.115z"/>
				
					<path style="fill:none;stroke:#17443E;stroke-width:1.4609;stroke-linecap:round;stroke-linejoin:round;stroke-miterlimit:10;" d="
					M412.189,127.165c5.29,2.151,9.454,6.55,14.81,8.531"/>
			</g>
			<g>
				<path style="fill:#266660;" d="M423.721,149.405c-2.206,1.796-5.942,1.774-8.377,0.213c-2.435-1.561-3.553-4.374-3.17-6.968
					c2.465-1.156,5.507-1.094,7.908,0.158C422.483,144.059,423.765,146.986,423.721,149.405z"/>
				
					<path style="fill:none;stroke:#17443E;stroke-width:1.4609;stroke-linecap:round;stroke-linejoin:round;stroke-miterlimit:10;" d="
					M412.457,143.422c5.018,2.364,9.936,4.94,14.736,7.719"/>
			</g>
		</g>
	</g>
	<g>
		<path style="fill:#17443E;" d="M407.652,222.853c0,0-53.686-0.582-54.188-0.013c-0.66-0.569,0.502,13.989,0.561,14.076
			c0.343,0-0.298-0.011,0.045-0.011h53.245C407.524,232.223,407.444,227.535,407.652,222.853z"/>
		<path style="fill:#E68C8C;" d="M411.664,236.979c-20.813-0.632-61.264-0.074-61.264-0.553c0.412-0.91,5.774,51.317,9.438,78.444
			c0.287,2.128,2.086,3.699,4.233,3.751c11.678,0.281,23.198-0.539,34.876-0.262c2.224,0.053,4.117-1.602,4.381-3.811
			C405.165,299.167,410.519,236.915,411.664,236.979z"/>
		<path style="fill:#266660;" d="M412.497,228.923c-10.794-0.096-51.895-0.436-61.931-0.146c-1.395,0.04-2.487,1.192-2.455,2.587
			c0.098,4.291,0.877,12.722,0.93,12.791c0.422,0-0.367-0.012,0.055-0.012h63.149c1.364,0,2.499-1.077,2.542-2.441
			c0.108-3.381,0.107-6.763,0.211-10.144C415.043,230.128,413.928,228.935,412.497,228.923z"/>
		<g>
			<path style="fill:#366B61;" d="M406.221,288.432c0.323,0.577,2.863-24.333,2.863-24.333l-56.804-0.271
				c1.482,8.193,2.964,16.385,4.446,24.578C375.081,289.105,387.881,289.447,406.221,288.432z"/>
			
				<path style="fill:none;stroke:#17443E;stroke-width:1.7779;stroke-linecap:round;stroke-linejoin:round;stroke-miterlimit:10;" d="
				M353.844,266.795c0.134-0.548,55.955,0.883,55.054,0.04"/>
			
				<path style="fill:none;stroke:#17443E;stroke-width:1.7779;stroke-linecap:round;stroke-linejoin:round;stroke-miterlimit:10;" d="
				M360.349,287.425c-1.082-7.076-2.425-14.112-4.027-21.088"/>
			
				<path style="fill:none;stroke:#17443E;stroke-width:1.7779;stroke-linecap:round;stroke-linejoin:round;stroke-miterlimit:10;" d="
				M382.075,288.152c0.027-7.133-0.264-14.268-0.869-21.375"/>
			
				<path style="fill:none;stroke:#17443E;stroke-width:1.7779;stroke-linecap:round;stroke-linejoin:round;stroke-miterlimit:10;" d="
				M377.013,288.159c-0.514-6.968-1.028-13.937-1.542-20.905"/>
			
				<path style="fill:none;stroke:#17443E;stroke-width:1.7779;stroke-linecap:round;stroke-linejoin:round;stroke-miterlimit:10;" d="
				M370.796,287.908c-0.494-6.837-1.37-13.646-2.62-20.386"/>
			
				<path style="fill:none;stroke:#17443E;stroke-width:1.7779;stroke-linecap:round;stroke-linejoin:round;stroke-miterlimit:10;" d="
				M365.479,287.915c-1.141-7.198-2.282-14.395-3.423-21.593"/>
			
				<path style="fill:none;stroke:#17443E;stroke-width:1.7779;stroke-linecap:round;stroke-linejoin:round;stroke-miterlimit:10;" d="
				M386.988,267.734c0.101,2.65,0.203,5.3,0.304,7.951c0.162,4.237,0.324,8.474,0.486,12.711"/>
			
				<path style="fill:none;stroke:#17443E;stroke-width:1.7779;stroke-linecap:round;stroke-linejoin:round;stroke-miterlimit:10;" d="
				M392.624,267.728c-0.116,6.332-0.134,12.666-0.054,18.999"/>
			
				<path style="fill:none;stroke:#17443E;stroke-width:1.7779;stroke-linecap:round;stroke-linejoin:round;stroke-miterlimit:10;" d="
				M398.596,267.251c-0.25,6.727-0.41,13.458-0.48,20.19"/>
			
				<path style="fill:none;stroke:#17443E;stroke-width:1.7779;stroke-linecap:round;stroke-linejoin:round;stroke-miterlimit:10;" d="
				M403.398,267.014c-0.356,7.051-0.799,14.098-1.33,21.139"/>
		</g>
		
			<path style="fill:none;stroke:#17443E;stroke-width:1.7779;stroke-linecap:round;stroke-linejoin:round;stroke-miterlimit:10;" d="
			M349.095,241.819c20.685,0.153,41.371,0.305,62.056,0.458"/>
		
			<path style="fill:none;stroke:#17443E;stroke-width:1.7779;stroke-linecap:round;stroke-linejoin:round;stroke-miterlimit:10;" d="
			M349.111,230.724c-0.298,0.07,64.152,0.07,64.152,0.07"/>
		
			<path style="fill:none;stroke:#EBF4E3;stroke-width:1.4472;stroke-linecap:round;stroke-linejoin:round;stroke-miterlimit:10;" d="
			M400.947,224.835c1.555,0,3.11,0,4.666,0"/>
	</g>
	<g>
		<g>
			<path style="fill:#366B61;" d="M327.809,141.888c22.337,11.59,53.998-7.284,49.403-33.694
				c-2.207-12.688-11.762-22.071-16.933-33.465c-3.843-8.466-0.974-23.885-13.037-25.918c-4.159-0.701-8.803-1.013-12.225,1.453
				c-3.024,2.179-4.324,5.978-5.452,9.53c-2.775,8.745-4.297,21.808-10.182,28.891C304.089,107.086,305.034,130.071,327.809,141.888
				z"/>
			<path style="fill:#B2CE6B;" d="M329.709,138.048c19.419,10.284,46.915-6.408,42.901-29.803
				c-1.677-9.777-7.952-17.689-12.847-25.978c-2.466-4.175-4.653-8.555-5.799-13.311c-0.466-1.932-1.181-3.816-1.6-5.745
				c-0.551-2.534-0.534-4.889-1.932-7.186c-3.354-5.509-11.307-5.166-15.228-0.446c-2.156,2.596-2.83,6.106-3.53,9.433
				c-1.82,8.648-3.639,18.927-9.329,25.907C309.069,107.204,309.91,127.563,329.709,138.048z"/>
			<path style="fill:#17443E;" d="M342.952,125.837c16.538,1.114,16.454-27.18-0.433-25.023
				c-13.725,1.753-16.436,21.502-1.968,24.674C341.387,125.671,342.188,125.785,342.952,125.837z"/>
			
				<path style="fill:none;stroke:#EBF4E3;stroke-width:1.547;stroke-linecap:round;stroke-linejoin:round;stroke-miterlimit:10;" d="
				M345.205,104.365c2.731,0.89,5.055,2.961,6.253,5.572"/>
			<g>
				<path style="fill:#366B61;" d="M359.121,37.269c-6.277-0.996-13.001,2.649-15.591,8.453c3.197,0.334,6.272,0.33,9.322-0.686
					C355.902,44.02,359.212,40.482,359.121,37.269z"/>
				
					<path style="fill:none;stroke:#17443E;stroke-width:1.5559;stroke-linecap:round;stroke-linejoin:round;stroke-miterlimit:10;" d="
					M342.874,40.038c0.224,3.103,0.447,6.207,0.671,9.31"/>
				
					<path style="fill:none;stroke:#17443E;stroke-width:1.5559;stroke-linecap:round;stroke-linejoin:round;stroke-miterlimit:10;" d="
					M343.351,45.821c5.228-2.74,10.457-5.479,15.685-8.219"/>
			</g>
			
				<path style="fill:none;stroke:#EBF4E3;stroke-width:1.547;stroke-linecap:round;stroke-linejoin:round;stroke-miterlimit:10;" d="
				M346.541,56.173c1.057,1.494,1.868,3.16,2.393,4.913"/>
			
				<path style="fill:none;stroke:#458C79;stroke-width:1.9117;stroke-linecap:round;stroke-linejoin:round;stroke-miterlimit:10;" d="
				M316.252,116.305c1.231,4.556,3.539,8.818,6.682,12.339"/>
		</g>
		<g>
			<g>
				<g>
					
						<path style="fill:none;stroke:#17443E;stroke-width:1.7638;stroke-linecap:round;stroke-linejoin:round;stroke-miterlimit:10;" d="
						M265.973,68.872c0-2.909,0-5.819,0-8.728"/>
					<path style="fill:#366B61;" d="M282.934,60.282c-2.837-1.617-6.37-1.958-9.464-0.914c-3.094,1.045-5.697,3.458-6.972,6.464
						c3.394,1.042,6.935,1.689,10.375,0.807C280.312,65.759,282.209,63.758,282.934,60.282z"/>
					
						<path style="fill:none;stroke:#17443E;stroke-width:1.7638;stroke-linecap:round;stroke-linejoin:round;stroke-miterlimit:10;" d="
						M266,66.017c4.957-2.567,10.28-4.425,15.757-5.503"/>
				</g>
				<g>
					<path style="fill:#DF854A;" d="M247.64,101.643c1.131,2.096,2.616,4.01,4.465,5.631c16.724,14.656,41.31-2.79,35.018-23.315
						c-0.931-3.036-2.783-5.731-5.01-7.995c-5.48-5.574-13.695-8.663-21.345-7.059C246.206,71.961,241.213,89.734,247.64,101.643z"
						/>
					<g>
						<g>
							<path style="fill:#BA5C27;" d="M253.92,101.868c1.814,0,1.817-2.819,0-2.819C252.106,99.05,252.103,101.868,253.92,101.868
								L253.92,101.868z"/>
						</g>
					</g>
					<g>
						<g>
							<path style="fill:#BA5C27;" d="M260.569,106.302c0.185,0,0.369,0,0.554,0c0.194,0.007,0.375-0.033,0.543-0.121
								c0.175-0.057,0.326-0.154,0.453-0.291c0.137-0.128,0.235-0.279,0.291-0.454c0.088-0.168,0.129-0.349,0.121-0.543
								c-0.017-0.125-0.034-0.25-0.05-0.375c-0.067-0.239-0.188-0.446-0.362-0.622c-0.095-0.073-0.19-0.147-0.285-0.22
								c-0.22-0.127-0.457-0.192-0.711-0.192c-0.185,0-0.37,0-0.554,0c-0.194-0.007-0.375,0.033-0.543,0.121
								c-0.175,0.057-0.326,0.154-0.454,0.291c-0.137,0.128-0.234,0.279-0.291,0.454c-0.088,0.168-0.129,0.349-0.121,0.543
								c0.017,0.125,0.034,0.25,0.05,0.375c0.067,0.239,0.188,0.446,0.362,0.622c0.095,0.073,0.19,0.147,0.285,0.22
								C260.078,106.237,260.315,106.301,260.569,106.302L260.569,106.302z"/>
						</g>
					</g>
					<g>
						<g>
							<path style="fill:#BA5C27;" d="M266.918,98.797c0,0.185,0,0.369,0,0.554c-0.007,0.194,0.033,0.375,0.121,0.543
								c0.057,0.175,0.154,0.326,0.291,0.453c0.128,0.137,0.279,0.235,0.453,0.291c0.168,0.088,0.349,0.129,0.543,0.121
								c0.125-0.017,0.25-0.034,0.375-0.05c0.239-0.067,0.446-0.188,0.622-0.362c0.073-0.095,0.147-0.19,0.22-0.285
								c0.128-0.22,0.192-0.457,0.192-0.711c0-0.185,0-0.369,0-0.554c0.007-0.194-0.033-0.375-0.121-0.543
								c-0.057-0.175-0.154-0.326-0.291-0.453c-0.128-0.137-0.279-0.235-0.453-0.291c-0.168-0.088-0.349-0.129-0.543-0.121
								c-0.125,0.017-0.25,0.034-0.375,0.05c-0.239,0.067-0.446,0.188-0.622,0.362c-0.074,0.095-0.147,0.19-0.22,0.285
								C266.983,98.305,266.919,98.542,266.918,98.797L266.918,98.797z"/>
						</g>
					</g>
					<g>
						<g>
							<path style="fill:#BA5C27;" d="M255.582,93.002c1.814,0,1.816-2.818,0-2.818C253.769,90.183,253.766,93.002,255.582,93.002
								L255.582,93.002z"/>
						</g>
					</g>
					<g>
						<g>
							<path style="fill:#BA5C27;" d="M250.04,91.339c1.814,0,1.816-2.818,0-2.818C248.227,88.521,248.224,91.339,250.04,91.339
								L250.04,91.339z"/>
						</g>
					</g>
				</g>
			</g>
			
				<path style="fill:none;stroke:#EBF4E3;stroke-width:1.547;stroke-linecap:round;stroke-linejoin:round;stroke-miterlimit:10;" d="
				M271.13,73.739c4.6,1.213,8.563,4.64,10.426,9.018"/>
		</g>
		<g>
			<g>
				<g>
					
						<path style="fill:none;stroke:#17443E;stroke-width:1.7638;stroke-linecap:round;stroke-linejoin:round;stroke-miterlimit:10;" d="
						M218.625,123.988c0-2.909,0-5.819,0-8.728"/>
					<path style="fill:#366B61;" d="M235.587,115.398c-2.837-1.617-6.37-1.958-9.464-0.914c-3.094,1.045-5.697,3.459-6.972,6.464
						c3.394,1.042,6.935,1.689,10.375,0.807C232.965,120.874,234.862,118.874,235.587,115.398z"/>
					
						<path style="fill:none;stroke:#17443E;stroke-width:1.7638;stroke-linecap:round;stroke-linejoin:round;stroke-miterlimit:10;" d="
						M218.653,121.132c4.957-2.567,10.28-4.425,15.757-5.503"/>
				</g>
				<g>
					<path style="fill:#B2CE6B;" d="M200.293,156.759c1.131,2.096,2.616,4.01,4.465,5.631c16.724,14.656,41.31-2.79,35.018-23.315
						c-0.931-3.036-2.783-5.731-5.01-7.995c-5.48-5.574-13.695-8.663-21.345-7.058C198.858,127.076,193.865,144.85,200.293,156.759z
						"/>
					<g>
						<g>
							<path style="fill:#458C79;" d="M206.572,156.984c1.813,0,1.816-2.818,0-2.818
								C204.759,154.166,204.756,156.984,206.572,156.984L206.572,156.984z"/>
						</g>
					</g>
					<g>
						<g>
							<path style="fill:#458C79;" d="M213.222,161.417c0.185,0,0.369,0,0.554,0c0.194,0.007,0.375-0.033,0.543-0.121
								c0.175-0.057,0.326-0.154,0.454-0.291c0.137-0.128,0.234-0.279,0.291-0.453c0.088-0.168,0.129-0.349,0.121-0.543
								c-0.017-0.125-0.034-0.25-0.05-0.375c-0.067-0.239-0.188-0.446-0.362-0.622c-0.095-0.074-0.19-0.147-0.285-0.22
								c-0.22-0.127-0.457-0.192-0.711-0.192c-0.185,0-0.369,0-0.554,0c-0.194-0.007-0.375,0.033-0.543,0.121
								c-0.175,0.057-0.326,0.154-0.454,0.291c-0.137,0.128-0.234,0.279-0.291,0.453c-0.088,0.168-0.129,0.349-0.121,0.543
								c0.017,0.125,0.033,0.25,0.05,0.375c0.067,0.239,0.188,0.446,0.362,0.622c0.095,0.074,0.19,0.147,0.285,0.22
								C212.731,161.352,212.968,161.417,213.222,161.417L213.222,161.417z"/>
						</g>
					</g>
					<g>
						<g>
							<path style="fill:#458C79;" d="M219.571,153.912c0,0.185,0,0.369,0,0.554c-0.007,0.194,0.033,0.375,0.121,0.543
								c0.057,0.175,0.154,0.326,0.291,0.453c0.128,0.137,0.279,0.235,0.453,0.291c0.168,0.088,0.349,0.129,0.543,0.121
								c0.125-0.017,0.25-0.034,0.375-0.05c0.239-0.067,0.446-0.188,0.622-0.362c0.074-0.095,0.147-0.19,0.22-0.285
								c0.128-0.22,0.192-0.457,0.192-0.711c0-0.185,0-0.369,0-0.554c0.007-0.194-0.033-0.375-0.121-0.543
								c-0.057-0.175-0.154-0.326-0.291-0.454c-0.128-0.137-0.279-0.234-0.453-0.291c-0.168-0.088-0.349-0.129-0.543-0.121
								c-0.125,0.017-0.25,0.034-0.375,0.05c-0.239,0.067-0.446,0.188-0.622,0.362c-0.073,0.095-0.147,0.19-0.22,0.285
								C219.636,153.421,219.572,153.658,219.571,153.912L219.571,153.912z"/>
						</g>
					</g>
					<g>
						<g>
							<path style="fill:#458C79;" d="M208.235,148.118c1.813,0,1.816-2.818,0-2.818
								C206.421,145.299,206.418,148.118,208.235,148.118L208.235,148.118z"/>
						</g>
					</g>
					<g>
						<g>
							<path style="fill:#458C79;" d="M202.693,146.455c1.814,0,1.816-2.818,0-2.818
								C200.88,143.637,200.877,146.455,202.693,146.455L202.693,146.455z"/>
						</g>
					</g>
				</g>
			</g>
			
				<path style="fill:none;stroke:#EBF4E3;stroke-width:1.547;stroke-linecap:round;stroke-linejoin:round;stroke-miterlimit:10;" d="
				M222.78,127.69c4.437,2.09,8.303,5.379,11.078,9.423"/>
		</g>
		<g>
			<g>
				<path style="fill:#DD5D57;" d="M185.182,81.045c-0.537-1.963-0.738-3.985-0.081-5.585c0.347-0.844,0.967-1.552,1.667-2.138
					c2.454-2.055,5.927-2.671,9.059-2.008c1.887,0.399,3.788,1.327,4.739,3.005c0.641,1.13,0.783,2.472,0.79,3.771
					c0.028,4.842-2.521,17.053-10.055,12.899c-1.922-1.06-3.177-3.011-4.154-4.977C186.485,84.675,185.686,82.886,185.182,81.045z"
					/>
				<path style="fill:#366B61;" d="M192.42,70.081c-2.685-0.571-6.227,2.885-5.081,5.829
					C191.009,75.18,192.074,73.808,192.42,70.081z"/>
				<path style="fill:#366B61;" d="M192.267,70.765c1.954-1.929,6.8-0.927,7.423,2.17C196.205,74.298,194.568,73.716,192.267,70.765
					z"/>
				<path style="fill:#366B61;" d="M192.513,71.135c-1.015-2.551,1.796-6.624,4.891-5.99
					C197.301,68.886,196.127,70.167,192.513,71.135z"/>
				<path style="fill:#366B61;" d="M192.354,70.391c-0.675-2.661-5.342-4.309-7.476-1.979
					C187.156,71.38,188.859,71.729,192.354,70.391z"/>
				<path style="fill:#366B61;" d="M192.173,69.714c-1.681,1.857-0.577,6.237,2.272,6.682
					C195.55,73.165,194.955,71.695,192.173,69.714z"/>
				
					<path style="fill:none;stroke:#17443E;stroke-width:1.7638;stroke-linecap:round;stroke-linejoin:round;stroke-miterlimit:10;" d="
					M191.299,64.519c0.226,1.617,0.452,3.234,0.678,4.851"/>
				
					<path style="fill:none;stroke:#E68C8C;stroke-width:1.2526;stroke-linecap:round;stroke-linejoin:round;stroke-miterlimit:10;" d="
					M189.78,82.252c-0.098-0.553-0.196-1.106-0.294-1.659"/>
				
					<path style="fill:none;stroke:#E68C8C;stroke-width:1.2526;stroke-linecap:round;stroke-linejoin:round;stroke-miterlimit:10;" d="
					M194.796,82.247c0-0.739,0-1.478,0-2.217"/>
				
					<path style="fill:none;stroke:#E68C8C;stroke-width:1.2526;stroke-linecap:round;stroke-linejoin:round;stroke-miterlimit:10;" d="
					M198.398,80.03c0-0.554,0-1.108,0-1.662"/>
				
					<path style="fill:none;stroke:#E68C8C;stroke-width:1.2526;stroke-linecap:round;stroke-linejoin:round;stroke-miterlimit:10;" d="
					M193.624,87.796c-0.089-0.739-0.177-1.479-0.266-2.218"/>
				
					<path style="fill:none;stroke:#E68C8C;stroke-width:1.2526;stroke-linecap:round;stroke-linejoin:round;stroke-miterlimit:10;" d="
					M196.748,88.064c-0.129-0.928-0.044-1.885,0.245-2.776"/>
			</g>
			<g>
				<path style="fill:#DD5D57;" d="M155.745,56.618c-0.537-1.963-0.738-3.985-0.081-5.585c0.347-0.844,0.967-1.552,1.667-2.138
					c2.454-2.056,5.927-2.671,9.059-2.008c1.887,0.399,3.788,1.327,4.739,3.004c0.641,1.13,0.783,2.472,0.79,3.771
					c0.028,4.842-2.521,17.053-10.055,12.899c-1.922-1.06-3.177-3.011-4.154-4.977C157.048,60.249,156.249,58.46,155.745,56.618z"/>
				<path style="fill:#366B61;" d="M162.983,45.655c-2.685-0.571-6.227,2.885-5.081,5.829
					C161.572,50.754,162.637,49.381,162.983,45.655z"/>
				<path style="fill:#366B61;" d="M162.83,46.339c1.953-1.929,6.8-0.927,7.423,2.17C166.768,49.872,165.131,49.29,162.83,46.339z"
					/>
				<path style="fill:#366B61;" d="M163.076,46.709c-1.015-2.551,1.796-6.624,4.891-5.99
					C167.864,44.46,166.69,45.741,163.076,46.709z"/>
				<path style="fill:#366B61;" d="M162.917,45.965c-0.675-2.661-5.341-4.309-7.475-1.979
					C157.72,46.954,159.422,47.303,162.917,45.965z"/>
				<path style="fill:#366B61;" d="M162.736,45.288c-1.681,1.857-0.577,6.237,2.272,6.682
					C166.113,48.738,165.518,47.269,162.736,45.288z"/>
				
					<path style="fill:none;stroke:#17443E;stroke-width:1.7638;stroke-linecap:round;stroke-linejoin:round;stroke-miterlimit:10;" d="
					M161.862,40.092c0.226,1.617,0.452,3.234,0.678,4.851"/>
				
					<path style="fill:none;stroke:#E68C8C;stroke-width:1.2526;stroke-linecap:round;stroke-linejoin:round;stroke-miterlimit:10;" d="
					M160.343,57.826c-0.098-0.553-0.196-1.106-0.294-1.659"/>
				
					<path style="fill:none;stroke:#E68C8C;stroke-width:1.2526;stroke-linecap:round;stroke-linejoin:round;stroke-miterlimit:10;" d="
					M165.36,57.821c0-0.739,0-1.478,0-2.217"/>
				
					<path style="fill:none;stroke:#E68C8C;stroke-width:1.2526;stroke-linecap:round;stroke-linejoin:round;stroke-miterlimit:10;" d="
					M168.962,55.604c0-0.554,0-1.108,0-1.662"/>
				
					<path style="fill:none;stroke:#E68C8C;stroke-width:1.2526;stroke-linecap:round;stroke-linejoin:round;stroke-miterlimit:10;" d="
					M164.187,63.37c-0.089-0.739-0.177-1.479-0.266-2.218"/>
				
					<path style="fill:none;stroke:#E68C8C;stroke-width:1.2526;stroke-linecap:round;stroke-linejoin:round;stroke-miterlimit:10;" d="
					M167.311,63.638c-0.129-0.928-0.044-1.885,0.245-2.776"/>
			</g>
			<g>
				<path style="fill:#DD5D57;" d="M213.366,56.618c-0.537-1.963-0.738-3.985-0.081-5.585c0.347-0.844,0.967-1.552,1.666-2.138
					c2.454-2.056,5.927-2.671,9.059-2.008c1.887,0.399,3.788,1.327,4.739,3.004c0.641,1.13,0.783,2.472,0.79,3.771
					c0.028,4.842-2.52,17.053-10.054,12.899c-1.922-1.06-3.177-3.011-4.154-4.977C214.669,60.249,213.87,58.46,213.366,56.618z"/>
				<path style="fill:#366B61;" d="M220.604,45.655c-2.685-0.571-6.227,2.885-5.081,5.829
					C219.193,50.754,220.258,49.381,220.604,45.655z"/>
				<path style="fill:#366B61;" d="M220.451,46.339c1.953-1.929,6.8-0.927,7.423,2.17C224.389,49.872,222.752,49.29,220.451,46.339z
					"/>
				<path style="fill:#366B61;" d="M220.697,46.709c-1.015-2.551,1.796-6.624,4.891-5.99
					C225.485,44.46,224.311,45.741,220.697,46.709z"/>
				<path style="fill:#366B61;" d="M220.538,45.965c-0.675-2.661-5.342-4.309-7.475-1.979
					C215.341,46.954,217.043,47.303,220.538,45.965z"/>
				<path style="fill:#366B61;" d="M220.357,45.288c-1.681,1.857-0.577,6.237,2.272,6.682
					C223.734,48.738,223.139,47.269,220.357,45.288z"/>
				
					<path style="fill:none;stroke:#17443E;stroke-width:1.7638;stroke-linecap:round;stroke-linejoin:round;stroke-miterlimit:10;" d="
					M219.483,40.092c0.226,1.617,0.452,3.234,0.678,4.851"/>
				
					<path style="fill:none;stroke:#E68C8C;stroke-width:1.2526;stroke-linecap:round;stroke-linejoin:round;stroke-miterlimit:10;" d="
					M217.964,57.826c-0.098-0.553-0.196-1.106-0.294-1.659"/>
				
					<path style="fill:none;stroke:#E68C8C;stroke-width:1.2526;stroke-linecap:round;stroke-linejoin:round;stroke-miterlimit:10;" d="
					M222.981,57.821c0-0.739,0-1.478,0-2.217"/>
				
					<path style="fill:none;stroke:#E68C8C;stroke-width:1.2526;stroke-linecap:round;stroke-linejoin:round;stroke-miterlimit:10;" d="
					M226.583,55.604c0-0.554,0-1.108,0-1.662"/>
				
					<path style="fill:none;stroke:#E68C8C;stroke-width:1.2526;stroke-linecap:round;stroke-linejoin:round;stroke-miterlimit:10;" d="
					M221.808,63.37c-0.089-0.739-0.177-1.479-0.266-2.218"/>
				
					<path style="fill:none;stroke:#E68C8C;stroke-width:1.2526;stroke-linecap:round;stroke-linejoin:round;stroke-miterlimit:10;" d="
					M224.932,63.638c-0.128-0.928-0.044-1.885,0.245-2.776"/>
			</g>
		</g>
		<g>
			<path style="fill:#E2B442;" d="M331.806,195.32c-9.05,7.603-22.077,9.657-33.458,6.469
				c-11.382-3.188-22.793-11.078-29.306-20.941c-7.21-10.918-10.41-22.024-9.571-35.081c1.834-0.783,4.993-2.867,6.389-1.443
				c1.396,1.424,2.188,3.314,3.042,5.116c10.96,23.144,41.745,38.32,67.035,34.296c2.243-0.357,2.879,4.444,1.569,6.058
				C335.921,191.745,333.73,193.703,331.806,195.32z"/>
			
				<path style="fill:none;stroke:#B28522;stroke-width:1.9288;stroke-linecap:round;stroke-linejoin:round;stroke-miterlimit:10;" d="
				M261.057,145.893c4.113,15.417,14.601,29.029,28.46,36.937c13.859,7.908,30.914,10.011,46.279,5.707"/>
			
				<path style="fill:none;stroke:#B28522;stroke-width:1.9288;stroke-linecap:round;stroke-linejoin:round;stroke-miterlimit:10;" d="
				M284.058,185.809c4.796,2.39,9.712,4.538,14.724,6.433"/>
			<path style="fill:#17443E;" d="M267.172,145.368c-2.565,0.272-5.139,0.449-7.717,0.531c-0.048-2.619-0.88-5.384-0.928-8.003
				c1.974-0.092,3.947-0.183,5.921-0.275C265.337,140.245,266.283,142.744,267.172,145.368z"/>
			<path style="fill:#17443E;" d="M336.135,191.172c-1.151-2.308-2.217-4.658-3.195-7.045c2.437-0.96,4.736-2.707,7.173-3.667
				c0.776,1.817,1.552,3.634,2.328,5.451C340.293,187.662,338.283,189.422,336.135,191.172z"/>
		</g>
	</g>
	<g>
		
			<path style="fill:none;stroke:#BA5C27;stroke-width:2.2812;stroke-linecap:round;stroke-linejoin:round;stroke-miterlimit:10;" d="
			M231.449,410.701c1.661-0.585,3.506-1.169,5.135-0.501s2.427,3.236,0.943,4.183c-0.656-0.601-0.242-1.723,0.394-2.344
			c1.586-1.549,4.128-1.745,6.238-1.063c2.11,0.682,3.892,2.096,5.623,3.482c2.334,1.868,4.667,3.736,7.001,5.603"/>
		
			<path style="fill:none;stroke:#BA5C27;stroke-width:2.2812;stroke-linecap:round;stroke-linejoin:round;stroke-miterlimit:10;" d="
			M290.926,418.17c3.429-0.369,6.222-2.807,9.345-4.272c3.123-1.464,7.637-1.513,9.207,1.557c0.5,0.977,0.504,2.357-0.391,2.992
			c-1.168-1.799,1.017-4.096,3.145-4.367c2.128-0.272,4.323,0.481,6.413-0.005"/>
		<path style="fill:#DF854A;" d="M252.862,472c-4.439-19.021,0.852-35.74-1.395-55.143c11.615,1.167,30.893-0.574,42.508,0.592
			c-0.181,4.695-0.32,9.886,0.568,14.5c0.55,2.856,1.483,5.621,2.206,8.438c2.601,10.129,2.456,21.156,2.294,31.613
			C294.974,471.974,263.708,471.658,252.862,472z"/>
		
			<path style="fill:none;stroke:#BA5C27;stroke-width:2.2812;stroke-linecap:round;stroke-linejoin:round;stroke-miterlimit:10;stroke-dasharray:1.2353,4.9418;" d="
			M251.923,420.167c13.486,0.708,27.008,0.72,40.495,0.037"/>
		<g>
			<path style="fill:#E2B442;" d="M267.064,433.504c-0.117-0.723-0.169-1.527,0.27-2.12c0.513-0.691,1.559-0.834,2.375-0.529
				c0.815,0.305,1.438,0.961,1.968,1.64c1.621,2.078,2.645,4.547,3.379,7.06c0.353,1.209,0.623,2.585-0.043,3.662
				C272.148,447.845,267.344,435.24,267.064,433.504z"/>
			<path style="fill:#E2B442;" d="M271.917,435.529c-0.037-1.708,0.036-3.52,0.967-4.954c0.55-0.848,1.533-1.545,2.52-1.325
				c1.455,0.324,1.818,2.199,1.875,3.688c0.076,1.993,0.138,4.037-0.49,5.93c-0.337,1.018-2.235,4.453-3.77,3.891
				C271.662,442.263,271.947,436.895,271.917,435.529z"/>
			<path style="fill:#E2B442;" d="M276.881,435.242c0.534-0.819,1.099-1.647,1.883-2.19c0.783-0.543,1.84-0.746,2.652-0.254
				c1.502,0.911,1.215,3.355,0.344,4.949c-0.87,1.591-5.521,7.249-7.614,6.398C271.057,442.89,275.98,436.625,276.881,435.242z"/>
			
				<path style="fill:none;stroke:#17443E;stroke-width:1.5969;stroke-linecap:round;stroke-linejoin:round;stroke-miterlimit:10;" d="
				M273.822,444.019c0.125,7.201,0.528,14.398,1.208,21.569"/>
			<g>
				<path style="fill:#266660;" d="M273.859,454.896c-2.852,1.51-6.583,0.653-8.938-1.554c-2.355-2.207-3.458-5.507-3.576-8.732
					C266.671,443.922,272.543,449.69,273.859,454.896z"/>
				
					<path style="fill:none;stroke:#17443E;stroke-width:1.5969;stroke-linecap:round;stroke-linejoin:round;stroke-miterlimit:10;" d="
					M261.237,443.947c3.536,4.283,7.707,8.041,12.335,11.113"/>
			</g>
			<g>
				<path style="fill:#266660;" d="M275.515,460.03c-1.01-3.065,0.462-6.599,3.033-8.55c2.571-1.951,6.01-2.484,9.209-2.058
					C287.54,454.787,280.868,459.608,275.515,460.03z"/>
				
					<path style="fill:none;stroke:#17443E;stroke-width:1.5969;stroke-linecap:round;stroke-linejoin:round;stroke-miterlimit:10;" d="
					M275.024,459.344c3.975-3.321,8.089-6.475,12.327-9.453"/>
			</g>
		</g>
	</g>
	<g>
		<path style="fill:#99DDDD;" d="M187.568,476.44c-3.926,0.151-7.858,0.137-11.783-0.043c-5.248-0.241-11.123-1.119-14.264-5.329
			c-2.447-3.28-2.534-7.693-2.52-11.785c0.014-4.151,0.029-8.302,0.043-12.453c0.019-5.473,0.152-11.327,3.279-15.819
			c3.975-5.711,11.49-7.483,18.318-8.825h6.426"/>
		<path style="fill:#99DDDD;" d="M186.865,476.578c3.926,0.152,7.858,0.137,11.783-0.043c5.248-0.241,11.123-1.119,14.264-5.329
			c2.447-3.28,2.534-7.693,2.52-11.785c-0.014-4.151-0.029-8.302-0.043-12.453c-0.019-5.474-0.152-11.327-3.279-15.819
			c-3.975-5.711-11.49-7.483-18.317-8.825h-6.426"/>
		<path style="fill:#99DDDD;" d="M169.118,426.945c0.354-3.548,0.708-5.79,1.062-9.338c-0.18-0.301,34.82,0.086,34.366,0
			c0.024,3.771,0.047,8.848,0.071,12.619"/>
		<path style="fill:none;stroke:#458C79;stroke-width:1.64;stroke-linecap:round;stroke-linejoin:round;stroke-miterlimit:10;" d="
			M169.852,424.937c11.169,1.187,22.425,1.555,33.648,1.1"/>
		<path style="fill:none;stroke:#458C79;stroke-width:1.64;stroke-linecap:round;stroke-linejoin:round;stroke-miterlimit:10;" d="
			M170.337,420.395c11.346,0.609,22.692,1.217,34.038,1.826"/>
		<path style="fill:#34A59D;" d="M208.797,451.94c0.334,2.633,0.667,5.299,0.346,7.933c-0.107,0.88-0.25,1.89-0.467,2.909
			c-0.659,3.086-3.434,5.264-6.59,5.305l-21.567,0.283c-2.616,0.034-5.237-0.203-7.778-0.826c-1.432-0.352-2.869-0.845-4.059-1.725
			c-2.175-1.608-3.278-4.352-3.509-7.048c-0.231-2.696,0.303-5.391,0.834-8.044c5.107-1.579,10.682-1.889,15.619,0.161
			c2.111,0.876,4.157,2.083,6.436,2.267c4.41,0.354,8.73-3.2,12.961-1.906c0.892,0.273,1.733,0.757,2.663,0.832
			c0.94,0.075,1.86-0.278,2.8-0.355C207.425,451.649,208.678,451.004,208.797,451.94z"/>
		<path style="fill:none;stroke:#EBF4E3;stroke-width:1.547;stroke-linecap:round;stroke-linejoin:round;stroke-miterlimit:10;" d="
			M206.228,431.254c1.888,2.19,3.472,4.642,4.69,7.264"/>
		<path style="fill:none;stroke:#EBF4E3;stroke-width:1.547;stroke-linecap:round;stroke-linejoin:round;stroke-miterlimit:10;" d="
			M212.572,443.829c-0.326-0.477-0.444-1.09-0.319-1.654"/>
	</g>
	<g>
		<g>
			<path style="fill:#366B61;" d="M311.152,37.803c0.198,2.491-1.448,4.886-3.645,6.076c2.907,0.349,4.915,3.612,4.398,6.493
				c-1.076,5.996-11.083,7.993-15.78,4.676c-0.357-0.252-0.684-0.535-0.973-0.85c-2.343-2.544-2.099-7.189,1.493-8.194
				c-1.751-1.67-3.393-3.914-3.421-6.437c-0.024-2.159,1.241-2.864,2.372-4.347c0.9-1.181,0.566-0.302,0.979-1.849
				c0.29-1.088,0.02-2.135,0.551-3.241c0.698-1.452,2.139-2.586,3.748-2.683c3.805-0.23,3.19,3.497,5.066,5.293
				c0.756,0.724,2.278,0.664,3.178,1.362C310.239,34.97,311.039,36.385,311.152,37.803z"/>
			
				<path style="fill:none;stroke:#17443E;stroke-width:1.5559;stroke-linecap:round;stroke-linejoin:round;stroke-miterlimit:10;" d="
				M300.229,28.265c1.935,12.068,3.55,24.188,4.842,36.342"/>
		</g>
		<g>
			<path style="fill:#366B61;" d="M330.462,304.083c-13.643-11.393-20.223-30.626-16.42-47.989
				c6.972,4.114,10.205,10.085,13.081,17.653C331.234,284.564,331.014,292.526,330.462,304.083z"/>
			
				<path style="fill:none;stroke:#17443E;stroke-width:1.5559;stroke-linecap:round;stroke-linejoin:round;stroke-miterlimit:10;" d="
				M314.185,255.892c6.458,18.973,12.915,37.946,19.373,56.919"/>
		</g>
		<g>
			<path style="fill:#549674;" d="M377.391,195.211c-3.317,0.341-6.372-1.949-8.364-4.622c-5.397-7.244-5.023-18.219,0.855-25.078
				c5.975,2.032,10.686,7.268,12.078,13.424C383.351,185.091,381.911,190.806,377.391,195.211z"/>
			
				<path style="fill:none;stroke:#17443E;stroke-width:1.5559;stroke-linecap:round;stroke-linejoin:round;stroke-miterlimit:10;" d="
				M369.743,165.485c3.574,11.303,6.373,22.851,8.372,34.536"/>
		</g>
		<g>
			<path style="fill:#549674;" d="M158.389,247.57c-2.109-2.583-1.877-6.393-0.74-9.528c3.082-8.492,12.453-14.215,21.415-13.079
				c1.589,6.108-0.193,12.922-4.569,17.47C170.118,246.981,164.553,248.922,158.389,247.57z"/>
			
				<path style="fill:none;stroke:#17443E;stroke-width:1.5559;stroke-linecap:round;stroke-linejoin:round;stroke-miterlimit:10;" d="
				M179.009,224.833c-7.475,9.201-15.579,17.891-24.239,25.987"/>
		</g>
		<g>
			<g>
				<path style="fill:#B2CE6B;" d="M77.565,449.439c-2.423,2.573-6.688,2.724-9.807,1.06c-3.118-1.664-5.231-4.765-6.655-8
					c2.32-2.75,6.66-4.128,9.99-2.766C74.423,441.097,76.777,445.929,77.565,449.439z"/>
				
					<path style="fill:none;stroke:#458C79;stroke-width:1.9117;stroke-linecap:round;stroke-linejoin:round;stroke-miterlimit:10;" d="
					M61.94,442.82c16.384,7.448,33.889,12.425,51.741,14.712"/>
			</g>
			<g>
				<path style="fill:#B2CE6B;" d="M89.141,447.928c-2.774,0.422-5.736-0.804-7.4-3.063c-1.664-2.259-1.957-5.452-0.732-7.976
					c2.792-0.341,6.338,0.71,7.985,2.99C90.641,442.159,90.343,445.384,89.141,447.928z"/>
				
					<path style="fill:none;stroke:#458C79;stroke-width:1.9117;stroke-linecap:round;stroke-linejoin:round;stroke-miterlimit:10;" d="
					M81.209,437.196c4.636,5.187,8.942,10.669,12.886,16.4"/>
			</g>
			<g>
				<path style="fill:#B2CE6B;" d="M84.37,458.838c-0.451,3.506-3.815,6.132-7.317,6.615c-3.501,0.483-7.032-0.787-10.084-2.57
					c0.265-3.588,2.969-7.252,6.464-8.103C76.93,453.928,81.672,456.458,84.37,458.838z"/>
				
					<path style="fill:none;stroke:#458C79;stroke-width:1.9117;stroke-linecap:round;stroke-linejoin:round;stroke-miterlimit:10;" d="
					M67.884,461.93c9.733-1.386,19.324-3.77,28.573-7.102"/>
			</g>
		</g>
	</g>
</g>
</svg>
