<?xml version="1.0" encoding="utf-8"?>
<!-- Generator: Adobe Illustrator 27.5.0, SVG Export Plug-In . SVG Version: 6.00 Build 0)  -->
<svg version="1.1" xmlns="http://www.w3.org/2000/svg" xmlns:xlink="http://www.w3.org/1999/xlink" x="0px" y="0px"
	 viewBox="0 0 500 500" style="enable-background:new 0 0 500 500;" xml:space="preserve">
<g id="BACKGROUND">
	<rect y="2.411" style="fill:#FFFBEE;" width="500" height="500"/>
</g>
<g id="OBJECTS">
	<g>
		<polygon points="325.596,187.088 319.392,190.013 312.595,184.925 306.28,189.688 306.275,189.905 306.245,189.927 
			300.155,184.876 293.841,189.638 287.753,184.587 281.438,189.35 275.351,184.298 269.035,189.061 262.951,184.009 
			256.642,188.772 250.557,183.72 244.249,188.483 238.165,183.432 231.85,188.195 231.67,196.022 331.432,198.608 330.773,194.607 
					"/>
		<path style="fill:#C98F63;" d="M243.164,192.801l-11.36-4.574c0,0-13.032,39.003-11.362,73.138
			c1.67,34.136,14.342,58.202,46.238,62.918L243.164,192.801z"/>
		<g>
			<g>
				<g>
					<path style="fill:#5E6F3C;" d="M269.075,175.002l0.478,0.256l1.178,0.635c0.014,0.007,0.055,0.004,0.12-0.014
						c1.105-0.248,9.226-3.653,10.832-8.374c1.699-4.992-2.901-3.118-4.85-1.304c-0.56,0.519-1.44,1.468-2.409,2.558
						c-1.592,1.789-3.424,3.95-4.48,5.206C269.409,174.6,269.075,175.002,269.075,175.002z"/>
				</g>
				
					<line style="fill:none;stroke:#000000;stroke-width:0.5;stroke-linecap:round;stroke-linejoin:round;stroke-miterlimit:10;" x1="280.142" y1="166.147" x2="271.405" y2="174.466"/>
				<g>
					<path style="fill:#5E6F3C;" d="M270.683,175.553l-0.542,0.016l-1.338,0.044c-0.016,0-0.051-0.021-0.101-0.065
						c-0.879-0.714-6.634-7.379-5.97-12.321c0.702-5.226,3.986-1.499,4.923,0.992c0.27,0.714,0.636,1.955,1.018,3.363
						c0.629,2.311,1.307,5.062,1.693,6.656C270.563,175.044,270.683,175.553,270.683,175.553z"/>
				</g>
				
					<line style="fill:none;stroke:#000000;stroke-width:0.5;stroke-linecap:round;stroke-linejoin:round;stroke-miterlimit:10;" x1="264.716" y1="162.696" x2="268.835" y2="174.036"/>
			</g>
			<path style="fill:#CC401F;" d="M281.339,177.775c-2.537-1.251-5.288-1.668-7.987-1.359c-2.089,0.24-4.181-0.276-5.918-1.46
				c-2.245-1.529-4.874-2.44-7.702-2.513c-8.561-0.221-15.7,7.313-15.945,16.827c-0.246,9.514,6.495,17.407,15.056,17.628
				c0.455,0.012,0.906,0.001,1.352-0.03c1.651-0.117,3.314,0.294,4.722,1.165c0.38,0.235,0.774,0.454,1.183,0.655
				c7.681,3.787,17.319-0.064,21.528-8.6C291.835,191.552,289.02,181.562,281.339,177.775z"/>
			<path style="fill:#F7E4D3;" d="M284.425,194.252c0.34,0.69-0.204,1.554-0.94,1.633c-0.783,0.084-1.518-0.116-2.199-0.526
				c-0.666-0.402-0.532-1.18,0.03-1.594c0.658-0.485,2.068-0.507,2.805,0.01C284.264,193.875,284.326,194.09,284.425,194.252z"/>
			<path style="fill:#F7E4D3;" d="M251.746,180.669c-0.588,0.223-1.274-0.05-1.47-0.586c-0.163-0.447,0.148-1.15,0.592-1.338
				c0.553-0.234,1.285,0.094,1.492,0.669C252.578,180.02,252.377,180.43,251.746,180.669z"/>
			<path style="fill:#F7E4D3;" d="M281.374,185.372c0.562-0.341,1.53,0.368,1.622,0.88c0.09,0.494-0.385,1.027-0.899,0.892
				c-0.484-0.127-0.962-0.392-1.145-0.919C280.811,185.817,280.882,185.455,281.374,185.372z"/>
			<path style="fill:#F7E4D3;" d="M285.295,191.505c-0.459,0.185-1.386-0.025-1.726-0.377c-0.124-0.128-0.137-0.25-0.038-0.408
				c0.166-0.264,0.203-0.657,0.622-0.665c0.319-0.006,0.641,0.025,0.959,0.06c0.459,0.05,0.543,0.427,0.639,0.779
				C285.862,191.301,285.468,191.332,285.295,191.505z"/>
			<g>
				<path style="fill:#879441;" d="M269.789,175.742c0,0,0.009,0.695-1.043,0.583c-1.116-0.195-9.615-3.106-11.446-7.744
					c-1.937-4.904,2.748-3.253,4.782-1.536c0.584,0.491,1.509,1.397,2.529,2.439c1.676,1.711,3.611,3.781,4.725,4.984
					C269.901,175.078,269.789,175.742,269.789,175.742z"/>
			</g>
			
				<line style="fill:none;stroke:#000000;stroke-width:0.5;stroke-linecap:round;stroke-linejoin:round;stroke-miterlimit:10;" x1="258.774" y1="167.15" x2="267.901" y2="175.04"/>
			<g>
				<path style="fill:#879441;" d="M270.759,177.19c1.128,0.103,9.778-0.583,12.754-4.584c3.147-4.23-1.806-3.857-4.217-2.728
					c-0.691,0.322-1.82,0.955-3.078,1.696c-2.063,1.215-4.315,3.032-5.86,3.581C268.275,175.896,269.852,177.229,270.759,177.19z"/>
			</g>
			
				<line style="fill:none;stroke:#000000;stroke-width:0.5;stroke-linecap:round;stroke-linejoin:round;stroke-miterlimit:10;" x1="282.462" y1="170.84" x2="271.595" y2="176.08"/>
		</g>
		<g>
			<g>
				<g>
					<g>
						<path style="fill:#5E6F3C;" d="M310.477,156.051c-2.366,6.728-5.765,13.631-5.765,13.631
							c-1.022,1.552-4.219,5.602-6.634,5.642c-0.437,0.007-0.846-0.118-1.215-0.404c-0.865-0.68-1.495-2.281-1.671-5.289
							c-0.276-4.653,1.612-10.25,4.263-15.078c3.867-7.027,9.346-12.426,12.138-10.931
							C313.75,144.777,312.485,150.353,310.477,156.051z"/>
					</g>
				</g>
				<g>
					<path style="fill:#879441;" d="M298.535,180.912l-0.845-0.225l-2.085-0.55c-0.024-0.008-0.069-0.056-0.126-0.148
						c-1.027-1.508-6.834-14.453-3.527-21.775c3.495-7.743,6.845-0.474,7.141,3.804c0.087,1.226,0.079,3.312,0.019,5.661
						c-0.097,3.857-0.319,8.417-0.459,11.055C298.584,180.072,298.535,180.912,298.535,180.912z"/>
				</g>
				<g>
					<path style="fill:#B5B53D;" d="M310.003,169.712c-2.174,3.263-4.891,5.486-6.116,7.649c-1.138,2.016-1.627,3.412-1.627,3.412
						l-4.7-1.512c0.084-1.01,0.249-2.021,0.488-3.035c2.54-11.095,12.985-21.54,17.412-19.313
						C319.941,159.165,315.052,162.133,310.003,169.712z"/>
				</g>
				
					<line style="fill:none;stroke:#000000;stroke-width:0.5;stroke-linecap:round;stroke-linejoin:round;stroke-miterlimit:10;" x1="295.261" y1="158.313" x2="296.383" y2="177.717"/>
				
					<line style="fill:none;stroke:#000000;stroke-width:0.5;stroke-linecap:round;stroke-linejoin:round;stroke-miterlimit:10;" x1="310.352" y1="145.514" x2="300.213" y2="167.221"/>
				
					<line style="fill:none;stroke:#000000;stroke-width:0.5;stroke-linecap:round;stroke-linejoin:round;stroke-miterlimit:10;" x1="310.867" y1="160.372" x2="300.531" y2="177.99"/>
			</g>
			<path style="fill:#FFB980;" d="M315.223,208.256c-0.521,1.619-2.256,2.509-3.875,1.988c-1.618-0.521-2.509-2.256-1.988-3.874
				c0.521-1.619,2.256-2.509,3.874-1.988C314.854,204.903,315.744,206.637,315.223,208.256z"/>
			<g>
				<path style="fill:#E69743;" d="M307.034,228.56c-2.606,3.773-5.298,7.25-7.847,10.117c-2.186,2.469-4.215,4.573-6.085,6.367
					c-0.357,0.34-0.704,0.67-1.047,0.988c-5.158,4.758-9.074,7.005-11.924,7.627c-1.253,0.273-2.297,0.231-3.152-0.044
					c-3.699-1.19-3.06-4.967-4.69-25.107c-0.031-0.445-0.07-0.906-0.107-1.373c-0.002-0.054-0.011-0.111-0.014-0.165
					c-0.2-2.434-0.387-4.829-0.538-7.187c-0.031-0.445-0.056-0.888-0.08-1.331c-0.864-14.64-0.208-27.326,6.669-34.161
					c0.385-0.385,0.792-0.755,1.224-1.098c1.243-1.012,2.668-1.865,4.281-2.531c6.012-2.482,13.299-2.707,19.915-1.388
					c4.127,0.819,7.994,2.238,11.122,4.081c3.45,2.027,6.011,4.571,7.046,7.387c0.112,0.297,0.204,0.614,0.272,0.944
					c0.095,0.412,0.161,0.849,0.203,1.304C323.007,201.215,315.433,216.433,307.034,228.56z"/>
				<g>
					<g>
						<path style="fill:#C37325;" d="M292.851,185.16c-0.472,0.136-8.98-0.025-14.632-0.867c0.385-0.385,0.792-0.755,1.224-1.098
							c5.207,0.645,12.389,0.828,13.109,0.732c0.346-0.096,0.668,0.108,0.769,0.441C293.412,184.705,293.188,185.068,292.851,185.16
							z"/>
					</g>
					<g>
						<path style="fill:#C37325;" d="M294.602,185.335c-0.25-0.08-0.434-0.311-0.442-0.589c-0.01-0.352,0.267-0.645,0.619-0.655
							l2.87-0.08c0.354-0.01,0.645,0.267,0.655,0.619c0.01,0.352-0.268,0.645-0.619,0.655l-2.87,0.08
							C294.74,185.368,294.668,185.357,294.602,185.335z"/>
					</g>
					<g>
						<path style="fill:#C37325;" d="M322.281,192.991c-2.813-0.202-5.306-0.837-7.022-1.39c-1.407-0.453-2.289-0.851-2.389-0.896
							c-0.316-0.142-0.46-0.523-0.311-0.843c0.142-0.316,0.517-0.463,0.843-0.311c0.047,0.022,3.88,1.73,8.676,2.136
							C322.173,192.1,322.24,192.536,322.281,192.991z"/>
					</g>
					<g>
						<path style="fill:#C37325;" d="M280.699,220.822c-0.252-0.008-4.905-0.086-9.069-1.038c-0.031-0.445-0.056-0.888-0.08-1.331
							c4.147,1.007,9.104,1.096,9.172,1.091c0.353,0.006,0.628,0.296,0.627,0.65C281.343,220.548,281.054,220.823,280.699,220.822z"
							/>
					</g>
					<g>
						<path style="fill:#C37325;" d="M282.432,221.072c-0.258-0.083-0.444-0.325-0.442-0.61c0.001-0.352,0.288-0.636,0.641-0.634
							l3.173,0.017c0.351,0.002,0.636,0.289,0.633,0.64c-0.002,0.352-0.288,0.636-0.641,0.634l-3.173-0.017
							C282.557,221.102,282.493,221.092,282.432,221.072z"/>
					</g>
					<g>
						<path style="fill:#C37325;" d="M295.82,231.544c-0.663-0.019-14.552-0.326-23.531-3.035c-0.031-0.445-0.07-0.906-0.107-1.373
							c8.818,2.798,23.502,3.126,23.661,3.13c0.353,0.006,0.634,0.298,0.627,0.65C296.464,231.27,296.173,231.551,295.82,231.544z"
							/>
					</g>
					<g>
						<path style="fill:#C37325;" d="M276.685,235.806c-0.158-0.051-0.291-0.103-0.392-0.155c-0.313-0.161-0.436-0.546-0.274-0.858
							c0.161-0.313,0.543-0.436,0.858-0.274c0.525,0.267,3.049,0.652,4.676,0.839c0.354,0.04,0.601,0.356,0.56,0.705
							c-0.04,0.35-0.356,0.601-0.705,0.561C280.791,236.553,277.952,236.214,276.685,235.806z"/>
					</g>
					<g>
						<path style="fill:#C37325;" d="M293.102,245.045c-0.357,0.34-0.704,0.67-1.047,0.988c-0.841-0.297-1.869-0.702-3.131-1.229
							c-0.336-0.141-0.571-0.244-0.656-0.271c-0.333-0.107-0.519-0.468-0.411-0.802c0.107-0.333,0.468-0.519,0.802-0.411
							c0.097,0.031,0.368,0.145,0.759,0.304C291.096,244.332,292.279,244.774,293.102,245.045z"/>
					</g>
				</g>
			</g>
		</g>
		<path style="fill:#E0AD83;" d="M343.378,245.294c-6.677-23.609-12.291-49.21-12.291-49.21l0,0l-0.314-1.477l-6.797-5.088
			l-6.315,4.763l-0.005,0.217l-0.03,0.022l-6.09-5.052l-6.314,4.763l-6.089-5.052l-6.315,4.763l-6.087-5.052l-6.315,4.763
			l-6.084-5.052l-6.31,4.763l-6.085-5.052l-6.308,4.763l-6.085-5.052l-6.314,4.763l0,0.012c-0.021,0.001-0.045,0-0.066,0.002
			c0,0-8.048,51.206-2.867,81.688c5.181,30.482,11.803,51.247,40.567,52.444c28.764,1.197,58.466-9.302,66.929-25.411
			C356.255,285.414,350.055,268.903,343.378,245.294z"/>
	</g>
	<g>
		<path style="fill:#C98F63;" d="M444.245,222.197c0,0,6.471-5.084,9.158-8.513c2.687-3.429,5.011-11.369,7.141-16.809
			c2.13-5.44,0.905-6.031,0.905-6.031s-0.76-0.634-2.218,1.372c-0.854,1.175-5.898,11.918-5.898,11.918s-1.065,2.72-3.472,2.001
			c-2.407-0.718-1.321-3.206-1.321-3.206s3.393-10.098,4.108-13.067c0.566-2.352-0.456-2.795-0.907-2.878
			c-0.387-0.245-1.438-0.614-2.62,1.497c-1.491,2.665-5.856,12.383-5.856,12.383s-0.892,2.563-3.147,1.456s-1.19-3.827-1.19-3.827
			s3.59-11.312,3.761-12.755c0.292-2.462-0.697-2.513-0.697-2.513s-1.301-0.397-3.43,5.042c-2.13,5.44-5.814,12.847-6.17,17.189
			c-0.356,4.342,0.944,12.468,0.944,12.468s1.71,3.358-1.919,10.339c-3.629,6.981-9.882,18.088-15.608,32.426
			c-5.726,14.338-11.401,32.841-11.401,32.841s-1.616,4.976,2.686,6.961l-0.01,0.025c0.063,0.025,0.122,0.035,0.184,0.058
			c0.061,0.026,0.111,0.058,0.175,0.083l0.01-0.025c4.505,1.464,6.698-3.286,6.698-3.286s8.396-17.438,13.927-31.852
			c5.531-14.414,8.482-26.814,10.557-34.404C440.71,223.502,444.245,222.197,444.245,222.197z"/>
		<path style="fill:#E0AD83;" d="M403.211,198.422c5.538,15.49,13.174,35.096,13.174,35.096c1.174,6.949,2.698,18.264,6.344,31.604
			c3.646,13.34,9.575,29.63,9.575,29.63s1.501,4.34,5.553,3.552l0.009,0.031c0.08-0.023,0.146-0.055,0.223-0.079
			c0.078-0.019,0.151-0.025,0.232-0.048l-0.009-0.031c3.871-1.435,2.895-5.922,2.895-5.922s-3.41-16.997-7.236-30.286
			c-3.605-12.522-7.881-22.526-10.549-29.115l0.073-3.355c0.434-0.84,0.576-1.801,0.403-2.73l-0.228-1.228
			c-0.127-0.685-0.084-1.392,0.125-2.056l0.396-1.255c0.272-0.863,0.262-1.79-0.029-2.647l-0.418-1.23
			c-0.228-0.672-0.285-1.39-0.164-2.09l0.223-1.293c0.152-0.884,0.021-1.794-0.374-2.599l-0.574-1.168
			c-0.316-0.642-0.464-1.353-0.432-2.068l0.059-1.307c0.04-0.892-0.201-1.773-0.69-2.521l-0.713-1.09
			c-0.394-0.602-0.629-1.295-0.682-2.013l-0.097-1.306c-0.066-0.885-0.407-1.728-0.975-2.409l-0.835-1.001
			c-0.464-0.557-0.779-1.223-0.913-1.936l-0.243-1.29c-0.163-0.867-0.592-1.661-1.227-2.273l-0.937-0.904
			c-0.527-0.508-0.913-1.143-1.123-1.843l-0.377-1.259c-0.251-0.838-0.754-1.579-1.441-2.121l-1.025-0.809
			c-0.579-0.457-1.03-1.057-1.307-1.741l-1.541-2.274l0.14,0.155c-5.589-6.778-10.959-5.854-10.906-0.822
			C397.61,182.189,400.074,189.645,403.211,198.422"/>
		<path style="fill:#879441;" d="M423.17,260.917c0.893-1.691,1.922-3.191,2.836-4.797c-1.504-1.246-2.283-3.682-3.222-5.344
			c-0.958-1.695-1.982-3.587-1.622-5.596c0.12-0.673,0.668-1.191,1.385-1.114c1.93,0.209,2.799,2.133,3.556,3.693
			c0.754,1.55,1.397,3.055,1.595,4.657c0.579-1.664,1.03-3.458,1.272-5.274c-0.077-0.037-0.148-0.085-0.198-0.149
			c-0.943-1.198-0.953-2.649-1.23-4.096c-0.168-0.879-0.437-1.732-0.639-2.602c-0.221-0.955-0.007-1.913-0.16-2.858
			c-0.284-1.763-0.185-5.653,2.477-5.365c2.109,0.229,2.457,3.243,2.683,4.851c0.461,3.262-0.379,6.1-0.914,9.323
			c-0.049,0.299-0.184,0.525-0.359,0.685c-0.058,0.874-0.171,1.746-0.311,2.611c0.585-0.773,1.262-1.487,1.957-2.148
			c1.209-1.149,4.548-3.05,4.931-0.002c0.292,2.325-1.685,3.994-3.349,5.278c-0.996,0.768-2.038,1.665-3.121,2.284
			c-0.529,0.304-1.124,0.694-1.766,0.658c-0.044-0.003-0.124-0.015-0.215-0.032c-0.979,2.528-2.541,5.075-4.977,5.92
			C423.452,261.615,422.966,261.302,423.17,260.917z"/>
		<path style="fill:none;stroke:#000000;stroke-width:0.5;stroke-linecap:round;stroke-linejoin:round;stroke-miterlimit:10;" d="
			M451.96,303.41l-25.673-45.87c0,0,27.809-1.712,35.629-15.433c7.82-13.721-35.525,15.618-35.525,15.618
			s-34.344-29.419-45.035-26.063c-10.691,3.355,44.673,26.147,44.673,26.147l-32.732,30.945"/>
	</g>
	<g>
		<g>
			<path style="fill:#B5B53D;" d="M46.411,97.834c0,0,41.402-3.301,40.056,35.807C86.467,133.641,47.624,137.55,46.411,97.834z"/>
			<g>
				<path style="fill:none;stroke:#000000;stroke-width:0.5;stroke-linecap:round;stroke-linejoin:round;stroke-miterlimit:10;" d="
					M80.393,113.317c0,0,1.365,5.906-0.04,16.249"/>
				<path style="fill:none;stroke:#000000;stroke-width:0.5;stroke-linecap:round;stroke-linejoin:round;stroke-miterlimit:10;" d="
					M73.042,107.251c0,0,1.364,5.907-0.04,16.249"/>
				<path style="fill:none;stroke:#000000;stroke-width:0.5;stroke-linecap:round;stroke-linejoin:round;stroke-miterlimit:10;" d="
					M65.342,101.242c0.315,2.05,0.867,7.373-0.21,15.306"/>
				<path style="fill:none;stroke:#000000;stroke-width:0.5;stroke-linecap:round;stroke-linejoin:round;stroke-miterlimit:10;" d="
					M57.302,100.244c0.016,2.492-0.103,4.538-0.603,8.221"/>
				<path style="fill:none;stroke:#000000;stroke-width:0.5;stroke-linecap:round;stroke-linejoin:round;stroke-miterlimit:10;" d="
					M72.62,131.729c2.135-0.448,4.628-1.093,7.429-2.02"/>
				<path style="fill:none;stroke:#000000;stroke-width:0.5;stroke-linecap:round;stroke-linejoin:round;stroke-miterlimit:10;" d="
					M61.036,126.34c2.753-0.346,6.744-1.103,11.698-2.743"/>
				<path style="fill:none;stroke:#000000;stroke-width:0.5;stroke-linecap:round;stroke-linejoin:round;stroke-miterlimit:10;" d="
					M54.144,118.805c2.723-0.375,6.513-1.136,11.144-2.67"/>
				<path style="fill:none;stroke:#000000;stroke-width:0.5;stroke-linecap:round;stroke-linejoin:round;stroke-miterlimit:10;" d="
					M49.998,110.79c1.791-0.382,3.587-0.88,6.282-1.772"/>
				<path style="fill:none;stroke:#000000;stroke-width:0.5;stroke-linecap:round;stroke-linejoin:round;stroke-miterlimit:10;" d="
					M48.377,99.913c0,0,13.62,16.108,38.09,33.728c0,0,1.42,1.011,4.118,2.514"/>
			</g>
		</g>
		<g>
			<path style="fill:#B5B53D;" d="M362.97,267.138c0,0-6.368-41.042,32.732-42.606C395.701,224.532,402.486,262.977,362.97,267.138z
				"/>
			<g>
				<path style="fill:none;stroke:#000000;stroke-width:0.5;stroke-linecap:round;stroke-linejoin:round;stroke-miterlimit:10;" d="
					M375.885,232.099c0,0,5.789-1.8,16.207-1.167"/>
				<path style="fill:none;stroke:#000000;stroke-width:0.5;stroke-linecap:round;stroke-linejoin:round;stroke-miterlimit:10;" d="
					M370.381,239.881c0,0,5.789-1.8,16.208-1.167"/>
				<path style="fill:none;stroke:#000000;stroke-width:0.5;stroke-linecap:round;stroke-linejoin:round;stroke-miterlimit:10;" d="
					M364.961,248.006c2.021-0.467,7.288-1.413,15.279-0.928"/>
				<path style="fill:none;stroke:#000000;stroke-width:0.5;stroke-linecap:round;stroke-linejoin:round;stroke-miterlimit:10;" d="
					M364.563,256.098c2.484-0.201,4.533-0.235,8.243-0.01"/>
				<path style="fill:none;stroke:#000000;stroke-width:0.5;stroke-linecap:round;stroke-linejoin:round;stroke-miterlimit:10;" d="
					M394.823,238.483c-0.605-2.096-1.434-4.534-2.567-7.258"/>
				<path style="fill:none;stroke:#000000;stroke-width:0.5;stroke-linecap:round;stroke-linejoin:round;stroke-miterlimit:10;" d="
					M390.31,250.435c-0.55-2.719-1.601-6.643-3.605-11.462"/>
				<path style="fill:none;stroke:#000000;stroke-width:0.5;stroke-linecap:round;stroke-linejoin:round;stroke-miterlimit:10;" d="
					M383.308,257.868c-0.577-2.688-1.617-6.41-3.49-10.915"/>
				<path style="fill:none;stroke:#000000;stroke-width:0.5;stroke-linecap:round;stroke-linejoin:round;stroke-miterlimit:10;" d="
					M375.623,262.598c-0.514-1.757-1.144-3.512-2.234-6.133"/>
				<path style="fill:none;stroke:#000000;stroke-width:0.5;stroke-linecap:round;stroke-linejoin:round;stroke-miterlimit:10;" d="
					M364.896,265.023c0,0,15.051-14.779,30.805-40.491c0,0,0.903-1.491,2.201-4.293"/>
			</g>
		</g>
		<g>
			<path style="fill:#B5B53D;" d="M167.905,307.465c0,0,41.491-1.873,38.799,37.165C206.704,344.63,167.75,347.199,167.905,307.465z
				"/>
			<g>
				<path style="fill:none;stroke:#000000;stroke-width:0.5;stroke-linecap:round;stroke-linejoin:round;stroke-miterlimit:10;" d="
					M201.334,324.109c0,0,1.16,5.95-0.6,16.238"/>
				<path style="fill:none;stroke:#000000;stroke-width:0.5;stroke-linecap:round;stroke-linejoin:round;stroke-miterlimit:10;" d="
					M194.196,317.793c0,0,1.16,5.95-0.6,16.238"/>
				<path style="fill:none;stroke:#000000;stroke-width:0.5;stroke-linecap:round;stroke-linejoin:round;stroke-miterlimit:10;" d="
					M186.707,311.522c0.245,2.06,0.613,7.398-0.737,15.29"/>
				<path style="fill:none;stroke:#000000;stroke-width:0.5;stroke-linecap:round;stroke-linejoin:round;stroke-miterlimit:10;" d="
					M178.707,310.248c-0.07,2.491-0.259,4.531-0.886,8.196"/>
				<path style="fill:none;stroke:#000000;stroke-width:0.5;stroke-linecap:round;stroke-linejoin:round;stroke-miterlimit:10;" d="
					M192.931,342.242c2.15-0.374,4.663-0.933,7.494-1.763"/>
				<path style="fill:none;stroke:#000000;stroke-width:0.5;stroke-linecap:round;stroke-linejoin:round;stroke-miterlimit:10;" d="
					M181.54,336.457c2.763-0.251,6.778-0.87,11.786-2.339"/>
				<path style="fill:none;stroke:#000000;stroke-width:0.5;stroke-linecap:round;stroke-linejoin:round;stroke-miterlimit:10;" d="
					M174.911,328.689c2.735-0.281,6.548-0.911,11.229-2.284"/>
				<path style="fill:none;stroke:#000000;stroke-width:0.5;stroke-linecap:round;stroke-linejoin:round;stroke-miterlimit:10;" d="
					M171.044,320.536c1.803-0.321,3.615-0.756,6.339-1.555"/>
				<path style="fill:none;stroke:#000000;stroke-width:0.5;stroke-linecap:round;stroke-linejoin:round;stroke-miterlimit:10;" d="
					M169.798,309.609c0,0,13.057,16.567,36.906,35.02c0,0,1.384,1.059,4.029,2.654"/>
			</g>
		</g>
		<g>
			<path style="fill:#B5B53D;" d="M91.371,445.029c0,0-13.583,39.25-48.867,22.331C42.505,467.359,54.503,430.21,91.371,445.029z"/>
			<g>
				<path style="fill:none;stroke:#000000;stroke-width:0.5;stroke-linecap:round;stroke-linejoin:round;stroke-miterlimit:10;" d="
					M63.558,469.948c0,0-5.958-1.119-14.869-6.555"/>
				<path style="fill:none;stroke:#000000;stroke-width:0.5;stroke-linecap:round;stroke-linejoin:round;stroke-miterlimit:10;" d="
					M72.064,465.647c0,0-5.958-1.119-14.869-6.555"/>
				<path style="fill:none;stroke:#000000;stroke-width:0.5;stroke-linecap:round;stroke-linejoin:round;stroke-miterlimit:10;" d="
					M80.657,461.004c-2.004-0.533-7.102-2.163-13.936-6.332"/>
				<path style="fill:none;stroke:#000000;stroke-width:0.5;stroke-linecap:round;stroke-linejoin:round;stroke-miterlimit:10;" d="
					M84.796,454.039c-2.289-0.985-4.115-1.914-7.289-3.85"/>
				<path style="fill:none;stroke:#000000;stroke-width:0.5;stroke-linecap:round;stroke-linejoin:round;stroke-miterlimit:10;" d="
					M49.81,455.442c-0.446,2.136-0.855,4.678-1.129,7.616"/>
				<path style="fill:none;stroke:#000000;stroke-width:0.5;stroke-linecap:round;stroke-linejoin:round;stroke-miterlimit:10;" d="
					M59.393,446.993c-0.787,2.66-1.695,6.62-2.18,11.816"/>
				<path style="fill:none;stroke:#000000;stroke-width:0.5;stroke-linecap:round;stroke-linejoin:round;stroke-miterlimit:10;" d="
					M69.059,443.701c-0.748,2.645-1.571,6.422-2.024,11.279"/>
				<path style="fill:none;stroke:#000000;stroke-width:0.5;stroke-linecap:round;stroke-linejoin:round;stroke-miterlimit:10;" d="
					M78.065,443.118c-0.368,1.793-0.632,3.639-0.896,6.465"/>
				<path style="fill:none;stroke:#000000;stroke-width:0.5;stroke-linecap:round;stroke-linejoin:round;stroke-miterlimit:10;" d="
					M88.679,445.996c0,0-20.218,6.016-46.174,21.363c0,0-1.496,0.895-3.955,2.764"/>
			</g>
		</g>
		<g>
			<path style="fill:#B5B53D;" d="M261.366,61.439c0,0-18.871,23.212-38.577,3.061C222.789,64.501,240.07,42.319,261.366,61.439z"/>
			<g>
				<path style="fill:none;stroke:#000000;stroke-width:0.5;stroke-linecap:round;stroke-linejoin:round;stroke-miterlimit:10;" d="
					M236.398,71.444c0,0-3.756-2.227-8.446-8.102"/>
				<path style="fill:none;stroke:#000000;stroke-width:0.5;stroke-linecap:round;stroke-linejoin:round;stroke-miterlimit:10;" d="
					M243.215,70.631c0,0-3.756-2.227-8.446-8.103"/>
				<path style="fill:none;stroke:#000000;stroke-width:0.5;stroke-linecap:round;stroke-linejoin:round;stroke-miterlimit:10;" d="
					M250.175,69.608c-1.225-0.855-4.273-3.215-7.87-7.722"/>
				<path style="fill:none;stroke:#000000;stroke-width:0.5;stroke-linecap:round;stroke-linejoin:round;stroke-miterlimit:10;" d="
					M254.694,65.916c-1.306-1.231-2.313-2.31-3.983-4.403"/>
				<path style="fill:none;stroke:#000000;stroke-width:0.5;stroke-linecap:round;stroke-linejoin:round;stroke-miterlimit:10;" d="
					M230.672,58.237c-0.829,1.335-1.733,2.955-2.642,4.875"/>
				<path style="fill:none;stroke:#000000;stroke-width:0.5;stroke-linecap:round;stroke-linejoin:round;stroke-miterlimit:10;" d="
					M239.24,54.883c-1.189,1.606-2.78,4.062-4.389,7.459"/>
				<path style="fill:none;stroke:#000000;stroke-width:0.5;stroke-linecap:round;stroke-linejoin:round;stroke-miterlimit:10;" d="
					M246.594,55.039c-1.159,1.605-2.647,3.958-4.151,7.134"/>
				<path style="fill:none;stroke:#000000;stroke-width:0.5;stroke-linecap:round;stroke-linejoin:round;stroke-miterlimit:10;" d="
					M252.832,56.865c-0.691,1.123-1.326,2.307-2.201,4.154"/>
				<path style="fill:none;stroke:#000000;stroke-width:0.5;stroke-linecap:round;stroke-linejoin:round;stroke-miterlimit:10;" d="
					M259.305,61.43c0,0-15.166-0.915-36.516,3.07c0,0-1.233,0.237-3.358,0.895"/>
			</g>
		</g>
		<g>
			<path style="fill:#B5B53D;" d="M477.637,453.297c0,0-3.235,29.74-30.726,23.526C446.911,476.823,449.371,448.812,477.637,453.297
				z"/>
			<g>
				<path style="fill:none;stroke:#000000;stroke-width:0.5;stroke-linecap:round;stroke-linejoin:round;stroke-miterlimit:10;" d="
					M462.109,475.26c0,0-4.363,0.171-11.492-2.215"/>
				<path style="fill:none;stroke:#000000;stroke-width:0.5;stroke-linecap:round;stroke-linejoin:round;stroke-miterlimit:10;" d="
					M467.391,470.874c0,0-4.363,0.171-11.493-2.215"/>
				<path style="fill:none;stroke:#000000;stroke-width:0.5;stroke-linecap:round;stroke-linejoin:round;stroke-miterlimit:10;" d="
					M472.679,466.234c-1.493-0.052-5.334-0.378-10.802-2.208"/>
				<path style="fill:none;stroke:#000000;stroke-width:0.5;stroke-linecap:round;stroke-linejoin:round;stroke-miterlimit:10;" d="
					M474.467,460.68c-1.765-0.324-3.197-0.683-5.736-1.533"/>
				<path style="fill:none;stroke:#000000;stroke-width:0.5;stroke-linecap:round;stroke-linejoin:round;stroke-miterlimit:10;" d="
					M450.127,467.282c0.03,1.571,0.15,3.422,0.43,5.529"/>
				<path style="fill:none;stroke:#000000;stroke-width:0.5;stroke-linecap:round;stroke-linejoin:round;stroke-miterlimit:10;" d="
					M455.499,459.811c-0.125,1.994-0.127,4.92,0.367,8.647"/>
				<path style="fill:none;stroke:#000000;stroke-width:0.5;stroke-linecap:round;stroke-linejoin:round;stroke-miterlimit:10;" d="
					M461.757,455.948c-0.101,1.977-0.072,4.761,0.39,8.244"/>
				<path style="fill:none;stroke:#000000;stroke-width:0.5;stroke-linecap:round;stroke-linejoin:round;stroke-miterlimit:10;" d="
					M467.987,454.092c0.03,1.318,0.14,2.657,0.409,4.683"/>
				<path style="fill:none;stroke:#000000;stroke-width:0.5;stroke-linecap:round;stroke-linejoin:round;stroke-miterlimit:10;" d="
					M475.902,454.409c0,0-13.23,7.47-28.991,22.414c0,0-0.906,0.869-2.333,2.576"/>
			</g>
		</g>
		<g>
			<path style="fill:#B5B53D;" d="M394.59,72.251c0,0-40.48-9.294-27.444-46.189C367.146,26.061,405.368,34.006,394.59,72.251z"/>
			<g>
				<path style="fill:none;stroke:#000000;stroke-width:0.5;stroke-linecap:round;stroke-linejoin:round;stroke-miterlimit:10;" d="
					M366.831,47.271c0,0,0.474-6.043,4.922-15.486"/>
				<path style="fill:none;stroke:#000000;stroke-width:0.5;stroke-linecap:round;stroke-linejoin:round;stroke-miterlimit:10;" d="
					M372.02,55.266c0,0,0.474-6.043,4.922-15.486"/>
				<path style="fill:none;stroke:#000000;stroke-width:0.5;stroke-linecap:round;stroke-linejoin:round;stroke-miterlimit:10;" d="
					M377.558,63.311c0.315-2.05,1.389-7.293,4.8-14.535"/>
				<path style="fill:none;stroke:#000000;stroke-width:0.5;stroke-linecap:round;stroke-linejoin:round;stroke-miterlimit:10;" d="
					M384.926,66.679c0.734-2.381,1.462-4.297,3.046-7.66"/>
				<path style="fill:none;stroke:#000000;stroke-width:0.5;stroke-linecap:round;stroke-linejoin:round;stroke-miterlimit:10;" d="
					M379.779,32.046c-2.171-0.215-4.743-0.349-7.693-0.306"/>
				<path style="fill:none;stroke:#000000;stroke-width:0.5;stroke-linecap:round;stroke-linejoin:round;stroke-miterlimit:10;" d="
					M389.207,40.667c-2.73-0.497-6.764-0.975-11.982-0.899"/>
				<path style="fill:none;stroke:#000000;stroke-width:0.5;stroke-linecap:round;stroke-linejoin:round;stroke-miterlimit:10;" d="
					M393.517,49.925c-2.71-0.46-6.553-0.874-11.431-0.802"/>
				<path style="fill:none;stroke:#000000;stroke-width:0.5;stroke-linecap:round;stroke-linejoin:round;stroke-miterlimit:10;" d="
					M395.062,58.816c-1.823-0.173-3.686-0.238-6.524-0.197"/>
				<path style="fill:none;stroke:#000000;stroke-width:0.5;stroke-linecap:round;stroke-linejoin:round;stroke-miterlimit:10;" d="
					M393.339,69.677c0,0-8.15-19.456-26.193-43.616c0,0-1.05-1.391-3.172-3.635"/>
			</g>
		</g>
	</g>
	<g>
		<path style="fill:#E0AD83;" d="M181.734,379.296l-1.256,1.66c-2.237,2.957-1.653,7.168,1.304,9.405l13.874,10.169
			c2.171,1.642,5.015,1.759,7.26,0.538l80.875,61.747c1.675,1.267,4.06,0.937,5.328-0.739c1.267-1.675,0.937-4.06-0.738-5.327
			l-80.875-61.747c0.564-2.493-0.321-5.198-2.492-6.84l-13.874-10.169C188.182,375.755,183.971,376.338,181.734,379.296z"/>
		<path style="fill:#E0AD83;" d="M183.128,377.453l-1.256,1.66c-2.237,2.957-1.653,7.168,1.304,9.405l13.874,10.169
			c2.171,1.642,5.015,1.759,7.26,0.537l80.875,61.747c1.675,1.267,4.06,0.936,5.328-0.739s0.936-4.06-0.739-5.327l-80.875-61.747
			c0.564-2.493-0.321-5.198-2.492-6.84l-13.874-10.169C189.575,373.912,185.364,374.496,183.128,377.453z"/>
		<path style="fill:#F3D4BF;" d="M204.48,397.29c-2.02,1.099-4.579,0.994-6.533-0.484l-12.916-9.445
			c-2.661-2.013-3.186-5.802-1.173-8.462l1.13-1.494c2.013-2.661,5.801-3.186,8.462-1.173l12.916,9.445
			c1.953,1.478,3.709,3.61,3.202,5.853L204.48,397.29z"/>
		<path style="fill:#F7E4D3;" d="M211.204,388.608c0.217-0.959-0.141-1.778-0.39-2.717c-0.134-0.505,0.004-1.169-0.259-1.629
			c-0.392-0.684-0.925-1.302-1.594-1.808l-1.914-1.5c-0.155-0.121-0.324-0.223-0.503-0.302l-2.605-1.157
			c-0.327-0.145-0.617-0.362-0.849-0.634l-2.184-2.567c-0.193-0.226-0.426-0.415-0.687-0.555l-1.716-0.923
			c-0.105-0.056-0.205-0.12-0.3-0.191l-2.158-1.616c-0.82-0.62-2.086-0.689-3.035-0.839c-0.942-0.149-1.79-1.027-2.693-0.736
			c-0.741,0.239-1.214,1.428-1.827,1.95c-0.329,0.28-0.636,0.439-0.908,0.798l-1.13,1.494c-0.673,0.889-1.256,1.836-1.377,2.868
			c-0.105,0.898-0.361,1.594-0.07,2.448c0.188,0.551,0.572,1.539,0.918,2.023c0.346,0.484,1.202,0.746,1.701,1.124l2.429,1.838
			l0.834,0.631c0.144,0.109,0.276,0.234,0.392,0.373l0.475,0.569c0.298,0.357,0.693,0.618,1.138,0.753l1.342,0.408
			c0.408,0.124,0.775,0.355,1.063,0.668l2.19,2.383c0.206,0.225,0.454,0.408,0.729,0.539l3.284,1.567
			c0.144,0.068,0.286,0.156,0.413,0.252c1.539,1.158,1.682,1.155,3.02,0.417c0.403-0.223,0.867-0.328,1.327-0.295l0,0
			c0.847,0.06,1.681-0.321,2.14-1.035c0.201-0.312,0.374-0.674,0.45-1.065c0.241-1.233,1.66-1.265,1.963-1.857
			C211.12,389.692,211.204,388.608,211.204,388.608z"/>
		<path style="fill:none;stroke:#000000;stroke-width:0.5;stroke-linecap:round;stroke-linejoin:round;stroke-miterlimit:10;" d="
			M180.527,382.708c-0.146,2.182,0.775,4.392,2.649,5.81l13.874,10.169c2.171,1.642,5.015,1.759,7.26,0.537l80.875,61.747
			c0.924,0.699,2.065,0.912,3.115,0.681"/>
		<g>
			<g>
				<g>
					<polygon style="fill:#E0AD83;" points="263.194,402.035 287.24,427.79 302.967,429.001 302.572,413.845 278.479,387.539 					
						"/>
					<path style="fill:#FFFFFF;" d="M298.437,421.482c-1.148-0.356-2.368,0.286-2.724,1.434c-0.356,1.148,0.286,2.368,1.434,2.724
						s2.368-0.286,2.724-1.434C300.227,423.058,299.585,421.839,298.437,421.482z"/>
				</g>
				<path style="fill:none;stroke:#000000;stroke-width:0.5;stroke-linecap:round;stroke-linejoin:round;stroke-miterlimit:10;" d="
					M286.512,457.12c10.908,2.39,16.375-5.037,18.144-11.277c3.453-12.178-5.806-21.459-5.806-21.459"/>
			</g>
			<g>
				<g>
					<path style="fill:#5E6F3C;" d="M289.295,412.366c0,0-6.901-4.017-2.402-10.047C286.893,402.319,293.457,405.96,289.295,412.366
						z"/>
					<g>
						
							<path style="fill:none;stroke:#2C4D2B;stroke-width:0.5;stroke-linecap:round;stroke-linejoin:round;stroke-miterlimit:10;" d="
							M285.625,406.195c0,0,0.432-1.082,1.788-2.562"/>
						
							<path style="fill:none;stroke:#2C4D2B;stroke-width:0.5;stroke-linecap:round;stroke-linejoin:round;stroke-miterlimit:10;" d="
							M286.121,407.959c0,0,0.432-1.082,1.788-2.562"/>
						
							<path style="fill:none;stroke:#2C4D2B;stroke-width:0.5;stroke-linecap:round;stroke-linejoin:round;stroke-miterlimit:10;" d="
							M286.678,409.752c0.175-0.358,0.671-1.26,1.711-2.395"/>
						
							<path style="fill:none;stroke:#2C4D2B;stroke-width:0.5;stroke-linecap:round;stroke-linejoin:round;stroke-miterlimit:10;" d="
							M287.839,410.791c0.271-0.395,0.514-0.706,0.996-1.232"/>
						
							<path style="fill:none;stroke:#2C4D2B;stroke-width:0.5;stroke-linecap:round;stroke-linejoin:round;stroke-miterlimit:10;" d="
							M288.871,404.139c-0.386-0.163-0.851-0.335-1.395-0.495"/>
						
							<path style="fill:none;stroke:#2C4D2B;stroke-width:0.5;stroke-linecap:round;stroke-linejoin:round;stroke-miterlimit:10;" d="
							M290.11,406.26c-0.473-0.247-1.186-0.565-2.148-0.849"/>
						
							<path style="fill:none;stroke:#2C4D2B;stroke-width:0.5;stroke-linecap:round;stroke-linejoin:round;stroke-miterlimit:10;" d="
							M290.372,408.206c-0.471-0.239-1.153-0.535-2.053-0.8"/>
						
							<path style="fill:none;stroke:#2C4D2B;stroke-width:0.5;stroke-linecap:round;stroke-linejoin:round;stroke-miterlimit:10;" d="
							M290.149,409.926c-0.325-0.136-0.663-0.254-1.186-0.409"/>
						
							<path style="fill:none;stroke:#2C4D2B;stroke-width:0.5;stroke-linecap:round;stroke-linejoin:round;stroke-miterlimit:10;" d="
							M289.212,411.822c0,0-0.385-4.037-2.319-9.503c0,0-0.113-0.315-0.375-0.849"/>
					</g>
				</g>
				<g>
					<path style="fill:#5E6F3C;" d="M277.536,412.038c0,0,5.973-5.3,10.294,0.858C287.83,412.896,282.32,417.993,277.536,412.038z"
						/>
					<g>
						
							<path style="fill:none;stroke:#2C4D2B;stroke-width:0.5;stroke-linecap:round;stroke-linejoin:round;stroke-miterlimit:10;" d="
							M284.545,410.48c0,0,0.893,0.749,1.875,2.499"/>
						
							<path style="fill:none;stroke:#2C4D2B;stroke-width:0.5;stroke-linecap:round;stroke-linejoin:round;stroke-miterlimit:10;" d="
							M282.714,410.4c0,0,0.893,0.749,1.875,2.499"/>
						
							<path style="fill:none;stroke:#2C4D2B;stroke-width:0.5;stroke-linecap:round;stroke-linejoin:round;stroke-miterlimit:10;" d="
							M280.836,410.369c0.286,0.278,0.987,1.031,1.74,2.374"/>
						
							<path style="fill:none;stroke:#2C4D2B;stroke-width:0.5;stroke-linecap:round;stroke-linejoin:round;stroke-miterlimit:10;" d="
							M279.486,411.146c0.291,0.381,0.51,0.708,0.859,1.332"/>
						
							<path style="fill:none;stroke:#2C4D2B;stroke-width:0.5;stroke-linecap:round;stroke-linejoin:round;stroke-miterlimit:10;" d="
							M285.483,414.206c0.276-0.316,0.584-0.703,0.906-1.17"/>
						
							<path style="fill:none;stroke:#2C4D2B;stroke-width:0.5;stroke-linecap:round;stroke-linejoin:round;stroke-miterlimit:10;" d="
							M283.081,414.72c0.382-0.372,0.908-0.95,1.478-1.775"/>
						
							<path style="fill:none;stroke:#2C4D2B;stroke-width:0.5;stroke-linecap:round;stroke-linejoin:round;stroke-miterlimit:10;" d="
							M281.151,414.361c0.375-0.373,0.868-0.928,1.401-1.7"/>
						
							<path style="fill:none;stroke:#2C4D2B;stroke-width:0.5;stroke-linecap:round;stroke-linejoin:round;stroke-miterlimit:10;" d="
							M279.586,413.611c0.23-0.266,0.449-0.551,0.759-0.999"/>
						
							<path style="fill:none;stroke:#2C4D2B;stroke-width:0.5;stroke-linecap:round;stroke-linejoin:round;stroke-miterlimit:10;" d="
							M278.078,412.129c0,0,3.956,0.896,9.752,0.767c0,0,0.335-0.009,0.923-0.091"/>
					</g>
				</g>
				<g>
					<path style="fill:#5E6F3C;" d="M285.092,401.516c0,0,0.341,7.978-7.164,7.442C277.928,408.958,277.453,401.467,285.092,401.516
						z"/>
					<g>
						
							<path style="fill:none;stroke:#2C4D2B;stroke-width:0.5;stroke-linecap:round;stroke-linejoin:round;stroke-miterlimit:10;" d="
							M281.876,407.935c0,0-1.145,0.22-3.122-0.123"/>
						
							<path style="fill:none;stroke:#2C4D2B;stroke-width:0.5;stroke-linecap:round;stroke-linejoin:round;stroke-miterlimit:10;" d="
							M283.094,406.565c0,0-1.145,0.22-3.122-0.123"/>
						
							<path style="fill:none;stroke:#2C4D2B;stroke-width:0.5;stroke-linecap:round;stroke-linejoin:round;stroke-miterlimit:10;" d="
							M284.303,405.129c-0.396,0.046-1.423,0.114-2.939-0.149"/>
						
							<path style="fill:none;stroke:#2C4D2B;stroke-width:0.5;stroke-linecap:round;stroke-linejoin:round;stroke-miterlimit:10;" d="
							M284.552,403.591c-0.479-0.015-0.871-0.052-1.575-0.174"/>
						
							<path style="fill:none;stroke:#2C4D2B;stroke-width:0.5;stroke-linecap:round;stroke-linejoin:round;stroke-miterlimit:10;" d="
							M278.394,406.311c0.071,0.413,0.177,0.897,0.336,1.442"/>
						
							<path style="fill:none;stroke:#2C4D2B;stroke-width:0.5;stroke-linecap:round;stroke-linejoin:round;stroke-miterlimit:10;" d="
							M279.511,404.124c0.047,0.531,0.164,1.304,0.444,2.267"/>
						
							<path style="fill:none;stroke:#2C4D2B;stroke-width:0.5;stroke-linecap:round;stroke-linejoin:round;stroke-miterlimit:10;" d="
							M281.008,402.853c0.053,0.526,0.172,1.259,0.434,2.16"/>
						
							<path style="fill:none;stroke:#2C4D2B;stroke-width:0.5;stroke-linecap:round;stroke-linejoin:round;stroke-miterlimit:10;" d="
							M282.577,402.113c0.061,0.347,0.144,0.695,0.296,1.219"/>
						
							<path style="fill:none;stroke:#2C4D2B;stroke-width:0.5;stroke-linecap:round;stroke-linejoin:round;stroke-miterlimit:10;" d="
							M284.679,401.879c0,0-3.191,2.503-6.75,7.079c0,0-0.204,0.266-0.512,0.773"/>
					</g>
				</g>
			</g>
		</g>
	</g>
	<g>
		<g>
			<path style="fill:#F2E05A;" d="M183.916,269.431l-4.762,1.141c-1.195,0.287-2.135,1.32-2.411,2.649l-1.014,4.902
				c-0.196,0.947-1.603,0.937-1.784-0.014l-0.865-4.529c-0.3-1.57-1.388-2.804-2.79-3.163l-4.398-1.126
				c-0.971-0.249-0.96-1.583,0.014-1.816l4.416-1.059c1.406-0.337,2.512-1.552,2.836-3.117l0.935-4.517
				c0.196-0.948,1.603-0.937,1.784,0.013l0.941,4.93c0.253,1.326,1.172,2.367,2.355,2.67l4.755,1.217
				C184.9,267.864,184.89,269.198,183.916,269.431z"/>
		</g>
		<g>
			<path style="fill:#F2E05A;" d="M64.454,163.346l-3.065,0.761c-0.769,0.191-1.374,0.88-1.552,1.766l-0.654,3.267
				c-0.126,0.631-1.032,0.624-1.148-0.009l-0.556-3.018c-0.193-1.046-0.893-1.868-1.795-2.107l-2.83-0.749
				c-0.625-0.166-0.618-1.055,0.01-1.21l2.842-0.706c0.905-0.225,1.617-1.035,1.826-2.077l0.602-3.011
				c0.126-0.632,1.032-0.625,1.148,0.009l0.605,3.285c0.163,0.884,0.754,1.577,1.515,1.779l3.06,0.811
				C65.088,162.301,65.081,163.19,64.454,163.346z"/>
		</g>
		<g>
			<path style="fill:#F2E05A;" d="M344.3,453.911l-4.763,1.183c-1.195,0.297-2.135,1.367-2.411,2.744l-1.016,5.076
				c-0.196,0.981-1.603,0.97-1.784-0.014l-0.864-4.69c-0.299-1.626-1.387-2.903-2.789-3.275l-4.397-1.164
				c-0.971-0.257-0.96-1.639,0.015-1.881l4.417-1.097c1.406-0.349,2.512-1.608,2.837-3.228l0.936-4.678
				c0.197-0.982,1.603-0.971,1.784,0.013l0.94,5.105c0.253,1.373,1.171,2.451,2.355,2.765l4.755,1.259
				C345.285,452.287,345.275,453.668,344.3,453.911z"/>
		</g>
		<g>
			<path style="fill:#F2E05A;" d="M377.548,316.743l-3.065,0.761c-0.769,0.191-1.374,0.88-1.552,1.766l-0.654,3.267
				c-0.126,0.631-1.032,0.624-1.148-0.009l-0.556-3.018c-0.193-1.046-0.893-1.868-1.795-2.107l-2.83-0.749
				c-0.625-0.166-0.618-1.054,0.009-1.21l2.842-0.706c0.905-0.225,1.617-1.035,1.826-2.077l0.602-3.011
				c0.127-0.632,1.032-0.625,1.148,0.009l0.605,3.285c0.163,0.884,0.754,1.577,1.515,1.779l3.06,0.81
				C378.182,315.698,378.175,316.587,377.548,316.743z"/>
		</g>
		<g>
			<path style="fill:#F2E05A;" d="M148,448.712l-4.763,1.183c-1.195,0.297-2.135,1.367-2.411,2.744l-1.016,5.076
				c-0.196,0.981-1.603,0.97-1.784-0.014l-0.864-4.69c-0.299-1.626-1.387-2.903-2.789-3.275l-4.397-1.164
				c-0.971-0.257-0.96-1.638,0.015-1.881l4.417-1.097c1.406-0.349,2.512-1.608,2.837-3.228l0.936-4.678
				c0.197-0.982,1.603-0.971,1.784,0.014l0.94,5.105c0.253,1.373,1.171,2.451,2.355,2.765l4.755,1.259
				C148.985,447.089,148.975,448.47,148,448.712z"/>
		</g>
		<g>
			<path style="fill:#F2E05A;" d="M255.795,359.014l-3.065,0.761c-0.769,0.191-1.374,0.88-1.552,1.766l-0.654,3.267
				c-0.126,0.631-1.032,0.624-1.148-0.009l-0.556-3.018c-0.193-1.046-0.893-1.868-1.795-2.107l-2.83-0.749
				c-0.625-0.166-0.618-1.055,0.01-1.21l2.842-0.706c0.905-0.225,1.617-1.035,1.826-2.077l0.602-3.011
				c0.127-0.632,1.032-0.625,1.148,0.009l0.605,3.285c0.163,0.884,0.753,1.577,1.515,1.779l3.06,0.811
				C256.429,357.969,256.422,358.858,255.795,359.014z"/>
		</g>
		<g>
			<path style="fill:#F2E05A;" d="M428.458,149.614l-4.763,1.183c-1.195,0.297-2.135,1.367-2.411,2.744l-1.016,5.076
				c-0.196,0.981-1.603,0.97-1.784-0.014l-0.864-4.69c-0.299-1.626-1.387-2.903-2.789-3.275l-4.397-1.165
				c-0.971-0.257-0.96-1.639,0.015-1.881l4.417-1.097c1.407-0.349,2.512-1.608,2.837-3.228l0.936-4.678
				c0.197-0.981,1.603-0.971,1.784,0.014l0.94,5.105c0.253,1.373,1.171,2.451,2.355,2.765l4.755,1.259
				C429.443,147.991,429.433,149.372,428.458,149.614z"/>
		</g>
		<g>
			<path style="fill:#F2E05A;" d="M463.979,352.202l-4.763,1.183c-1.195,0.297-2.135,1.367-2.411,2.744l-1.016,5.076
				c-0.196,0.981-1.603,0.97-1.784-0.014l-0.864-4.69c-0.299-1.626-1.387-2.903-2.789-3.275l-4.397-1.165
				c-0.971-0.257-0.96-1.638,0.015-1.881l4.417-1.097c1.406-0.349,2.512-1.608,2.837-3.228l0.936-4.678
				c0.197-0.982,1.603-0.971,1.784,0.013l0.94,5.105c0.253,1.373,1.171,2.451,2.355,2.765l4.755,1.259
				C464.964,350.579,464.953,351.96,463.979,352.202z"/>
		</g>
		<g>
			<path style="fill:#F2E05A;" d="M94.439,56.125l-4.763,1.183c-1.195,0.297-2.136,1.367-2.411,2.744l-1.016,5.076
				c-0.196,0.981-1.603,0.97-1.784-0.014l-0.864-4.69c-0.299-1.626-1.387-2.903-2.789-3.275l-4.397-1.165
				c-0.971-0.257-0.96-1.639,0.015-1.881l4.417-1.097c1.407-0.349,2.512-1.608,2.837-3.228l0.936-4.678
				c0.197-0.981,1.603-0.971,1.784,0.014l0.94,5.105c0.253,1.373,1.171,2.451,2.355,2.765l4.755,1.259
				C95.424,54.502,95.413,55.883,94.439,56.125z"/>
		</g>
		<g>
			<path style="fill:#F2E05A;" d="M462.299,46.885l-3.065,0.761c-0.769,0.191-1.374,0.88-1.552,1.766l-0.654,3.267
				c-0.126,0.631-1.032,0.624-1.148-0.009l-0.556-3.018c-0.193-1.046-0.893-1.868-1.795-2.107l-2.83-0.749
				c-0.625-0.166-0.618-1.055,0.009-1.21l2.842-0.706c0.905-0.225,1.617-1.035,1.826-2.077l0.602-3.011
				c0.127-0.632,1.032-0.625,1.148,0.009l0.605,3.285c0.163,0.884,0.754,1.577,1.515,1.779l3.06,0.811
				C462.933,45.84,462.926,46.729,462.299,46.885z"/>
		</g>
		<g>
			<path style="fill:#F2E05A;" d="M370.078,177.849l-3.065,0.761c-0.769,0.191-1.374,0.88-1.552,1.766l-0.654,3.267
				c-0.126,0.631-1.032,0.624-1.148-0.009l-0.556-3.018c-0.193-1.046-0.893-1.868-1.795-2.107l-2.83-0.749
				c-0.625-0.166-0.618-1.055,0.009-1.21l2.842-0.706c0.905-0.225,1.617-1.035,1.826-2.077l0.602-3.011
				c0.126-0.632,1.032-0.625,1.148,0.009l0.605,3.285c0.163,0.884,0.754,1.577,1.515,1.779l3.06,0.811
				C370.712,176.805,370.706,177.693,370.078,177.849z"/>
		</g>
		<g>
			<path style="fill:#F2E05A;" d="M215.059,138.413l-4.763,1.183c-1.195,0.297-2.136,1.367-2.411,2.744l-1.016,5.076
				c-0.196,0.981-1.603,0.97-1.784-0.014l-0.864-4.69c-0.299-1.626-1.387-2.903-2.789-3.275l-4.397-1.165
				c-0.971-0.257-0.96-1.638,0.015-1.881l4.417-1.097c1.406-0.349,2.512-1.608,2.837-3.228l0.936-4.678
				c0.197-0.982,1.603-0.971,1.784,0.013l0.94,5.105c0.253,1.373,1.171,2.451,2.355,2.765l4.755,1.259
				C216.044,136.79,216.034,138.171,215.059,138.413z"/>
		</g>
		<g>
			<path style="fill:#F2E05A;" d="M295.239,36.278l-3.065,0.761c-0.769,0.191-1.374,0.88-1.552,1.766l-0.654,3.267
				c-0.126,0.631-1.032,0.624-1.148-0.009l-0.556-3.018c-0.193-1.046-0.893-1.868-1.795-2.107l-2.83-0.749
				c-0.625-0.166-0.618-1.055,0.009-1.21l2.842-0.706c0.905-0.225,1.617-1.035,1.826-2.077l0.602-3.011
				c0.126-0.632,1.032-0.625,1.148,0.009l0.605,3.285c0.163,0.884,0.754,1.577,1.515,1.779l3.06,0.81
				C295.873,35.234,295.866,36.122,295.239,36.278z"/>
		</g>
	</g>
	<path style="fill:none;stroke:#000000;stroke-width:0.5;stroke-linecap:round;stroke-linejoin:round;stroke-miterlimit:10;" d="
		M367.369,90.76"/>
	<g>
		<g>
			<path style="fill:#E0AD83;" d="M109.013,65.999c0,0,7.247,43.194,11.521,55.582c1.545,4.477,4.955,16.838,11.867,18.735
				c7.741,2.124,43.183-1.919,49.608-7.625c4.577-4.065,3.915-15.459,3.567-20.462c-1.548-22.315-7.312-57.802-7.312-57.802
				L109.013,65.999z"/>
			<g>
				<path style="fill:#E0AD83;" d="M178.265,54.427l-69.252,11.572c0,0,4.493,26.775,8.49,44.21l67.006-9.897
					C182.28,79.158,178.265,54.427,178.265,54.427z"/>
			</g>
			<path style="fill:#C98F63;" d="M114.987,87.148c8.738-0.126,37.074-1.232,64.268-9.953c1.352-0.434,2.806,0.324,3.205,1.706
				c1.152,3.987,3.123,13.376,3.768,32.286c0.031,0.905-0.412,1.76-1.166,2.241c-4.481,2.859-21.766,13.018-62.849,10.85
				c-1.035-0.055-2.206-1.922-2.541-2.916c-1.513-4.498-5.621-17.593-7.139-31.378C112.369,88.486,113.5,87.17,114.987,87.148z"/>
		</g>
		<path style="fill:#5E6F3C;" d="M107.904,67.742c0,0-4.186,3.284-2.805,4.686c1.381,1.403,14.473,3.36,41.237-1.058
			c22.137-3.654,34.004-8.537,36.783-9.863c0.612-0.292,1.059-0.882,1.077-1.56c0.029-1.11-1.578-2.606-5.728-3.642L107.904,67.742z
			"/>
		<path style="fill:#5E6F3C;" d="M106.712,59.375c0,0-1.775,1.76,0.695,9.975c0,0,25.305,4.199,72.896-11.528
			c0,0-0.08-7.284-2.68-11.178L106.712,59.375z"/>
		<path style="fill:#5E6F3C;" d="M177.623,46.644c0.583,3.245-14.819,8.726-34.401,12.242c-19.581,3.516-35.928,3.734-36.511,0.489
			c-0.583-3.245,14.819-8.727,34.401-12.242C160.694,43.617,177.041,43.398,177.623,46.644z"/>
		<path d="M168.348,48.487c0.353,1.965-5.633,4.685-13.371,6.074c-7.737,1.389-14.296,0.922-14.649-1.044
			c-0.353-1.965,5.633-4.685,13.371-6.074C161.437,46.054,167.995,46.521,168.348,48.487z"/>
		<path style="fill:none;stroke:#000000;stroke-width:0.5;stroke-linecap:round;stroke-linejoin:round;stroke-miterlimit:10;" d="
			M109.831,68.158c0,0,38.326,4.767,68.638-11.852"/>
		<path style="fill:none;stroke:#000000;stroke-width:0.5;stroke-linecap:round;stroke-linejoin:round;stroke-miterlimit:10;" d="
			M111.689,61.606c0,0,31.579,5.211,62.169-10.891"/>
		<g>
			<g>
				<path style="fill:#5E6F3C;" d="M148.375,88.025c0,0,5.175,18.467-12.665,21.333C135.71,109.358,130.487,92.105,148.375,88.025z"
					/>
				<g>
					
						<path style="fill:none;stroke:#2C4D2B;stroke-width:0.5;stroke-linecap:round;stroke-linejoin:round;stroke-miterlimit:10;" d="
						M144.38,104.8c0,0-2.555,1.143-7.366,1.426"/>
					
						<path style="fill:none;stroke:#2C4D2B;stroke-width:0.5;stroke-linecap:round;stroke-linejoin:round;stroke-miterlimit:10;" d="
						M146.475,100.929c0,0-2.555,1.143-7.367,1.426"/>
					
						<path style="fill:none;stroke:#2C4D2B;stroke-width:0.5;stroke-linecap:round;stroke-linejoin:round;stroke-miterlimit:10;" d="
						M148.514,96.906c-0.901,0.325-3.264,1.048-6.954,1.265"/>
					
						<path style="fill:none;stroke:#2C4D2B;stroke-width:0.5;stroke-linecap:round;stroke-linejoin:round;stroke-miterlimit:10;" d="
						M148.251,93.174c-1.128,0.229-2.065,0.357-3.779,0.457"/>
					
						<path style="fill:none;stroke:#2C4D2B;stroke-width:0.5;stroke-linecap:round;stroke-linejoin:round;stroke-miterlimit:10;" d="
						M135.346,102.914c0.393,0.928,0.906,2,1.576,3.187"/>
					
						<path style="fill:none;stroke:#2C4D2B;stroke-width:0.5;stroke-linecap:round;stroke-linejoin:round;stroke-miterlimit:10;" d="
						M136.758,97.186c0.402,1.217,1.099,2.958,2.283,5.057"/>
					
						<path style="fill:none;stroke:#2C4D2B;stroke-width:0.5;stroke-linecap:round;stroke-linejoin:round;stroke-miterlimit:10;" d="
						M139.56,93.393c0.412,1.201,1.094,2.85,2.2,4.812"/>
					
						<path style="fill:none;stroke:#2C4D2B;stroke-width:0.5;stroke-linecap:round;stroke-linejoin:round;stroke-miterlimit:10;" d="
						M142.823,90.802c0.333,0.778,0.718,1.548,1.362,2.689"/>
					
						<path style="fill:none;stroke:#2C4D2B;stroke-width:0.5;stroke-linecap:round;stroke-linejoin:round;stroke-miterlimit:10;" d="
						M147.608,89.101c0,0-6.088,7.603-11.897,20.257c0,0-0.332,0.733-0.773,2.089"/>
				</g>
			</g>
			<g>
				<path style="fill:#5E6F3C;" d="M168.094,108.259c0,0-19.159-0.855-16.306-18.697C151.787,89.562,169.808,89.992,168.094,108.259
					z"/>
				<g>
					
						<path style="fill:none;stroke:#2C4D2B;stroke-width:0.5;stroke-linecap:round;stroke-linejoin:round;stroke-miterlimit:10;" d="
						M153.408,99.222c0,0-0.287-2.784,0.948-7.443"/>
					
						<path style="fill:none;stroke:#2C4D2B;stroke-width:0.5;stroke-linecap:round;stroke-linejoin:round;stroke-miterlimit:10;" d="
						M156.43,102.422c0,0-0.287-2.784,0.948-7.443"/>
					
						<path style="fill:none;stroke:#2C4D2B;stroke-width:0.5;stroke-linecap:round;stroke-linejoin:round;stroke-miterlimit:10;" d="
						M159.614,105.615c-0.027-0.957,0.024-3.428,0.971-7.001"/>
					
						<path style="fill:none;stroke:#2C4D2B;stroke-width:0.5;stroke-linecap:round;stroke-linejoin:round;stroke-miterlimit:10;" d="
						M163.241,106.532c0.135-1.143,0.306-2.073,0.746-3.733"/>
					
						<path style="fill:none;stroke:#2C4D2B;stroke-width:0.5;stroke-linecap:round;stroke-linejoin:round;stroke-miterlimit:10;" d="
						M158.022,91.23c-1.004,0.083-2.183,0.236-3.519,0.501"/>
					
						<path style="fill:none;stroke:#2C4D2B;stroke-width:0.5;stroke-linecap:round;stroke-linejoin:round;stroke-miterlimit:10;" d="
						M163.022,94.361c-1.281,0.001-3.153,0.12-5.517,0.588"/>
					
						<path style="fill:none;stroke:#2C4D2B;stroke-width:0.5;stroke-linecap:round;stroke-linejoin:round;stroke-miterlimit:10;" d="
						M165.749,98.208c-1.269,0.017-3.049,0.148-5.259,0.586"/>
					
						<path style="fill:none;stroke:#2C4D2B;stroke-width:0.5;stroke-linecap:round;stroke-linejoin:round;stroke-miterlimit:10;" d="
						M167.191,102.118c-0.842,0.073-1.694,0.198-2.98,0.453"/>
					
						<path style="fill:none;stroke:#2C4D2B;stroke-width:0.5;stroke-linecap:round;stroke-linejoin:round;stroke-miterlimit:10;" d="
						M167.311,107.194c0,0-5.32-8.159-15.524-17.632c0,0-0.593-0.545-1.743-1.388"/>
				</g>
			</g>
			<g>
				<path style="fill:#5E6F3C;" d="M137.471,113.757c0,0,12.757-14.321,24.795-0.845
					C162.266,112.911,150.557,126.617,137.471,113.757z"/>
				<g>
					
						<path style="fill:none;stroke:#2C4D2B;stroke-width:0.5;stroke-linecap:round;stroke-linejoin:round;stroke-miterlimit:10;" d="
						M153.751,108.071c0,0,2.341,1.535,5.175,5.433"/>
					
						<path style="fill:none;stroke:#2C4D2B;stroke-width:0.5;stroke-linecap:round;stroke-linejoin:round;stroke-miterlimit:10;" d="
						M149.361,108.395c0,0,2.341,1.535,5.175,5.433"/>
					
						<path style="fill:none;stroke:#2C4D2B;stroke-width:0.5;stroke-linecap:round;stroke-linejoin:round;stroke-miterlimit:10;" d="
						M144.874,108.849c0.76,0.583,2.643,2.182,4.817,5.173"/>
					
						<path style="fill:none;stroke:#2C4D2B;stroke-width:0.5;stroke-linecap:round;stroke-linejoin:round;stroke-miterlimit:10;" d="
						M141.874,111.083c0.801,0.826,1.415,1.546,2.424,2.935"/>
					
						<path style="fill:none;stroke:#2C4D2B;stroke-width:0.5;stroke-linecap:round;stroke-linejoin:round;stroke-miterlimit:10;" d="
						M157.036,116.694c0.569-0.831,1.195-1.842,1.833-3.046"/>
					
						<path style="fill:none;stroke:#2C4D2B;stroke-width:0.5;stroke-linecap:round;stroke-linejoin:round;stroke-miterlimit:10;" d="
						M151.452,118.595c0.808-0.994,1.898-2.521,3.026-4.65"/>
					
						<path style="fill:none;stroke:#2C4D2B;stroke-width:0.5;stroke-linecap:round;stroke-linejoin:round;stroke-miterlimit:10;" d="
						M146.747,118.283c0.788-0.995,1.81-2.459,2.865-4.449"/>
					
						<path style="fill:none;stroke:#2C4D2B;stroke-width:0.5;stroke-linecap:round;stroke-linejoin:round;stroke-miterlimit:10;" d="
						M142.805,116.933c0.475-0.699,0.915-1.439,1.529-2.597"/>
					
						<path style="fill:none;stroke:#2C4D2B;stroke-width:0.5;stroke-linecap:round;stroke-linejoin:round;stroke-miterlimit:10;" d="
						M138.791,113.822c0,0,9.686,1.024,23.475-0.911c0,0,0.796-0.116,2.176-0.476"/>
				</g>
			</g>
		</g>
	</g>
	<g>
		<path style="fill:#BFCFCD;" d="M137.577,289.769c-1.368,3.055-2.991,5.988-4.858,8.766c-0.502,0.748-1.544,2.966-2.526,2.957
			c-0.492-0.004-1.266-0.677-1.668-0.909c-0.639-0.369-1.281-0.734-1.936-1.075c-4.04-2.096-9.169-3.452-13.221-0.604
			c-2.21,1.553-3.536,4.039-4.894,6.303c-1.583,2.639-3.126,5.303-4.626,7.99c-3.008,5.387-5.837,10.871-8.507,16.432
			l-14.218,22.801l3.316,2.841c0,0,27.068,25.79,39.753,23.313c0.299,0.981,1.796,1.546,2.547,0.426
			c7.902-11.78,15.122-24.011,21.582-36.64c1.537-3.004,3.042-6.026,4.482-9.078c1.219-2.584,2.348-5.253,2.585-8.133
			c0.428-5.198-2.595-9.548-6.316-12.85c-2.143-1.902-4.484-3.532-6.763-5.261c-0.089-0.068-0.652-0.408-0.712-0.565
			c-0.175-0.452,0.268-1.101,0.446-1.502c0.404-0.91,0.814-1.818,1.222-2.727c0.815-1.818,1.629-3.636,2.444-5.454
			c0.397-0.886-0.204-1.521-0.953-1.677l0.095-0.178l-4.766-3.961c0.056-0.124,0.117-0.246,0.173-0.37
			C140.993,288.97,138.31,288.133,137.577,289.769z"/>
		<path style="fill:#C98F63;" d="M98.889,322.277c-5.29,8.167-10.58,16.335-15.87,24.502c-0.284,0.439-0.355,1.169-0.048,1.62
			c3.491,5.12,7.326,10.039,11.362,14.739c5.701,6.64,12.748,14.831,21.312,17.788c7.016,2.422,10.691-1.423,14.249-6.918
			c4.654-7.186,9.309-14.372,13.963-21.558c0.232-0.358,0.295-0.711,0.25-1.036c-0.014-0.46-0.243-0.909-0.787-1.203
			c-14.805-8.011-29.322-16.873-41.854-28.195C100.676,321.301,99.5,321.333,98.889,322.277z"/>
		<g>
			<g id="PdkSUK_3_">
				<g>
					<path style="fill:#5E6F3C;" d="M118.013,344.201c0.513,0.37,1.035,0.729,1.537,1.114c0.377,0.289,0.72,0.619,0.915,1.069
						c0.166,0.386,0.168,0.791,0.129,1.198c-0.056,0.578-0.119,1.156-0.179,1.734c-0.017,0.166-0.006,0.181,0.163,0.199
						c0.37,0.038,0.739,0.075,1.109,0.115c0.041,0.005,0.08,0.033,0.12,0.05c-0.026,0.038-0.043,0.09-0.079,0.114
						c-1.204,0.803-2.41,1.603-3.613,2.408c-0.099,0.066-0.158,0.046-0.23-0.028c-0.617-0.632-1.236-1.263-1.855-1.894
						c-0.392-0.4-0.784-0.798-1.174-1.199c-0.028-0.029-0.036-0.077-0.054-0.115c0.043-0.009,0.087-0.029,0.129-0.025
						c0.374,0.036,0.748,0.074,1.122,0.115c0.105,0.012,0.163-0.018,0.173-0.13c0.116-1.289,0.251-2.576,0.342-3.867
						c0.047-0.663-0.041-1.323-0.274-1.956c-0.011-0.031,0.002-0.07,0.003-0.105c0.042,0.01,0.092,0.008,0.125,0.031
						c0.46,0.328,0.917,0.659,1.375,0.989c0.076,0.055,0.153,0.11,0.229,0.165C118.022,344.189,118.017,344.195,118.013,344.201z"/>
					<path style="fill:#5E6F3C;" d="M111.083,359.968c-0.271-0.195-0.541-0.39-0.812-0.585c-0.136-0.099-0.173-0.096-0.27,0.038
						c-0.216,0.298-0.429,0.597-0.647,0.894c-0.027,0.037-0.076,0.058-0.114,0.086c-0.018-0.044-0.049-0.088-0.052-0.133
						c-0.094-1.446-0.184-2.892-0.278-4.337c-0.007-0.103,0.03-0.143,0.125-0.168c1.399-0.359,2.798-0.721,4.197-1.08
						c0.043-0.011,0.094,0.005,0.141,0.009c-0.016,0.045-0.022,0.097-0.049,0.135c-0.215,0.303-0.432,0.606-0.654,0.905
						c-0.069,0.094-0.059,0.152,0.036,0.22c0.922,0.659,1.833,1.334,2.765,1.978c0.656,0.453,1.362,0.818,2.16,0.968
						c0.029,0.006,0.062,0.004,0.088,0.016c0.027,0.013,0.066,0.037,0.068,0.058c0.002,0.022-0.029,0.059-0.054,0.071
						c-0.177,0.085-0.356,0.166-0.536,0.246c-0.956,0.426-1.91,0.856-2.87,1.273c-0.258,0.112-0.531,0.192-0.802,0.266
						c-0.583,0.16-1.128,0.055-1.626-0.28c-0.277-0.186-0.542-0.388-0.813-0.583C111.084,359.966,111.083,359.967,111.083,359.968z"
						/>
					<path style="fill:#5E6F3C;" d="M104.057,347.152c0.203-0.287,0.479-0.488,0.791-0.635c0.584-0.274,1.174-0.534,1.762-0.799
						c0.186-0.084,0.19-0.088,0.108-0.274c-0.148-0.332-0.298-0.662-0.443-0.995c-0.017-0.04-0.007-0.092-0.009-0.139
						c0.043,0.006,0.091,0.002,0.128,0.021c0.923,0.455,1.844,0.912,2.766,1.368c0.356,0.176,0.711,0.353,1.068,0.528
						c0.187,0.092,0.189,0.091,0.133,0.289c-0.381,1.369-0.762,2.738-1.146,4.107c-0.012,0.044-0.05,0.081-0.076,0.121
						c-0.031-0.036-0.074-0.067-0.092-0.108c-0.155-0.338-0.309-0.676-0.456-1.017c-0.045-0.105-0.102-0.137-0.207-0.088
						c-1.144,0.528-2.294,1.042-3.429,1.589c-0.567,0.273-1.075,0.647-1.508,1.112c-0.044,0.047-0.078,0.102-0.124,0.146
						c-0.027,0.025-0.068,0.035-0.103,0.052c-0.012-0.038-0.036-0.077-0.033-0.113c0.046-0.48,0.092-0.961,0.145-1.441
						c0.089-0.815,0.17-1.631,0.277-2.444C103.687,347.835,103.838,347.456,104.057,347.152z"/>
					<path style="opacity:0.7;fill:#5E6F3C;" d="M107.99,355.125c-0.38,0.527-0.763,1.053-1.138,1.584
						c-0.076,0.108-0.131,0.11-0.233,0.035c-0.872-0.634-1.748-1.26-2.62-1.893c-0.302-0.22-0.56-0.479-0.644-0.863
						c-0.068-0.314,0.014-0.603,0.172-0.872c0.325-0.552,0.808-0.947,1.341-1.278c0.369-0.229,0.765-0.414,1.148-0.62
						c0.079-0.043,0.138-0.028,0.209,0.024c0.956,0.692,1.914,1.382,2.871,2.072c0.131,0.095,0.131,0.095,0.034,0.23
						C108.751,354.07,108.37,354.597,107.99,355.125z"/>
					<path style="opacity:0.7;fill:#5E6F3C;" d="M115.127,342.442c0.378,0.295,0.552,0.653,0.668,1.044
						c0.21,0.706,0.233,1.43,0.191,2.159c-0.006,0.111-0.028,0.221-0.027,0.332c0.001,0.125-0.055,0.186-0.167,0.236
						c-1.065,0.474-2.127,0.954-3.19,1.431c-0.152,0.068-0.153,0.067-0.222-0.085c-0.535-1.191-1.069-2.383-1.608-3.573
						c-0.044-0.097-0.031-0.141,0.067-0.184c0.994-0.444,1.987-0.892,2.98-1.337c0.317-0.142,0.645-0.234,0.994-0.145
						C114.939,342.351,115.057,342.414,115.127,342.442z"/>
					<path style="opacity:0.7;fill:#5E6F3C;" d="M115.608,357.317c-0.343-0.101-0.363-0.33-0.327-0.632
						c0.126-1.082,0.228-2.166,0.334-3.25c0.012-0.123,0.054-0.154,0.175-0.142c1.3,0.136,2.6,0.267,3.9,0.396
						c0.109,0.011,0.147,0.041,0.135,0.157c-0.112,1.07-0.211,2.142-0.333,3.211c-0.028,0.246-0.093,0.5-0.2,0.721
						c-0.206,0.425-0.592,0.581-1.047,0.586c-0.542,0.005-1.045-0.161-1.525-0.391c-0.392-0.188-0.766-0.412-1.148-0.62
						C115.584,357.34,115.596,357.329,115.608,357.317z"/>
				</g>
			</g>
		</g>
		<path style="fill:#5E6F3C;" d="M145.537,292.103c-0.945-0.545-1.891-1.091-2.836-1.637c-0.945-0.546-1.891-1.091-2.836-1.637
			c-1.029-0.594-2.196-1.26-3.294-0.39c-0.802,0.636-1.295,1.754-1.835,2.608c-0.604,0.954-1.208,1.907-1.812,2.861
			c-0.427,0.674-0.199,1.482,0.415,1.943c3.26,2.442,6.812,4.442,10.567,6.016c0.512,0.215,0.974,0.052,1.306-0.269
			c0.453-0.07,0.868-0.353,1.055-0.92c0.349-1.061,0.697-2.123,1.046-3.184c0.312-0.951,0.91-2.108,0.658-3.131
			C147.679,293.174,146.502,292.66,145.537,292.103z"/>
		<path style="fill:#BFCFCD;" d="M85.792,323.435c-3.298-0.139-6.234,1.534-9.342,2.342c-1.645,0.427-3.362,0.575-4.877-0.342
			c-2.072-1.253-3.589-3.668-4.995-5.587c-1.538-2.099-2.952-4.279-4.276-6.518c-0.867-1.468-3.158-0.421-2.624,1.016l-7.339,2.054
			c-0.143-0.173-0.292-0.345-0.434-0.519c-1.145-1.404-3.24,0.47-2.099,1.868c3.156,3.867,6.57,7.632,9.473,11.693
			c1.154,1.614,2.275,3.627,1.852,5.684c-0.441,2.146-2.238,3.827-3.543,5.483c-5.875,7.455-1.155,17.114,2.942,24.258
			c5.008,8.731,11.009,16.973,16.739,25.239c3.022,4.359,6.076,8.697,9.163,13.011c1.543,2.157,3.095,4.308,4.654,6.454
			c1.449,1.994,2.837,4.113,4.619,5.832c6.641,6.405,15.716,2.361,22.649-1.336c7.511-4.005,14.962-10.848,14.004-20.162
			c-0.442-4.296-2.638-8.165-4.646-11.899c-2.41-4.481-4.834-8.955-7.311-13.4c-4.902-8.796-10.014-17.484-15.618-25.853
			c-2.435-3.637-4.973-7.204-7.607-10.699l-1.835-2.424C92.905,326.586,89.899,323.608,85.792,323.435z"/>
		<path style="fill:#5E6F3C;" d="M58.362,308.81c-1.459,0.226-2.839,1.001-4.168,1.604c-1.533,0.696-3.088,1.355-4.602,2.091
			c-3.801,1.846-1.831,6.689,0.183,9.17c0.431,0.532,0.999,0.594,1.476,0.391c0.529,0.601,1.45,0.647,2.205,0.319
			c1.487-0.646,2.926-1.456,4.33-2.264c1.408-0.811,2.784-1.679,4.122-2.601c1.184-0.815,1.935-2.077,2.108-3.506
			C64.402,310.826,61.413,308.338,58.362,308.81z"/>
		<path style="fill:#E0AD83;" d="M104.996,345.981c-12.276,9.852-26.018,17.492-40.873,22.699c-0.867,0.304-1.719,1.413-1.056,2.353
			c7.181,10.158,14.361,20.315,21.541,30.473c0.538,0.761,1.317,1.062,2.205,0.667c13.812-6.154,26.444-14.169,37.926-24.003
			c0.331-0.284,0.49-0.611,0.532-0.94c0.009-0.054,0.012-0.109,0.014-0.165c0-0.017,0.001-0.035,0.001-0.052
			c0.002-0.254-0.06-0.524-0.223-0.802c-5.839-9.936-11.679-19.873-17.518-29.809C106.981,345.443,105.832,345.31,104.996,345.981z"
			/>
		<path style="fill:#FFFFFF;" d="M52.61,320.525c-1.047-1.621-1.839-3.359-2.364-5.217c-0.142-0.504-0.934-0.316-0.792,0.19
			c0.543,1.923,1.353,3.733,2.438,5.412C52.175,321.348,52.894,320.965,52.61,320.525L52.61,320.525z"/>
		<path style="fill:#FFFFFF;" d="M55.123,318.624c-0.004,0.012-0.008,0.025-0.012,0.037c-0.07,0.214,0.075,0.437,0.278,0.504
			c0.017,0.006,0.034,0.011,0.051,0.017c0.208,0.068,0.445-0.073,0.504-0.278c0.175-0.613-0.627-1.569-0.875-2.1
			c-0.532-1.146-0.984-2.322-1.373-3.524c-0.16-0.496-0.953-0.31-0.792,0.19c0.288,0.891,0.607,1.772,0.969,2.636
			c0.174,0.416,0.358,0.828,0.55,1.236c0.071,0.15,0.768,1.236,0.739,1.337c0.168-0.093,0.336-0.186,0.504-0.278
			c-0.017-0.005-0.034-0.011-0.051-0.017c0.093,0.168,0.185,0.336,0.278,0.504c0.004-0.012,0.008-0.025,0.012-0.037
			C56.067,318.352,55.285,318.125,55.123,318.624L55.123,318.624z"/>
		<path style="fill:#FFFFFF;" d="M58.829,316.96c-0.933-1.541-1.843-3.095-2.732-4.661c-0.259-0.456-0.977-0.072-0.718,0.384
			c0.889,1.567,1.799,3.12,2.732,4.661C58.382,317.792,59.101,317.409,58.829,316.96L58.829,316.96z"/>
		<path style="fill:#FFFFFF;" d="M61.777,315.172c-0.847-1.616-1.635-3.26-2.363-4.932c-0.21-0.482-0.926-0.093-0.718,0.384
			c0.728,1.673,1.515,3.317,2.363,4.932C61.303,316.021,62.02,315.636,61.777,315.172L61.777,315.172z"/>
		<path style="fill:#FFFFFF;" d="M144.105,300.595c0.876-2.038,1.752-4.075,2.628-6.113c0.206-0.479-0.578-0.702-0.783-0.226
			c-0.876,2.038-1.752,4.076-2.628,6.113C143.117,300.848,143.9,301.071,144.105,300.595L144.105,300.595z"/>
		<path style="fill:#FFFFFF;" d="M140.909,298.874c1.243-1.628,2.166-3.408,2.795-5.356c0.161-0.498-0.621-0.725-0.782-0.226
			c-0.607,1.881-1.509,3.587-2.707,5.156C139.897,298.865,140.594,299.287,140.909,298.874L140.909,298.874z"/>
		<path style="fill:#FFFFFF;" d="M137.949,296.948c1.295-1.701,2.348-3.519,3.201-5.478c0.208-0.478-0.576-0.701-0.783-0.226
			c-0.823,1.889-1.865,3.64-3.112,5.278C136.938,296.939,137.634,297.361,137.949,296.948L137.949,296.948z"/>
		<path style="fill:#FFFFFF;" d="M134.76,295.018c1.284-1.553,2.447-3.182,3.485-4.91c0.27-0.449-0.424-0.875-0.694-0.426
			c-1,1.664-2.11,3.244-3.347,4.74C133.874,294.822,134.427,295.421,134.76,295.018L134.76,295.018z"/>
		<g>
			<path style="fill:#96C4D3;" d="M63.963,365.375c0.04,0.103,0.081,0.205,0.121,0.308c-1.811-2.694-3.354-5.568-4.596-8.566"/>
		</g>
		<path style="fill:#FCFAFC;" d="M64.631,364.747c-3.19-6.473-7.881-14.367-2.909-21.187c0.617-0.847-0.774-1.694-1.388-0.851
			c-5.35,7.34-0.584,15.816,2.862,22.808C63.66,366.458,65.094,365.685,64.631,364.747L64.631,364.747z"/>
		<path style="fill:#FCFAFC;" d="M61.843,339.527c-0.026,0.04-0.051,0.079-0.077,0.119c-0.57,0.88,0.818,1.73,1.388,0.851
			c0.026-0.04,0.051-0.08,0.077-0.119C63.802,339.498,62.414,338.648,61.843,339.527L61.843,339.527z"/>
		<path style="fill:#FCFAFC;" d="M99.328,414.483c5.295,3.887,11.207,0.593,16.276-2.111c5.731-3.057,12.307-6.615,13.831-13.44
			c0.227-1.017-1.336-1.478-1.565-0.452c-1.736,7.777-20.195,20.117-27.691,14.614C99.334,412.474,98.488,413.866,99.328,414.483
			L99.328,414.483z"/>
		<path style="fill:#FCFAFC;" d="M104.595,320.768c3.797-7.739,9.052-25.352,20.748-18.074c0.89,0.553,1.742-0.834,0.851-1.388
			c-13.058-8.124-18.734,9.942-22.988,18.611C102.749,320.85,104.133,321.71,104.595,320.768L104.595,320.768z"/>
		<path style="fill:#FCFAFC;" d="M127.798,302.966c-0.042,0.065-0.084,0.13-0.126,0.195c-0.57,0.88,0.819,1.731,1.388,0.851
			c0.042-0.065,0.084-0.13,0.126-0.195C129.756,302.938,128.368,302.087,127.798,302.966L127.798,302.966z"/>
		<path style="fill:#FCFAFC;" d="M143.766,346.781c1.636-3.011,3.272-6.022,4.908-9.033c0.499-0.917-0.887-1.774-1.388-0.851
			c-1.636,3.011-3.272,6.022-4.908,9.033C141.879,346.848,143.264,347.704,143.766,346.781L143.766,346.781z"/>
		<g>
			<g id="PdkSUK_2_">
				<g>
					<path style="fill:#5E6F3C;" d="M90.836,367.306c0.529-0.347,1.051-0.706,1.589-1.039c0.404-0.249,0.835-0.452,1.325-0.473
						c0.42-0.018,0.799,0.125,1.165,0.307c0.52,0.258,1.037,0.524,1.556,0.786c0.149,0.076,0.167,0.07,0.244-0.082
						c0.168-0.332,0.333-0.664,0.503-0.995c0.019-0.037,0.06-0.063,0.09-0.094c0.027,0.038,0.069,0.072,0.078,0.114
						c0.321,1.411,0.637,2.823,0.96,4.234c0.027,0.116-0.013,0.164-0.108,0.205c-0.811,0.351-1.621,0.704-2.432,1.057
						c-0.513,0.223-1.025,0.448-1.539,0.669c-0.037,0.016-0.084,0.006-0.127,0.009c0.007-0.043,0.004-0.092,0.023-0.13
						c0.167-0.337,0.336-0.672,0.508-1.007c0.048-0.094,0.041-0.159-0.06-0.208c-1.163-0.568-2.317-1.154-3.49-1.699
						c-0.603-0.28-1.251-0.434-1.925-0.442c-0.033,0-0.065-0.026-0.097-0.04c0.024-0.036,0.04-0.083,0.073-0.105
						c0.47-0.313,0.943-0.621,1.415-0.931c0.079-0.052,0.157-0.103,0.236-0.155C90.828,367.293,90.832,367.299,90.836,367.306z"/>
					<path style="fill:#5E6F3C;" d="M103.092,379.406c-0.279,0.183-0.557,0.367-0.836,0.549c-0.141,0.092-0.152,0.127-0.061,0.266
						c0.201,0.308,0.405,0.614,0.604,0.924c0.025,0.039,0.027,0.091,0.04,0.138c-0.048,0.001-0.099,0.014-0.143,0.001
						c-1.384-0.428-2.767-0.86-4.151-1.288c-0.098-0.03-0.123-0.079-0.112-0.177c0.164-1.435,0.325-2.871,0.489-4.306
						c0.005-0.044,0.039-0.086,0.059-0.128c0.037,0.031,0.083,0.056,0.108,0.094c0.207,0.309,0.412,0.62,0.612,0.934
						c0.063,0.098,0.121,0.109,0.218,0.045c0.945-0.626,1.9-1.236,2.834-1.877c0.657-0.452,1.25-0.981,1.675-1.672
						c0.016-0.025,0.026-0.056,0.047-0.076c0.022-0.021,0.058-0.048,0.079-0.042c0.021,0.006,0.044,0.048,0.046,0.076
						c0.016,0.196,0.028,0.392,0.038,0.588c0.057,1.045,0.118,2.09,0.165,3.135c0.013,0.28-0.01,0.564-0.037,0.844
						c-0.058,0.602-0.351,1.073-0.842,1.419c-0.273,0.192-0.556,0.368-0.835,0.551C103.091,379.403,103.092,379.405,103.092,379.406
						z"/>
					<path style="fill:#5E6F3C;" d="M88.613,381.395c-0.196-0.292-0.285-0.622-0.31-0.965c-0.048-0.643-0.08-1.287-0.118-1.931
						c-0.012-0.204-0.015-0.209-0.218-0.198c-0.363,0.02-0.725,0.042-1.088,0.059c-0.043,0.002-0.089-0.027-0.133-0.041
						c0.021-0.038,0.035-0.084,0.065-0.112c0.754-0.7,1.51-1.397,2.265-2.095c0.292-0.27,0.583-0.539,0.874-0.809
						c0.153-0.142,0.153-0.144,0.318-0.021c1.143,0.844,2.286,1.689,3.428,2.536c0.037,0.027,0.058,0.075,0.086,0.114
						c-0.045,0.017-0.089,0.045-0.134,0.048c-0.371,0.024-0.742,0.047-1.113,0.063c-0.115,0.005-0.164,0.046-0.156,0.161
						c0.085,1.257,0.155,2.515,0.261,3.77c0.053,0.627,0.221,1.235,0.501,1.805c0.028,0.057,0.068,0.11,0.092,0.168
						c0.014,0.034,0.008,0.077,0.012,0.115c-0.039-0.003-0.085,0.007-0.117-0.009c-0.433-0.214-0.865-0.429-1.294-0.649
						c-0.73-0.374-1.464-0.741-2.185-1.13C89.119,381.985,88.818,381.709,88.613,381.395z"/>
					<path style="opacity:0.7;fill:#5E6F3C;" d="M97.464,380.566c0.357,0.543,0.711,1.089,1.073,1.628
						c0.074,0.11,0.056,0.161-0.05,0.231c-0.903,0.588-1.801,1.183-2.704,1.772c-0.313,0.204-0.647,0.353-1.036,0.293
						c-0.318-0.049-0.558-0.228-0.753-0.472c-0.4-0.501-0.596-1.093-0.715-1.709c-0.082-0.426-0.113-0.863-0.17-1.294
						c-0.012-0.089,0.024-0.139,0.097-0.187c0.988-0.646,1.974-1.294,2.96-1.942c0.135-0.089,0.135-0.089,0.227,0.05
						C96.75,379.479,97.107,380.023,97.464,380.566z"/>
					<path style="opacity:0.7;fill:#5E6F3C;" d="M88.163,369.374c0.411-0.248,0.807-0.283,1.213-0.252
						c0.735,0.055,1.419,0.292,2.085,0.592c0.101,0.045,0.197,0.105,0.3,0.144c0.117,0.044,0.154,0.118,0.16,0.241
						c0.063,1.164,0.132,2.327,0.199,3.491c0.009,0.166,0.008,0.167-0.159,0.177c-1.304,0.075-2.608,0.149-3.912,0.227
						c-0.106,0.006-0.142-0.021-0.148-0.128c-0.06-1.087-0.124-2.174-0.186-3.261c-0.02-0.347,0.012-0.686,0.219-0.981
						C88.011,369.517,88.112,369.429,88.163,369.374z"/>
					<path style="opacity:0.7;fill:#5E6F3C;" d="M102.23,374.232c-0.216,0.284-0.438,0.221-0.707,0.081
						c-0.965-0.504-1.942-0.986-2.917-1.471c-0.111-0.055-0.125-0.105-0.07-0.214c0.591-1.166,1.177-2.333,1.761-3.502
						c0.049-0.098,0.091-0.123,0.195-0.07c0.96,0.487,1.925,0.962,2.881,1.457c0.22,0.114,0.433,0.265,0.602,0.444
						c0.324,0.344,0.332,0.76,0.174,1.187c-0.188,0.509-0.523,0.919-0.91,1.285c-0.315,0.299-0.659,0.569-0.989,0.852
						C102.244,374.263,102.237,374.247,102.23,374.232z"/>
				</g>
			</g>
		</g>
	</g>
	<g>
		<g>
			<path style="fill:#C98F63;" d="M407.581,102.891l-68.986,12.27l-17.61-33.683c0,0,7.561-8.357,23.44-8.752
				c21.351-0.531,21.357,0.007,21.357,0.007l-21.357-0.007l58.787,1.9L407.581,102.891z"/>
			<path style="fill:#C98F63;stroke:#000000;stroke-width:0.5;stroke-miterlimit:10;" d="M328.965,76.35
				c-11.058,4.657-16.589,15.545-15.187,24.91c0.748,4.998,3.237,10.046,7.7,12.415c2.045,1.086,4.359,1.541,6.647,1.893
				c3.492,0.536,7.165,0.843,10.47-0.407c6.635-2.509,9.54-10.276,10.522-17.302c0.583-4.168,0.667-8.765-1.795-12.177
				c-1.669-2.313-4.325-3.762-7.078-4.508c-5.517-1.496-11.814-0.241-16.03,3.618c-4.216,3.86-6.003,10.318-3.946,15.651
				c2.058,5.333,8.062,8.972,13.678,7.91c2.85-0.539,5.501-2.227,7.041-4.684c2.06-3.286,1.887-7.826-0.417-10.946
				c-2.304-3.12-6.591-4.622-10.338-3.621c-1.152,0.308-2.291,0.865-2.999,1.825c-1.256,1.703-0.7,4.343,0.95,5.668
				c1.65,1.325,4.083,1.407,6.006,0.522"/>
			<path style="fill:#E0AD83;" d="M335.296,73.93c7.208,0.035,11.48,2.024,14.969,5.611c2.276,2.34,3.489,3.783,7.307,10.741
				c1.549,2.823,2.82,5.782,3.997,8.779c2.645,6.737,5.626,13.342,8.928,19.783c1.673,3.264,3.496,6.569,6.312,8.92
				c6.102,5.094,14.996,4.419,22.888,3.469l49.607-8.752c-6.286-1.846-12.32-4.552-17.88-8.019
				c-3.805-2.372-7.535-5.277-9.366-9.369c-2.154-4.815-1.317-10.358-1.574-15.626c-0.291-5.983-2.202-12.1-6.417-16.357
				c-4.215-4.257-16.461-3.757-16.461-3.757s-31.408,0.735-56.505,3.405C339.592,72.919,335.296,73.93,335.296,73.93z"/>
		</g>
		<g>
			<g>
				<g>
					<polygon style="fill:#E0AD83;" points="298.486,120.787 310.587,87.696 304.556,73.12 291.217,80.325 278.645,113.708 					"/>
					<path style="fill:#FFFFFF;" d="M299.898,80.56c0.201,1.185,1.325,1.983,2.51,1.781c1.185-0.201,1.983-1.325,1.781-2.51
						c-0.201-1.185-1.325-1.983-2.51-1.781C300.495,78.251,299.697,79.374,299.898,80.56z"/>
				</g>
				<path style="fill:none;stroke:#000000;stroke-width:0.5;stroke-linecap:round;stroke-linejoin:round;stroke-miterlimit:10;" d="
					M337.078,75.085c-2.799-10.81-11.896-12.328-18.262-11.085C306.392,66.425,302.3,78.88,302.3,78.88"/>
			</g>
			<g>
				<g>
					<path style="fill:#5E6F3C;" d="M295.9,92.836c0,0-0.463,7.972-7.875,6.684C288.025,99.52,288.305,92.02,295.9,92.836z"/>
					<g>
						
							<path style="fill:none;stroke:#2C4D2B;stroke-width:0.5;stroke-linecap:round;stroke-linejoin:round;stroke-miterlimit:10;" d="
							M292.055,98.899c0,0-1.161,0.104-3.094-0.436"/>
						
							<path style="fill:none;stroke:#2C4D2B;stroke-width:0.5;stroke-linecap:round;stroke-linejoin:round;stroke-miterlimit:10;" d="
							M293.404,97.659c0,0-1.161,0.104-3.094-0.436"/>
						
							<path style="fill:none;stroke:#2C4D2B;stroke-width:0.5;stroke-linecap:round;stroke-linejoin:round;stroke-miterlimit:10;" d="
							M294.752,96.351c-0.399,0.006-1.427-0.029-2.909-0.444"/>
						
							<path style="fill:none;stroke:#2C4D2B;stroke-width:0.5;stroke-linecap:round;stroke-linejoin:round;stroke-miterlimit:10;" d="
							M295.154,94.846c-0.475-0.063-0.861-0.139-1.55-0.332"/>
						
							<path style="fill:none;stroke:#2C4D2B;stroke-width:0.5;stroke-linecap:round;stroke-linejoin:round;stroke-miterlimit:10;" d="
							M288.754,96.933c0.029,0.418,0.086,0.91,0.189,1.468"/>
						
							<path style="fill:none;stroke:#2C4D2B;stroke-width:0.5;stroke-linecap:round;stroke-linejoin:round;stroke-miterlimit:10;" d="
							M290.086,94.869c-0.007,0.533,0.032,1.313,0.214,2.3"/>
						
							<path style="fill:none;stroke:#2C4D2B;stroke-width:0.5;stroke-linecap:round;stroke-linejoin:round;stroke-miterlimit:10;" d="
							M291.702,93.756c0,0.529,0.045,1.27,0.215,2.193"/>
						
							<path style="fill:none;stroke:#2C4D2B;stroke-width:0.5;stroke-linecap:round;stroke-linejoin:round;stroke-miterlimit:10;" d="
							M293.338,93.177c0.026,0.351,0.073,0.706,0.172,1.243"/>
						
							<path style="fill:none;stroke:#2C4D2B;stroke-width:0.5;stroke-linecap:round;stroke-linejoin:round;stroke-miterlimit:10;" d="
							M295.452,93.156c0,0-3.427,2.169-7.428,6.364c0,0-0.23,0.244-0.587,0.718"/>
					</g>
				</g>
				<g>
					<path style="fill:#5E6F3C;" d="M300.924,103.473c0,0-7.428-2.931-3.888-9.57C297.035,93.903,304.073,96.513,300.924,103.473z"
						/>
					<g>
						
							<path style="fill:none;stroke:#2C4D2B;stroke-width:0.5;stroke-linecap:round;stroke-linejoin:round;stroke-miterlimit:10;" d="
							M296.365,97.926c0,0,0.264-1.135,1.381-2.802"/>
						
							<path style="fill:none;stroke:#2C4D2B;stroke-width:0.5;stroke-linecap:round;stroke-linejoin:round;stroke-miterlimit:10;" d="
							M297.122,99.595c0,0,0.264-1.135,1.381-2.802"/>
						
							<path style="fill:none;stroke:#2C4D2B;stroke-width:0.5;stroke-linecap:round;stroke-linejoin:round;stroke-miterlimit:10;" d="
							M297.943,101.284c0.119-0.381,0.474-1.346,1.331-2.625"/>
						
							<path style="fill:none;stroke:#2C4D2B;stroke-width:0.5;stroke-linecap:round;stroke-linejoin:round;stroke-miterlimit:10;" d="
							M299.247,102.136c0.208-0.432,0.401-0.775,0.799-1.369"/>
						
							<path style="fill:none;stroke:#2C4D2B;stroke-width:0.5;stroke-linecap:round;stroke-linejoin:round;stroke-miterlimit:10;" d="
							M299.265,95.404c-0.407-0.103-0.892-0.203-1.453-0.279"/>
						
							<path style="fill:none;stroke:#2C4D2B;stroke-width:0.5;stroke-linecap:round;stroke-linejoin:round;stroke-miterlimit:10;" d="
							M300.809,97.314c-0.505-0.173-1.258-0.38-2.252-0.516"/>
						
							<path style="fill:none;stroke:#2C4D2B;stroke-width:0.5;stroke-linecap:round;stroke-linejoin:round;stroke-miterlimit:10;" d="
							M301.362,99.198c-0.502-0.165-1.221-0.355-2.15-0.481"/>
						
							<path style="fill:none;stroke:#2C4D2B;stroke-width:0.5;stroke-linecap:round;stroke-linejoin:round;stroke-miterlimit:10;" d="
							M301.4,100.933c-0.342-0.085-0.694-0.151-1.234-0.225"/>
						
							<path style="fill:none;stroke:#2C4D2B;stroke-width:0.5;stroke-linecap:round;stroke-linejoin:round;stroke-miterlimit:10;" d="
							M300.76,102.948c0,0-0.99-3.933-3.724-9.045c0,0-0.16-0.295-0.498-0.782"/>
					</g>
				</g>
				<g>
					<path style="fill:#5E6F3C;" d="M288.122,101.49c0,0,6.962-3.911,9.877,3.025C297.999,104.515,291.533,108.326,288.122,101.49z"
						/>
					<g>
						
							<path style="fill:none;stroke:#2C4D2B;stroke-width:0.5;stroke-linecap:round;stroke-linejoin:round;stroke-miterlimit:10;" d="
							M295.302,101.456c0,0,0.714,0.921,1.302,2.84"/>
						
							<path style="fill:none;stroke:#2C4D2B;stroke-width:0.5;stroke-linecap:round;stroke-linejoin:round;stroke-miterlimit:10;" d="
							M293.53,100.989c0,0,0.714,0.921,1.302,2.84"/>
						
							<path style="fill:none;stroke:#2C4D2B;stroke-width:0.5;stroke-linecap:round;stroke-linejoin:round;stroke-miterlimit:10;" d="
							M291.702,100.561c0.22,0.332,0.745,1.217,1.196,2.689"/>
						
							<path style="fill:none;stroke:#2C4D2B;stroke-width:0.5;stroke-linecap:round;stroke-linejoin:round;stroke-miterlimit:10;" d="
							M290.218,101.034c0.203,0.434,0.348,0.8,0.557,1.484"/>
						
							<path style="fill:none;stroke:#2C4D2B;stroke-width:0.5;stroke-linecap:round;stroke-linejoin:round;stroke-miterlimit:10;" d="
							M295.428,105.297c0.337-0.25,0.72-0.564,1.134-0.951"/>
						
							<path style="fill:none;stroke:#2C4D2B;stroke-width:0.5;stroke-linecap:round;stroke-linejoin:round;stroke-miterlimit:10;" d="
							M292.971,105.289c0.453-0.282,1.089-0.736,1.821-1.421"/>
						
							<path style="fill:none;stroke:#2C4D2B;stroke-width:0.5;stroke-linecap:round;stroke-linejoin:round;stroke-miterlimit:10;" d="
							M291.161,104.529c0.445-0.285,1.046-0.723,1.73-1.364"/>
						
							<path style="fill:none;stroke:#2C4D2B;stroke-width:0.5;stroke-linecap:round;stroke-linejoin:round;stroke-miterlimit:10;" d="
							M289.792,103.463c0.282-0.211,0.555-0.443,0.954-0.815"/>
						
							<path style="fill:none;stroke:#2C4D2B;stroke-width:0.5;stroke-linecap:round;stroke-linejoin:round;stroke-miterlimit:10;" d="
							M288.633,101.695c0,0,3.675,1.715,9.366,2.821c0,0,0.329,0.062,0.921,0.107"/>
					</g>
				</g>
			</g>
		</g>
	</g>
	<g>
		<polygon style="fill:#B5B53D;" points="386.364,338.013 389.329,368.646 403.792,347.806 398.834,319.833 		"/>
		<polygon points="365.959,416.891 388.901,367.437 403.703,347.934 381.217,399.613 		"/>
		<g>
			<path style="fill:#E69743;" d="M389.636,417.49c-9.884-6.328-42.449-26.067-79.373-36.429c-1.836-0.515-2.904-2.44-2.328-4.285
				c1.661-5.32,6.403-17.298,19.68-38.962c0.635-1.037,1.764-1.667,2.966-1.648c7.137,0.114,43.61,4.966,78.446,34.374
				c1.064,0.898,1.049,3.786,0.688,5.148c-1.634,6.16-6.726,23.872-15.232,40.441C393.56,417.929,391.318,418.567,389.636,417.49z"
				/>
			<g>
				<g>
					<path style="fill:#F2E05A;" d="M343.517,348.832c0.89-2.18,3.074-3.479,5.172-2.863c2.087,0.613,2.981,2.796,2.08,5
						c-0.9,2.211-3.109,3.255-5.189,2.627C343.488,352.964,342.627,351.014,343.517,348.832z M349.209,350.449
						c0.572-1.403,0.071-2.664-1.114-3.012c-1.185-0.348-2.463,0.39-3.033,1.788c-0.57,1.398-0.073,2.579,1.109,2.933
						C347.353,352.51,348.638,351.854,349.209,350.449z"/>
					<path style="fill:#F2E05A;" d="M354.672,356.686c-0.149-0.856-0.297-1.71-0.446-2.562c-0.025-0.01-0.051-0.02-0.076-0.029
						c-0.448-0.175-0.896-0.347-1.344-0.515c-0.281,0.684-0.561,1.367-0.841,2.048c-0.514-0.194-1.028-0.383-1.542-0.568
						c1.005-2.443,2.011-4.911,3.018-7.393c0.963,0.345,1.928,0.708,2.893,1.088c1.787,0.704,2.487,2.217,1.807,3.871
						c-0.455,1.108-1.295,1.704-2.333,1.762c0.175,0.992,0.351,1.987,0.526,2.983C355.78,357.138,355.226,356.909,354.672,356.686z
						 M355.677,350.12c-0.42-0.164-0.841-0.325-1.261-0.483c-0.351,0.862-0.702,1.723-1.053,2.581c0.42,0.158,0.84,0.318,1.26,0.482
						c0.944,0.37,1.621,0.08,1.95-0.723C356.906,351.164,356.623,350.491,355.677,350.12z"/>
					<path style="fill:#F2E05A;" d="M363.523,356.082c0.472,0.221,0.944,0.445,1.417,0.671c-0.411,0.988-0.823,1.976-1.234,2.965
						c-0.99,0.256-2.137,0.107-3.094-0.327c-2.103-0.957-2.997-3.19-2.083-5.414c0.913-2.223,3.121-3.16,5.258-2.16
						c1.177,0.549,1.972,1.46,2.279,2.597c-0.471,0.173-0.943,0.347-1.414,0.524c-0.253-0.796-0.71-1.325-1.39-1.64
						c-1.302-0.605-2.588-0.04-3.164,1.36c-0.568,1.379-0.083,2.742,1.2,3.326c0.421,0.192,0.847,0.289,1.335,0.242
						C362.929,357.512,363.226,356.797,363.523,356.082z"/>
					<path style="fill:#F2E05A;" d="M369.866,361.828c-1.035-0.524-2.07-1.041-3.106-1.55c-0.415,0.422-0.83,0.846-1.245,1.271
						c-0.529-0.257-1.058-0.511-1.588-0.763c2.008-1.961,4.019-3.904,6.032-5.797c0.51,0.261,1.021,0.524,1.531,0.789
						c-0.02,2.907-0.041,5.813-0.061,8.72c-0.541-0.276-1.082-0.55-1.623-0.823C369.825,363.06,369.845,362.444,369.866,361.828z
						 M369.914,360.313c0.036-1.101,0.071-2.201,0.107-3.302c-0.743,0.74-1.487,1.485-2.229,2.236
						C368.499,359.599,369.207,359.955,369.914,360.313z"/>
					<path style="fill:#F2E05A;" d="M381.299,361.075c-1.016,2.284-2.033,4.604-3.05,6.951c-0.422-0.22-0.844-0.44-1.267-0.66
						c-0.491-2.008-0.983-4.024-1.476-6.044c-0.618,1.432-1.236,2.872-1.854,4.32c-0.509-0.263-1.017-0.524-1.526-0.785
						c1.016-2.395,2.034-4.774,3.052-7.127c0.426,0.229,0.853,0.459,1.279,0.69c0.489,2.021,0.977,4.036,1.465,6.043
						c0.618-1.421,1.235-2.831,1.853-4.229C380.284,360.513,380.791,360.794,381.299,361.075z"/>
					<path style="fill:#F2E05A;" d="M382.88,361.952c0.513,0.286,1.027,0.572,1.54,0.857c-1.014,2.241-2.03,4.525-3.046,6.842
						c-0.514-0.267-1.028-0.534-1.542-0.802C380.848,366.517,381.865,364.215,382.88,361.952z"/>
					<path style="fill:#F2E05A;" d="M384.057,366.824c0.919-2.058,3.113-2.632,5.18-1.48c1.148,0.636,1.915,1.565,2.195,2.634
						c-0.467,0.117-0.933,0.238-1.4,0.36c-0.214-0.74-0.652-1.304-1.315-1.665c-1.243-0.678-2.525-0.29-3.1,0.984
						c-0.574,1.274-0.088,2.635,1.157,3.274c0.665,0.343,1.347,0.36,2.032,0.068c0.191,0.473,0.381,0.944,0.572,1.414
						c-0.978,0.451-2.13,0.398-3.29-0.192C384.024,371.18,383.14,368.879,384.057,366.824z"/>
					<path style="fill:#F2E05A;" d="M346.533,367.057c0.35-0.34,0.699-0.682,1.049-1.026c0.376,0.656,1.085,1.3,1.883,1.632
						c0.914,0.382,1.425,0.217,1.609-0.223c0.564-1.363-3.698-2.013-2.576-4.648c0.514-1.216,1.852-1.906,3.748-1.14
						c0.839,0.34,1.607,0.918,2.05,1.607c-0.336,0.358-0.672,0.715-1.008,1.072c-0.46-0.646-1.022-1.097-1.612-1.337
						c-0.915-0.371-1.423-0.137-1.612,0.315c-0.557,1.303,3.705,2.007,2.597,4.667c-0.505,1.205-1.862,1.806-3.766,1.002
						C347.838,368.533,346.915,367.771,346.533,367.057z"/>
					<path style="fill:#F2E05A;" d="M353.926,366.763c0.897-2.144,3.109-3.089,5.221-2.123c2.102,0.963,2.995,3.309,2.09,5.478
						c-0.905,2.174-3.122,3.002-5.221,2.022C353.908,371.156,353.029,368.907,353.926,366.763z M359.671,369.377
						c0.575-1.381,0.071-2.752-1.122-3.299c-1.194-0.547-2.484,0.002-3.059,1.378c-0.575,1.375-0.071,2.712,1.122,3.265
						C357.805,371.273,359.095,370.758,359.671,369.377z"/>
					<path style="fill:#F2E05A;" d="M365.933,374.905c-1.033-0.51-2.066-1.018-3.099-1.521c-0.414,0.423-0.827,0.845-1.241,1.267
						c-0.528-0.257-1.055-0.512-1.583-0.766c2.001-1.936,4.005-3.887,6.012-5.824c0.509,0.25,1.018,0.501,1.527,0.753
						c-0.018,2.915-0.035,5.829-0.053,8.744c-0.54-0.268-1.08-0.535-1.621-0.803C365.894,376.139,365.913,375.522,365.933,374.905z
						 M365.981,373.389c0.035-1.102,0.069-2.204,0.104-3.306c-0.741,0.755-1.482,1.511-2.222,2.267
						C364.569,372.694,365.275,373.041,365.981,373.389z"/>
					<path style="fill:#F2E05A;" d="M375.912,376.168c-0.68,1.597-2.215,2.05-3.996,1.167c-0.448-0.222-0.896-0.445-1.344-0.667
						c-0.28,0.666-0.559,1.332-0.838,1.999c-0.515-0.255-1.029-0.51-1.544-0.765c1.012-2.421,2.026-4.84,3.041-7.248
						c0.964,0.485,1.927,0.971,2.89,1.458C375.904,373.015,376.595,374.562,375.912,376.168z M374.35,375.389
						c0.335-0.791,0.054-1.492-0.889-1.965c-0.419-0.21-0.839-0.421-1.258-0.632c-0.352,0.835-0.705,1.672-1.057,2.509
						c0.419,0.209,0.839,0.418,1.258,0.626C373.347,376.398,374.018,376.171,374.35,375.389z"/>
				</g>
			</g>
			<path style="fill:none;stroke:#000000;stroke-width:0.5;stroke-miterlimit:10;" d="M312.497,377.108
				c0,0,11.506-9.213,15.332-7.472c3.826,1.741,18.174,8.272,35.073,15.963c16.899,7.691,22.196,10.006,24.949,12.414
				c2.753,2.408,3.536,16.332,3.536,16.332"/>
		</g>
		<g>
			<path style="fill:#C98F63;" d="M365.959,416.891c0,0,41.482,36.376,50.462,46.607c6.026,6.866,7.434,3.376,11.842-0.548
				c4.612-4.106,20.303-29.26,22.03-33.499c2.007-4.926-5.971-15.958-9.14-20.235c-14.135-19.08-38.586-45.514-38.586-45.514
				L365.959,416.891z"/>
			<path style="fill:#E0AD83;" d="M378.43,398.711c0,0,40.896,39.698,51.031,48.788c6.801,6.1,7.783,2.467,11.692-1.954
				c4.09-4.626,17.706-31.645,18.915-36.059c1.406-5.129-8.861-14.958-12.516-18.827c-16.306-17.261-43.849-42.724-43.849-42.724
				L378.43,398.711z"/>
			<g>
				<g id="PdkSUK_4_">
					<g>
						<path style="fill:#5E6F3C;" d="M415.725,448.331c0.301-0.335,0.596-0.678,0.906-1.004c0.234-0.245,0.493-0.463,0.828-0.567
							c0.286-0.089,0.573-0.059,0.859,0c0.405,0.084,0.81,0.173,1.215,0.259c0.116,0.025,0.128,0.018,0.153-0.1
							c0.055-0.259,0.109-0.518,0.166-0.777c0.007-0.029,0.03-0.054,0.045-0.081c0.025,0.021,0.06,0.037,0.074,0.064
							c0.478,0.914,0.952,1.83,1.431,2.743c0.039,0.075,0.021,0.115-0.038,0.161c-0.495,0.389-0.99,0.78-1.484,1.17
							c-0.313,0.247-0.625,0.495-0.939,0.741c-0.023,0.018-0.057,0.02-0.086,0.029c-0.003-0.031-0.014-0.064-0.008-0.093
							c0.054-0.262,0.109-0.524,0.167-0.786c0.016-0.073-0.001-0.117-0.079-0.132c-0.904-0.18-1.806-0.374-2.714-0.537
							c-0.466-0.084-0.941-0.072-1.407,0.045c-0.022,0.006-0.049-0.006-0.074-0.01c0.01-0.029,0.012-0.065,0.031-0.086
							c0.267-0.301,0.537-0.599,0.806-0.899c0.045-0.05,0.09-0.1,0.134-0.15C415.717,448.323,415.721,448.327,415.725,448.331z"/>
						<path style="fill:#5E6F3C;" d="M426.369,454.444c-0.159,0.177-0.317,0.354-0.477,0.53c-0.08,0.089-0.081,0.115,0.006,0.194
							c0.195,0.176,0.391,0.35,0.584,0.527c0.024,0.022,0.035,0.058,0.052,0.088c-0.033,0.009-0.066,0.028-0.098,0.027
							c-1.032-0.044-2.063-0.09-3.095-0.134c-0.073-0.003-0.099-0.032-0.109-0.102c-0.148-1.019-0.298-2.038-0.445-3.056
							c-0.005-0.032,0.011-0.066,0.017-0.099c0.031,0.015,0.067,0.023,0.092,0.045c0.199,0.176,0.396,0.352,0.591,0.532
							c0.061,0.056,0.104,0.053,0.159-0.009c0.537-0.603,1.085-1.197,1.612-1.809c0.371-0.431,0.684-0.903,0.851-1.457
							c0.006-0.02,0.008-0.043,0.018-0.061c0.011-0.018,0.031-0.044,0.047-0.044c0.016,0,0.039,0.025,0.046,0.044
							c0.046,0.132,0.09,0.265,0.133,0.398c0.229,0.71,0.461,1.419,0.683,2.131c0.06,0.191,0.095,0.391,0.128,0.589
							c0.069,0.425-0.047,0.803-0.323,1.131c-0.153,0.182-0.317,0.354-0.475,0.531C426.368,454.442,426.368,454.443,426.369,454.444
							z"/>
						<path style="fill:#5E6F3C;" d="M416.752,458.444c-0.188-0.166-0.309-0.377-0.389-0.609c-0.15-0.435-0.289-0.873-0.432-1.309
							c-0.045-0.139-0.048-0.142-0.186-0.097c-0.246,0.079-0.492,0.161-0.739,0.238c-0.03,0.009-0.066-0.002-0.099-0.004
							c0.008-0.03,0.009-0.064,0.024-0.089c0.392-0.619,0.787-1.237,1.18-1.855c0.152-0.239,0.304-0.477,0.455-0.716
							c0.08-0.126,0.079-0.127,0.215-0.072c0.941,0.374,1.882,0.749,2.823,1.125c0.03,0.012,0.053,0.042,0.08,0.063
							c-0.028,0.02-0.053,0.047-0.084,0.057c-0.251,0.084-0.503,0.167-0.756,0.245c-0.078,0.024-0.105,0.062-0.078,0.14
							c0.287,0.851,0.563,1.705,0.864,2.551c0.15,0.423,0.377,0.811,0.673,1.153c0.03,0.034,0.066,0.063,0.094,0.099
							c0.016,0.021,0.02,0.051,0.029,0.077c-0.028,0.005-0.057,0.02-0.082,0.015c-0.337-0.069-0.674-0.139-1.01-0.212
							c-0.571-0.125-1.143-0.245-1.711-0.382C417.207,458.759,416.95,458.623,416.752,458.444z"/>
						<path style="opacity:0.7;fill:#5E6F3C;" d="M422.701,456.265c0.345,0.31,0.688,0.621,1.035,0.927
							c0.071,0.062,0.068,0.101,0.007,0.168c-0.516,0.569-1.026,1.143-1.541,1.712c-0.179,0.197-0.382,0.361-0.661,0.39
							c-0.228,0.024-0.426-0.056-0.604-0.188c-0.367-0.273-0.61-0.645-0.803-1.048c-0.134-0.279-0.235-0.574-0.352-0.861
							c-0.024-0.059-0.009-0.1,0.033-0.147c0.564-0.624,1.125-1.25,1.688-1.876c0.077-0.086,0.077-0.086,0.165-0.007
							C422.012,455.646,422.356,455.956,422.701,456.265z"/>
						<path style="opacity:0.7;fill:#5E6F3C;" d="M414.258,450.241c0.238-0.245,0.505-0.341,0.79-0.394
							c0.516-0.095,1.031-0.056,1.544,0.029c0.078,0.013,0.155,0.037,0.233,0.045c0.089,0.009,0.127,0.053,0.154,0.137
							c0.255,0.791,0.514,1.58,0.771,2.37c0.037,0.113,0.036,0.114-0.077,0.151c-0.885,0.289-1.77,0.576-2.655,0.867
							c-0.072,0.024-0.102,0.011-0.125-0.061c-0.239-0.738-0.48-1.476-0.72-2.214c-0.077-0.236-0.117-0.475-0.027-0.716
							C414.179,450.368,414.233,450.289,414.258,450.241z"/>
						<path style="opacity:0.7;fill:#5E6F3C;" d="M424.835,451.034c-0.098,0.235-0.262,0.232-0.473,0.184
							c-0.757-0.172-1.518-0.327-2.278-0.484c-0.086-0.018-0.105-0.05-0.087-0.135c0.195-0.911,0.388-1.822,0.578-2.733
							c0.016-0.076,0.041-0.101,0.122-0.084c0.75,0.161,1.502,0.313,2.25,0.481c0.172,0.039,0.347,0.104,0.496,0.197
							c0.285,0.178,0.367,0.464,0.335,0.786c-0.037,0.385-0.194,0.729-0.393,1.051c-0.163,0.263-0.35,0.512-0.527,0.766
							C424.85,451.053,424.843,451.044,424.835,451.034z"/>
					</g>
				</g>
			</g>
			<polygon style="fill:#B5B53D;" points="365.959,416.891 368.924,447.524 383.387,426.684 378.43,398.711 			"/>
		</g>
	</g>
	<g>
		<g>
			<g>
				
					<rect x="74.45" y="205.041" transform="matrix(0.2196 -0.9756 0.9756 0.2196 -175.0249 262.0307)" style="fill:#E0AD83;" width="3.652" height="70.756"/>
				<path style="fill:#F7E4D3;" d="M36.96,225.906c-4.1-0.923-7.918,0.768-8.107,3.741c-0.143,2.251,2.029,4.599,5.144,5.565
					c1.824,0.566,3.631,0.597,5.14,0.219c0.552-0.138,1.133-0.231,1.721-0.305l2.683-0.338l0,0c2.896-0.365,3.487-2.991,1.027-4.561
					l0,0l-2.276-1.452c-0.482-0.308-0.958-0.623-1.378-0.974C39.887,226.94,38.526,226.259,36.96,225.906z"/>
				<path style="fill:#F7E4D3;" d="M114.073,253.27c4.1,0.923,7.918-0.768,8.107-3.741c0.143-2.251-2.029-4.599-5.144-5.565
					c-1.824-0.566-3.631-0.597-5.14-0.219c-0.552,0.138-1.133,0.231-1.721,0.306l-2.683,0.338l0,0
					c-2.896,0.365-3.487,2.991-1.027,4.561l0,0l2.276,1.452c0.482,0.308,0.958,0.623,1.378,0.974
					C111.147,252.237,112.507,252.918,114.073,253.27z"/>
			</g>
			<g>
				
					<rect x="68.516" y="202.501" transform="matrix(0.6375 -0.7705 0.7705 0.6375 -157.7798 140.4371)" style="fill:#E0AD83;" width="3.652" height="70.756"/>
				<path style="fill:#F7E4D3;" d="M41.864,207.004c-3.238-2.679-7.408-2.9-8.922-0.335c-1.147,1.942-0.273,5.019,2.067,7.291
					c1.37,1.33,2.967,2.176,4.484,2.522c0.555,0.126,1.115,0.306,1.673,0.507l2.545,0.913l0,0c2.748,0.986,4.463-1.088,2.98-3.602
					l0,0l-1.371-2.325c-0.291-0.493-0.573-0.99-0.788-1.492C44.006,209.251,43.101,208.027,41.864,207.004z"/>
				<path style="fill:#F7E4D3;" d="M97.052,266.314c3.238,2.679,7.408,2.9,8.923,0.335c1.147-1.942,0.273-5.019-2.067-7.291
					c-1.37-1.33-2.967-2.176-4.484-2.522c-0.555-0.126-1.115-0.306-1.673-0.507l-2.545-0.913l0,0
					c-2.747-0.986-4.463,1.088-2.98,3.602l0,0l2.553,2.325c0.29,0.493-0.609,0.99-0.394,1.492
					C94.911,264.068,95.816,265.291,97.052,266.314z"/>
			</g>
		</g>
		<g>
			<path style="fill:#C98F63;" d="M115.987,219.144c0,0,0.371,4.515,0.937,7.515c0,0,5.489,4.908,18.62,6.91
				c14.915,2.275,37.076,2.683,52.924-8.306c0,0,0.13-2.348-0.485-8.163L115.987,219.144z"/>
			<path style="fill:#E0AD83;" d="M188.03,218.098c0.022,7.065-16.087,13.028-35.981,13.317c-19.894,0.289-36.04-5.204-36.062-12.27
				c-0.022-7.065,16.087-13.028,35.981-13.317C171.862,205.538,188.008,211.032,188.03,218.098z"/>
			<g>
				<path style="fill:none;stroke:#FFFFFF;stroke-width:0.5;stroke-miterlimit:10;stroke-dasharray:5.8018,5.8018;" d="
					M183.968,218.156c0.018,5.584-14.041,10.316-31.402,10.568c-17.36,0.253-31.448-4.07-31.465-9.655
					c-0.018-5.584,14.041-10.316,31.402-10.568C169.863,208.249,183.951,212.572,183.968,218.156z"/>
			</g>
			<path style="fill:#B5B53D;" d="M200.132,229.415c-1.98-1.061-8.481-4.379-15.632-6.207c-0.355-0.091-0.592-0.405-0.518-0.699
				c0.215-0.848,0.888-2.754,2.992-6.18c0.101-0.164,0.302-0.26,0.529-0.252c1.347,0.05,6.441,0.395,15.42,5.872
				c0.226,0.138,0.268,0.614,0.225,0.831c-0.195,0.984-0.828,3.81-2.126,6.437C200.88,229.503,200.469,229.596,200.132,229.415z"/>
		</g>
		<g>
			<path style="fill:#C98F63;" d="M102.511,213.782c0,0,1.442,4.294,2.71,7.072c0,0,6.505,3.449,19.733,2.247
				c15.025-1.366,36.639-6.28,49.392-20.746c0,0-0.436-2.311-2.427-7.809L102.511,213.782z"/>
			<path style="fill:#E0AD83;" d="M172.204,195.502c1.715,6.854-12.497,16.503-31.742,21.551
				c-19.245,5.048-36.237,3.583-37.952-3.271c-1.715-6.854,12.496-16.503,31.742-21.551
				C153.498,187.183,170.489,188.648,172.204,195.502z"/>
			<g>
				<path style="fill:none;stroke:#FFFFFF;stroke-width:0.5;stroke-miterlimit:10;stroke-dasharray:5.8018,5.8018;" d="
					M168.275,196.533c1.355,5.417-11.16,13.38-27.954,17.785c-16.794,4.405-31.507,3.584-32.862-1.834
					c-1.355-5.417,11.16-13.38,27.954-17.785C152.206,190.294,166.919,191.115,168.275,196.533z"/>
			</g>
			<path style="fill:#B5B53D;" d="M186.665,203.59c-2.176-0.556-9.283-2.219-16.664-2.28c-0.367-0.003-0.672-0.251-0.67-0.555
				c0.006-0.875,0.202-2.887,1.424-6.717c0.058-0.183,0.231-0.325,0.453-0.371c1.32-0.275,6.348-1.16,16.378,2.006
				c0.253,0.08,0.407,0.532,0.417,0.753c0.047,1.002,0.109,3.897-0.522,6.759C187.412,203.496,187.036,203.685,186.665,203.59z"/>
		</g>
		<g>
			<path style="fill:#C98F63;" d="M147.362,188.338c0,0,1.339,4.328,1.932,7.323c0,0-3.264,6.6-14.702,13.353
				c-12.992,7.671-33.404,16.31-52.206,12.021c0,0-0.996-2.13-2.593-7.755L147.362,188.338z"/>
			<path style="fill:#E0AD83;" d="M80.121,214.223c2.613,6.565,19.784,6.092,38.352-1.056c18.568-7.148,31.502-18.264,28.889-24.829
				c-2.613-6.565-19.784-6.092-38.352,1.056C90.442,196.541,77.508,207.658,80.121,214.223z"/>
			<g>
				<path style="fill:none;stroke:#FFFFFF;stroke-width:0.5;stroke-miterlimit:10;stroke-dasharray:5.8018,5.8018;" d="
					M83.912,212.763c2.065,5.188,16.875,4.338,33.078-1.899c16.203-6.237,27.664-15.5,25.598-20.689
					c-2.065-5.189-16.875-4.338-33.078,1.899C93.308,198.312,81.847,207.574,83.912,212.763z"/>
			</g>
			<path style="fill:#B5B53D;" d="M73.11,229.236c1.441-1.723,6.238-7.225,12.192-11.587c0.296-0.217,0.399-0.597,0.22-0.842
				c-0.516-0.707-1.851-2.224-5.08-4.619c-0.154-0.115-0.377-0.129-0.585-0.037c-1.232,0.548-5.83,2.768-12.119,11.197
				c-0.158,0.212-0.02,0.669,0.102,0.855c0.547,0.84,2.189,3.227,4.372,5.181C72.449,229.596,72.865,229.529,73.11,229.236z"/>
		</g>
	</g>
</g>
</svg>
